<?xml version='1.0' encoding='UTF-8' standalone='no'?>
<svg xmlns="http://www.w3.org/2000/svg" xmlns:xlink="http://www.w3.org/1999/xlink" height="1459pt" width="2881pt" viewBox="0 0 2881 1459">
 <title>gl2ps_renderer figure</title>
 <desc>
Creator: GL2PS 1.4.2, (C) 1999-2020 C. Geuzaine
For: Octave
CreationDate: Sun Sep 29 21:59:59 2024
</desc>
 <defs/>
 <polygon points="0,0 2881,0 2881,1459 0,1459" fill="#ffffff"/>
 <g>
  <polygon points="0,1459 2881,1459 2881,0 0,0" fill="#ffffff" shape-rendering="crispEdges"/>
  <clipPath id="cp0028811459">
   <polygon points="0,1459 2881,1459 2881,0 0,0"/>
  </clipPath>
  <g clip-path="url(#cp0028811459)">
   <polygon points="374.564,1298.86 2607.54,1298.86 2607.54,109.454 374.564,109.454" fill="#ffffff" shape-rendering="crispEdges"/>
   <polyline points="374.564,1298.86 374.564,109.454" stroke-width="0.5" stroke-linecap="butt" stroke-linejoin="miter" fill="none" stroke-dasharray="16,0" stroke="#262626" stroke-opacity="0.15"/>
   <polyline points="821.159,1298.86 821.159,109.454" stroke-width="0.5" stroke-linecap="butt" stroke-linejoin="miter" fill="none" stroke-dasharray="16,0" stroke="#262626" stroke-opacity="0.15"/>
   <polyline points="1267.75,1298.86 1267.75,109.454" stroke-width="0.5" stroke-linecap="butt" stroke-linejoin="miter" fill="none" stroke-dasharray="16,0" stroke="#262626" stroke-opacity="0.15"/>
   <polyline points="1714.35,1298.86 1714.35,109.454" stroke-width="0.5" stroke-linecap="butt" stroke-linejoin="miter" fill="none" stroke-dasharray="16,0" stroke="#262626" stroke-opacity="0.15"/>
   <polyline points="2160.94,1298.86 2160.94,109.454" stroke-width="0.5" stroke-linecap="butt" stroke-linejoin="miter" fill="none" stroke-dasharray="16,0" stroke="#262626" stroke-opacity="0.15"/>
   <polyline points="2607.54,1298.86 2607.54,109.454" stroke-width="0.5" stroke-linecap="butt" stroke-linejoin="miter" fill="none" stroke-dasharray="16,0" stroke="#262626" stroke-opacity="0.15"/>
   <polyline points="374.564,1298.86 374.564,1276.52" stroke-width="0.5" stroke-linecap="butt" stroke-linejoin="miter" fill="none" stroke="#262626"/>
   <polyline points="374.564,109.454 374.564,131.792" stroke-width="0.5" stroke-linecap="butt" stroke-linejoin="miter" fill="none" stroke="#262626"/>
   <polyline points="821.159,1298.86 821.159,1276.52" stroke-width="0.5" stroke-linecap="butt" stroke-linejoin="miter" fill="none" stroke="#262626"/>
   <polyline points="821.159,109.454 821.159,131.792" stroke-width="0.5" stroke-linecap="butt" stroke-linejoin="miter" fill="none" stroke="#262626"/>
   <polyline points="1267.75,1298.86 1267.75,1276.52" stroke-width="0.5" stroke-linecap="butt" stroke-linejoin="miter" fill="none" stroke="#262626"/>
   <polyline points="1267.75,109.454 1267.75,131.792" stroke-width="0.5" stroke-linecap="butt" stroke-linejoin="miter" fill="none" stroke="#262626"/>
   <polyline points="1714.35,1298.86 1714.35,1276.52" stroke-width="0.5" stroke-linecap="butt" stroke-linejoin="miter" fill="none" stroke="#262626"/>
   <polyline points="1714.35,109.454 1714.35,131.792" stroke-width="0.5" stroke-linecap="butt" stroke-linejoin="miter" fill="none" stroke="#262626"/>
   <polyline points="2160.94,1298.86 2160.94,1276.52" stroke-width="0.5" stroke-linecap="butt" stroke-linejoin="miter" fill="none" stroke="#262626"/>
   <polyline points="2160.94,109.454 2160.94,131.792" stroke-width="0.5" stroke-linecap="butt" stroke-linejoin="miter" fill="none" stroke="#262626"/>
   <polyline points="2607.54,1298.86 2607.54,1276.52" stroke-width="0.5" stroke-linecap="butt" stroke-linejoin="miter" fill="none" stroke="#262626"/>
   <polyline points="2607.54,109.454 2607.54,131.792" stroke-width="0.5" stroke-linecap="butt" stroke-linejoin="miter" fill="none" stroke="#262626"/>
   <text font-family="FreeSans" xml:space="preserve" font-size="10" transform="translate(371.564,1314.36) rotate(-0,3,-8)" font-style="normal" font-weight="normal">
    <tspan y="-0" fill="rgb(38,38,38)" x="0 ">0</tspan>
   </text>
   <text font-family="FreeSans" xml:space="preserve" font-size="10" transform="translate(812.159,1314.36) rotate(-0,9,-8)" font-style="normal" font-weight="normal">
    <tspan y="-0" fill="rgb(38,38,38)" x="0 6 12 ">200</tspan>
   </text>
   <text font-family="FreeSans" xml:space="preserve" font-size="10" transform="translate(1258.75,1314.36) rotate(-0,9,-8)" font-style="normal" font-weight="normal">
    <tspan y="-0" fill="rgb(38,38,38)" x="0 6 12 ">400</tspan>
   </text>
   <text font-family="FreeSans" xml:space="preserve" font-size="10" transform="translate(1705.35,1314.36) rotate(-0,9,-8)" font-style="normal" font-weight="normal">
    <tspan y="-0" fill="rgb(38,38,38)" x="0 6 12 ">600</tspan>
   </text>
   <text font-family="FreeSans" xml:space="preserve" font-size="10" transform="translate(2151.94,1314.36) rotate(-0,9,-8)" font-style="normal" font-weight="normal">
    <tspan y="-0" fill="rgb(38,38,38)" x="0 6 12 ">800</tspan>
   </text>
   <text font-family="FreeSans" xml:space="preserve" font-size="10" transform="translate(2595.54,1314.36) rotate(-0,12,-8)" font-style="normal" font-weight="normal">
    <tspan y="-0" fill="rgb(38,38,38)" x="0 6 12 18 ">1000</tspan>
   </text>
   <polyline points="374.564,1298.86 2607.54,1298.86" stroke-width="0.5" stroke-linecap="butt" stroke-linejoin="miter" fill="none" stroke-dasharray="16,0" stroke="#262626" stroke-opacity="0.15"/>
   <polyline points="374.564,1001.5 2607.54,1001.5" stroke-width="0.5" stroke-linecap="butt" stroke-linejoin="miter" fill="none" stroke-dasharray="16,0" stroke="#262626" stroke-opacity="0.15"/>
   <polyline points="374.564,704.155 2607.54,704.155" stroke-width="0.5" stroke-linecap="butt" stroke-linejoin="miter" fill="none" stroke-dasharray="16,0" stroke="#262626" stroke-opacity="0.15"/>
   <polyline points="374.564,406.804 2607.54,406.804" stroke-width="0.5" stroke-linecap="butt" stroke-linejoin="miter" fill="none" stroke-dasharray="16,0" stroke="#262626" stroke-opacity="0.15"/>
   <polyline points="374.564,109.454 2607.54,109.454" stroke-width="0.5" stroke-linecap="butt" stroke-linejoin="miter" fill="none" stroke-dasharray="16,0" stroke="#262626" stroke-opacity="0.15"/>
   <polyline points="374.564,1298.86 396.894,1298.86" stroke-width="0.5" stroke-linecap="butt" stroke-linejoin="miter" fill="none" stroke="#262626"/>
   <polyline points="2607.54,1298.86 2585.21,1298.86" stroke-width="0.5" stroke-linecap="butt" stroke-linejoin="miter" fill="none" stroke="#262626"/>
   <polyline points="374.564,1001.5 396.894,1001.5" stroke-width="0.5" stroke-linecap="butt" stroke-linejoin="miter" fill="none" stroke="#262626"/>
   <polyline points="2607.54,1001.5 2585.21,1001.5" stroke-width="0.5" stroke-linecap="butt" stroke-linejoin="miter" fill="none" stroke="#262626"/>
   <polyline points="374.564,704.155 396.894,704.155" stroke-width="0.5" stroke-linecap="butt" stroke-linejoin="miter" fill="none" stroke="#262626"/>
   <polyline points="2607.54,704.155 2585.21,704.155" stroke-width="0.5" stroke-linecap="butt" stroke-linejoin="miter" fill="none" stroke="#262626"/>
   <polyline points="374.564,406.804 396.894,406.804" stroke-width="0.5" stroke-linecap="butt" stroke-linejoin="miter" fill="none" stroke="#262626"/>
   <polyline points="2607.54,406.804 2585.21,406.804" stroke-width="0.5" stroke-linecap="butt" stroke-linejoin="miter" fill="none" stroke="#262626"/>
   <polyline points="374.564,109.454 396.894,109.454" stroke-width="0.5" stroke-linecap="butt" stroke-linejoin="miter" fill="none" stroke="#262626"/>
   <polyline points="2607.54,109.454 2585.21,109.454" stroke-width="0.5" stroke-linecap="butt" stroke-linejoin="miter" fill="none" stroke="#262626"/>
   <text font-family="FreeSans" xml:space="preserve" font-size="10" transform="translate(363.564,1302.86) rotate(-0,6,-4)" font-style="normal" font-weight="normal">
    <tspan y="-0" fill="rgb(38,38,38)" x="0 ">0</tspan>
   </text>
   <text font-family="FreeSans" xml:space="preserve" font-size="10" transform="translate(333.564,1005.5) rotate(-0,36,-4)" font-style="normal" font-weight="normal">
    <tspan y="-0" fill="rgb(38,38,38)" x="0 6 12 18 24 30 ">200000</tspan>
   </text>
   <text font-family="FreeSans" xml:space="preserve" font-size="10" transform="translate(333.564,708.155) rotate(-0,36,-4)" font-style="normal" font-weight="normal">
    <tspan y="-0" fill="rgb(38,38,38)" x="0 6 12 18 24 30 ">400000</tspan>
   </text>
   <text font-family="FreeSans" xml:space="preserve" font-size="10" transform="translate(333.564,410.804) rotate(-0,36,-4)" font-style="normal" font-weight="normal">
    <tspan y="-0" fill="rgb(38,38,38)" x="0 6 12 18 24 30 ">600000</tspan>
   </text>
   <text font-family="FreeSans" xml:space="preserve" font-size="10" transform="translate(333.564,113.454) rotate(-0,36,-4)" font-style="normal" font-weight="normal">
    <tspan y="-0" fill="rgb(38,38,38)" x="0 6 12 18 24 30 ">800000</tspan>
   </text>
   <polyline points="374.564,1298.86 2607.54,1298.86" stroke-width="0.5" stroke-linecap="square" stroke-linejoin="miter" fill="none" stroke-dasharray="16,0" stroke="#262626"/>
   <polyline points="374.564,109.454 2607.54,109.454" stroke-width="0.5" stroke-linecap="square" stroke-linejoin="miter" fill="none" stroke-dasharray="16,0" stroke="#262626"/>
   <polyline points="374.564,1298.86 374.564,109.454" stroke-width="0.5" stroke-linecap="square" stroke-linejoin="miter" fill="none" stroke-dasharray="16,0" stroke="#262626"/>
   <polyline points="2607.54,1298.86 2607.54,109.454" stroke-width="0.5" stroke-linecap="square" stroke-linejoin="miter" fill="none" stroke-dasharray="16,0" stroke="#262626"/>
   <text font-family="FreeSans" xml:space="preserve" font-size="11" transform="translate(1426.05,1329.36) rotate(-0,65,-10)" font-style="normal" font-weight="normal">
    <tspan y="-1" fill="rgb(38,38,38)" x="0 8 14 23 29 35 39 42 48 51 54 57 63 67 73 79 85 90 93 99 103 109 115 118 124 ">Number of threads created</tspan>
   </text>
   <text font-family="FreeSans" xml:space="preserve" font-size="11" transform="translate(276.064,704.155) rotate(-90,52.5,0)" font-style="normal" font-weight="normal">
    <tspan y="-3" fill="rgb(38,38,38)" x="0 8 14 19 25 34 40 46 49 57 64 73 76 81 87 93 99 ">Cosumed RAM space</tspan>
   </text>
   <polyline points="376.797,1295.95 379.03,1294.78 381.263,1293.6 383.496,1292.43 385.729,1291.26 387.962,1290.09 390.194,1288.92 392.428,1287.75 394.661,1286.57 396.894,1285.4 399.126,1284.23 401.359,1283.06 403.593,1281.89 405.825,1280.72 408.059,1279.55 410.292,1278.37 412.524,1277.2 414.757,1276.03 416.99,1274.86 419.223,1273.69 421.457,1272.52 423.689,1271.34 425.922,1270.17 428.155,1269 430.388,1267.83 432.621,1264.12 434.854,1262.95 437.087,1261.78 439.32,1260.6 441.553,1259.43 443.786,1258.26 446.019,1257.09 448.252,1255.92 450.485,1254.75 452.718,1253.57 454.951,1252.4 457.184,1251.23 459.417,1250.06 461.65,1248.89 463.883,1247.72 466.116,1246.55 468.349,1245.37 470.582,1244.2 472.815,1243.03 475.048,1241.86 477.281,1240.69 479.514,1239.52 481.747,1238.34 483.979,1237.17 486.212,1236 488.445,1234.83 490.679,1233.66 492.912,1232.49 495.145,1231.31 497.377,1230.14 499.61,1228.97 501.843,1227.8 504.077,1226.63 506.31,1225.46 508.542,1224.29 510.775,1223.11 513.008,1221.94 515.241,1220.77 517.474,1219.6 519.707,1218.43 521.94,1217.26 524.173,1216.08 526.406,1214.91 528.639,1213.74 530.872,1212.57 533.105,1211.4 535.338,1210.23 537.571,1209.06 539.804,1207.88 542.037,1206.71 544.27,1205.54 546.503,1204.37 548.736,1203.2 550.969,1202.03 553.202,1200.85 555.435,1199.68 557.668,1198.51 559.901,1197.34 562.134,1196.17 564.367,1195 566.6,1193.43 568.833,1192.26 571.065,1191.09 573.299,1189.92 575.532,1188.75 577.765,1187.57 579.998,1186.4 582.23,1185.23 584.463,1184.06 586.697,1182.89 588.93,1181.72 591.163,1180.55 593.396,1179.37 595.628,1178.2 597.861,1177.03 600.094,1175.86 602.327,1174.69 604.561,1173.52 606.793,1172.34 609.026,1171.17 611.259,1170 613.492,1168.83 615.725,1167.66 617.958,1166.49 620.191,1165.32 622.424,1164.14 624.657,1162.97 626.89,1161.8 629.123,1160.63 631.356,1159.46 633.589,1158.29 635.822,1157.11 638.055,1155.94 640.288,1154.77 642.521,1153.6 644.754,1152.43 646.987,1151.26 649.22,1150.08 651.453,1148.91 653.686,1147.74 655.919,1146.57 658.152,1145.4 660.385,1144.23 662.618,1143.06 664.851,1141.88 667.083,1140.71 669.316,1139.54 671.55,1138.37 673.783,1137.2 676.016,1136.03 678.249,1134.85 680.481,1133.68 682.714,1132.51 684.947,1131.34 687.181,1130.17 689.414,1129 691.646,1127.83 693.879,1126.65 696.112,1125.48 698.345,1124.31 700.578,1123.14 702.812,1121.58 705.044,1120.4 707.277,1119.23 709.51,1118.06 711.743,1116.89 713.976,1115.72 716.209,1114.55 718.442,1113.37 720.675,1112.2 722.908,1111.03 725.141,1109.86 727.374,1108.69 729.607,1107.52 731.84,1106.34 734.073,1105.17 736.306,1104 738.539,1102.83 740.772,1101.66 743.005,1100.49 745.238,1099.32 747.471,1098.14 749.704,1096.97 751.937,1095.8 754.17,1094.63 756.403,1093.46 758.636,1092.29 760.869,1091.11 763.102,1089.94 765.334,1088.77 767.567,1087.6 769.801,1086.43 772.034,1085.26 774.267,1084.08 776.5,1082.91 778.732,1081.74 780.965,1080.57 783.198,1079.4 785.432,1078.23 787.665,1077.06 789.897,1075.88 792.13,1074.71 794.363,1073.54 796.596,1072.37 798.829,1071.2 801.062,1070.03 803.295,1068.85 805.528,1067.68 807.761,1066.51 809.994,1065.34 812.227,1064.17 814.46,1063 816.693,1061.83 818.926,1060.65 821.159,1059.48 823.392,1058.31 825.625,1057.14 827.858,1055.97 830.091,1054.8 832.324,1053.62 834.557,1052.45 836.79,1051.28 839.023,1049.72 841.256,1048.55 843.489,1047.37 845.722,1046.2 847.955,1045.03 850.188,1043.86 852.421,1042.69 854.654,1041.52 856.887,1040.34 859.12,1039.17 861.353,1038 863.585,1036.83 865.818,1035.66 868.052,1034.49 870.285,1033.32 872.518,1032.14 874.75,1030.97 876.983,1029.8 879.216,1028.63 881.449,1027.46 883.683,1026.29 885.916,1025.11 888.148,1023.94 890.381,1022.77 892.614,1021.6 894.847,1020.43 897.08,1019.26 899.313,1018.08 901.546,1016.91 903.779,1015.74 906.012,1014.57 908.245,1013.4 910.478,1012.23 912.711,1011.06 914.944,1009.88 917.177,1008.71 919.41,1007.54 921.643,1006.37 923.876,1005.2 926.109,1004.03 928.342,1002.85 930.575,1001.68 932.808,1000.51 935.041,999.34 937.274,998.168 939.507,996.997 941.74,995.826 943.973,994.654 946.206,993.482 948.438,992.311 950.671,991.139 952.905,989.968 955.138,988.796 957.371,987.625 959.604,986.453 961.836,985.282 964.069,984.11 966.302,982.938 968.536,981.767 970.769,980.595 973.001,979.031 975.234,977.86 977.467,976.688 979.7,975.517 981.933,974.345 984.166,973.173 986.399,972.002 988.632,970.83 990.865,969.659 993.098,968.487 995.331,967.315 997.564,966.144 999.797,964.973 1002.03,963.801 1004.26,962.629 1006.5,961.458 1008.73,960.286 1010.96,959.115 1013.19,957.943 1015.43,956.771 1017.66,955.6 1019.89,954.428 1022.13,953.257 1024.36,952.085 1026.59,950.914 1028.83,949.742 1031.06,948.571 1033.29,947.399 1035.52,946.228 1037.76,945.056 1039.99,943.884 1042.22,942.713 1044.46,941.542 1046.69,940.37 1048.92,939.198 1051.16,938.026 1053.39,936.855 1055.62,935.684 1057.85,934.512 1060.09,933.34 1062.32,932.169 1064.55,930.997 1066.79,929.826 1069.02,928.654 1071.25,927.482 1073.49,926.311 1075.72,925.14 1077.95,923.968 1080.18,922.796 1082.42,921.625 1084.65,920.453 1086.88,919.282 1089.12,918.11 1091.35,916.938 1093.58,915.767 1095.81,914.595 1098.05,913.424 1100.28,912.252 1102.51,911.081 1104.75,909.909 1106.98,908.738 1109.21,907.173 1111.45,906.002 1113.68,904.831 1115.91,903.659 1118.14,902.487 1120.38,901.316 1122.61,900.144 1124.84,898.973 1127.08,897.801 1129.31,896.629 1131.54,895.458 1133.78,894.287 1136.01,893.115 1138.24,891.943 1140.47,890.771 1142.71,889.6 1144.94,888.429 1147.17,887.257 1149.41,886.085 1151.64,884.914 1153.87,883.742 1156.11,882.571 1158.34,881.399 1160.57,880.228 1162.8,879.056 1165.04,877.885 1167.27,876.713 1169.5,875.542 1171.74,874.37 1173.97,873.198 1176.2,872.027 1178.44,870.855 1180.67,869.684 1182.9,868.512 1185.13,867.34 1187.37,866.169 1189.6,864.998 1191.83,863.826 1194.07,862.654 1196.3,861.483 1198.53,860.311 1200.76,859.14 1203,857.968 1205.23,856.796 1207.46,855.625 1209.7,854.453 1211.93,853.282 1214.16,852.11 1216.4,850.938 1218.63,849.767 1220.86,848.596 1223.09,847.424 1225.33,846.252 1227.56,845.081 1229.79,843.909 1232.03,842.738 1234.26,841.566 1236.49,840.395 1238.73,839.223 1240.96,838.051 1243.19,836.88 1245.42,835.316 1247.66,834.145 1249.89,832.973 1252.12,831.801 1254.36,830.63 1256.59,829.458 1258.82,828.287 1261.06,827.115 1263.29,825.943 1265.52,824.772 1267.75,823.6 1269.99,822.429 1272.22,821.257 1274.45,820.085 1276.69,818.914 1278.92,817.743 1281.15,816.571 1283.38,815.399 1285.62,814.228 1287.85,813.056 1290.08,811.885 1292.32,810.713 1294.55,809.542 1296.78,808.37 1299.02,807.198 1301.25,806.027 1303.48,804.855 1305.71,803.684 1307.95,802.512 1310.18,801.341 1312.41,800.169 1314.65,798.998 1316.88,797.826 1319.11,796.654 1321.35,795.483 1323.58,794.311 1325.81,793.14 1328.04,791.968 1330.28,790.796 1332.51,789.625 1334.74,788.454 1336.98,787.282 1339.21,786.11 1341.44,784.939 1343.68,783.767 1345.91,782.596 1348.14,781.424 1350.37,780.252 1352.61,779.081 1354.84,777.91 1357.07,776.738 1359.31,775.566 1361.54,774.395 1363.77,773.223 1366,772.052 1368.24,770.88 1370.47,769.708 1372.7,768.537 1374.94,767.365 1377.17,766.194 1379.4,765.022 1381.64,763.458 1383.87,762.287 1386.1,761.115 1388.33,759.943 1390.57,758.772 1392.8,757.601 1395.03,756.429 1397.27,755.257 1399.5,754.086 1401.73,752.914 1403.97,751.743 1406.2,750.571 1408.43,749.399 1410.66,748.228 1412.9,747.056 1415.13,745.885 1417.36,744.713 1419.6,743.542 1421.83,742.37 1424.06,741.199 1426.3,740.027 1428.53,738.855 1430.76,737.684 1432.99,736.512 1435.23,735.341 1437.46,734.169 1439.69,732.998 1441.93,731.826 1444.16,730.654 1446.39,729.483 1448.62,728.312 1450.86,727.14 1453.09,725.968 1455.32,724.797 1457.56,723.625 1459.79,722.454 1462.02,721.282 1464.26,720.11 1466.49,718.939 1468.72,717.768 1470.96,716.596 1473.19,715.424 1475.42,714.253 1477.65,713.081 1479.89,711.91 1482.12,710.738 1484.35,709.566 1486.59,708.395 1488.82,707.223 1491.05,706.052 1493.28,704.88 1495.52,703.708 1497.75,702.537 1499.98,701.366 1502.22,700.194 1504.45,699.022 1506.68,697.851 1508.92,696.679 1511.15,695.508 1513.38,694.336 1515.61,693.165 1517.85,691.601 1520.08,690.429 1522.31,689.257 1524.55,688.086 1526.78,686.914 1529.01,685.743 1531.25,684.571 1533.48,683.399 1535.71,682.228 1537.94,681.057 1540.18,679.885 1542.41,678.713 1544.64,677.542 1546.88,676.37 1549.11,675.199 1551.34,674.027 1553.58,672.855 1555.81,671.684 1558.04,670.512 1560.27,669.341 1562.51,668.169 1564.74,666.998 1566.97,665.826 1569.21,664.655 1571.44,663.483 1573.67,662.312 1575.9,661.14 1578.14,659.968 1580.37,658.797 1582.6,657.625 1584.84,656.454 1587.07,655.282 1589.3,654.111 1591.54,652.939 1593.77,651.768 1596,650.596 1598.23,649.424 1600.47,648.253 1602.7,647.081 1604.93,645.91 1607.17,644.738 1609.4,643.566 1611.63,642.395 1613.87,641.224 1616.1,640.052 1618.33,638.88 1620.56,637.709 1622.8,636.537 1625.03,635.366 1627.26,634.194 1629.5,633.022 1631.73,631.851 1633.96,630.679 1636.2,629.508 1638.43,628.336 1640.66,627.165 1642.89,625.993 1645.13,624.822 1647.36,623.65 1649.59,622.479 1651.83,620.915 1654.06,619.743 1656.29,618.571 1658.52,617.4 1660.76,616.228 1662.99,615.057 1665.22,613.885 1667.46,612.713 1669.69,611.542 1671.92,610.371 1674.16,609.199 1676.39,608.027 1678.62,606.855 1680.85,605.684 1683.09,604.513 1685.32,603.341 1687.55,602.169 1689.79,600.998 1692.02,599.826 1694.25,598.655 1696.49,597.483 1698.72,596.312 1700.95,595.14 1703.18,593.969 1705.42,592.797 1707.65,591.625 1709.88,590.454 1712.12,589.282 1714.35,588.111 1716.58,586.939 1718.82,585.768 1721.05,584.596 1723.28,583.424 1725.51,582.253 1727.75,581.082 1729.98,579.91 1732.21,578.738 1734.45,577.567 1736.68,576.395 1738.91,575.224 1741.15,574.052 1743.38,572.88 1745.61,571.709 1747.84,570.537 1750.08,569.366 1752.31,568.194 1754.54,567.022 1756.78,565.851 1759.01,564.68 1761.24,563.508 1763.48,562.336 1765.71,561.165 1767.94,559.993 1770.17,558.822 1772.41,557.65 1774.64,556.479 1776.87,555.307 1779.11,554.136 1781.34,552.964 1783.57,551.792 1785.8,550.621 1788.04,549.057 1790.27,547.885 1792.5,546.714 1794.74,545.542 1796.97,544.371 1799.2,543.199 1801.44,542.027 1803.67,540.856 1805.9,539.684 1808.13,538.513 1810.37,537.341 1812.6,536.169 1814.83,534.998 1817.07,533.827 1819.3,532.655 1821.53,531.483 1823.77,530.312 1826,529.14 1828.23,527.969 1830.46,526.797 1832.7,525.625 1834.93,524.454 1837.16,523.283 1839.4,522.111 1841.63,520.939 1843.86,519.768 1846.1,518.596 1848.33,517.425 1850.56,516.253 1852.79,515.082 1855.03,513.91 1857.26,512.738 1859.49,511.567 1861.73,510.396 1863.96,509.224 1866.19,508.052 1868.42,506.881 1870.66,505.709 1872.89,504.538 1875.12,503.366 1877.36,502.194 1879.59,501.023 1881.82,499.851 1884.06,498.68 1886.29,497.508 1888.52,496.336 1890.75,495.165 1892.99,493.994 1895.22,492.822 1897.45,491.65 1899.69,490.479 1901.92,489.307 1904.15,488.136 1906.39,486.964 1908.62,485.792 1910.85,484.621 1913.08,483.449 1915.32,482.278 1917.55,481.106 1919.78,479.935 1922.02,478.763 1924.25,477.199 1926.48,476.027 1928.72,474.856 1930.95,473.685 1933.18,472.513 1935.41,471.341 1937.65,470.17 1939.88,468.998 1942.11,467.827 1944.35,466.655 1946.58,465.483 1948.81,464.312 1951.04,463.141 1953.28,461.969 1955.51,460.797 1957.74,459.625 1959.98,458.454 1962.21,457.283 1964.44,456.111 1966.68,454.939 1968.91,453.768 1971.14,452.596 1973.37,451.425 1975.61,450.253 1977.84,449.082 1980.07,447.91 1982.31,446.738 1984.54,445.567 1986.77,444.396 1989.01,443.224 1991.24,442.052 1993.47,440.881 1995.7,439.709 1997.94,438.538 2000.17,437.366 2002.4,436.194 2004.64,435.023 2006.87,433.852 2009.1,432.68 2011.33,431.508 2013.57,430.337 2015.8,429.165 2018.03,427.994 2020.27,426.822 2022.5,425.65 2024.73,424.479 2026.97,423.307 2029.2,422.136 2031.43,420.964 2033.67,419.792 2035.9,418.621 2038.13,417.45 2040.36,416.278 2042.6,415.106 2044.83,413.935 2047.06,412.763 2049.3,411.592 2051.53,410.42 2053.76,409.249 2056,408.077 2058.23,406.905 2060.46,405.341 2062.69,404.17 2064.93,402.999 2067.16,401.827 2069.39,400.655 2071.63,399.483 2073.86,398.312 2076.09,397.141 2078.32,395.969 2080.56,394.797 2082.79,393.626 2085.02,392.454 2087.26,391.283 2089.49,390.111 2091.72,388.939 2093.96,387.768 2096.19,386.597 2098.42,385.425 2100.65,384.253 2102.89,383.082 2105.12,381.91 2107.35,380.739 2109.59,379.567 2111.82,378.396 2114.05,377.224 2116.29,376.052 2118.52,374.881 2120.75,373.709 2122.98,372.538 2125.22,371.366 2127.45,370.194 2129.68,369.023 2131.92,367.852 2134.15,366.68 2136.38,365.508 2138.62,364.337 2140.85,363.165 2143.08,361.994 2145.31,360.822 2147.55,359.65 2149.78,358.479 2152.01,357.308 2154.25,356.136 2156.48,354.964 2158.71,353.793 2160.94,352.621 2163.18,351.45 2165.41,350.278 2167.64,349.106 2169.88,347.935 2172.11,346.763 2174.34,345.592 2176.58,344.42 2178.81,343.249 2181.04,342.077 2183.27,340.906 2185.51,339.734 2187.74,338.562 2189.97,337.391 2192.21,336.219 2194.44,335.048 2196.67,333.484 2198.91,332.312 2201.14,331.141 2203.37,329.969 2205.6,328.797 2207.84,327.626 2210.07,326.455 2212.3,325.283 2214.54,324.111 2216.77,322.94 2219,321.768 2221.24,320.597 2223.47,319.425 2225.7,318.253 2227.93,317.082 2230.17,315.91 2232.4,314.739 2234.63,313.567 2236.87,312.396 2239.1,311.224 2241.33,310.053 2243.56,308.881 2245.8,307.709 2248.03,306.538 2250.26,305.366 2252.5,304.195 2254.73,303.023 2256.96,301.852 2259.2,300.68 2261.43,299.508 2263.66,298.337 2265.89,297.166 2268.13,295.994 2270.36,294.822 2272.59,293.651 2274.83,292.479 2277.06,291.308 2279.29,290.136 2281.53,288.964 2283.76,287.793 2285.99,286.621 2288.22,285.45 2290.46,284.278 2292.69,283.107 2294.92,281.935 2297.16,280.764 2299.39,279.592 2301.62,278.42 2303.86,277.249 2306.09,276.077 2308.32,274.906 2310.55,273.734 2312.79,272.562 2315.02,271.391 2317.25,270.22 2319.49,269.048 2321.72,267.876 2323.95,266.705 2326.18,265.533 2328.42,264.362 2330.65,263.19 2332.88,261.626 2335.12,260.455 2337.35,259.283 2339.58,258.111 2341.82,256.94 2344.05,255.768 2346.28,254.597 2348.51,253.425 2350.75,252.254 2352.98,251.082 2355.21,249.911 2357.45,248.739 2359.68,247.567 2361.91,246.396 2364.15,245.224 2366.38,244.053 2368.61,242.881 2370.84,241.709 2373.08,240.538 2375.31,239.366 2377.54,238.195 2379.78,237.023 2382.01,235.852 2384.24,234.68 2386.48,233.509 2388.71,232.337 2390.94,231.166 2393.17,229.994 2395.41,228.822 2397.64,227.651 2399.87,226.479 2402.11,225.308 2404.34,224.136 2406.57,222.965 2408.8,221.793 2411.04,220.622 2413.27,219.45 2415.5,218.278 2417.74,217.107 2419.97,215.935 2422.2,214.764 2424.44,213.592 2426.67,212.42 2428.9,211.249 2431.13,210.078 2433.37,208.906 2435.6,207.734 2437.83,206.562 2440.07,205.391 2442.3,204.22 2444.53,203.048 2446.77,201.876 2449,200.705 2451.23,199.533 2453.46,198.362 2455.7,197.19 2457.93,196.019 2460.16,194.847 2462.4,193.676 2464.63,192.504 2466.86,191.333 2469.1,189.769 2471.33,188.597 2473.56,187.425 2475.79,186.254 2478.03,185.082 2480.26,183.911 2482.49,182.739 2484.73,181.567 2486.96,180.396 2489.19,179.225 2491.42,178.053 2493.66,176.881 2495.89,175.71 2498.12,174.538 2500.36,173.367 2502.59,172.195 2504.82,171.023 2507.06,169.852 2509.29,168.68 2511.52,167.509 2513.75,166.337 2515.99,165.166 2518.22,163.994 2520.45,162.823 2522.69,161.651 2524.92,160.479 2527.15,159.308 2529.39,158.136 2531.62,156.965 2533.85,155.793 2536.08,154.622 2538.32,153.45 2540.55,152.278 2542.78,151.107 2545.02,149.936 2547.25,148.764 2549.48,147.592 2551.72,146.421 2553.95,145.249 2556.18,144.078 2558.41,142.906 2560.65,141.734 2562.88,140.563 2565.11,139.392 2567.35,138.22 2569.58,137.048 2571.81,135.876 2574.04,134.705 2576.28,133.534 2578.51,132.362 2580.74,131.19 2582.98,130.019 2585.21,128.847 2587.44,127.676 2589.68,126.504 2591.91,125.333 2594.14,124.161 2596.38,122.989 2598.61,121.818 2600.84,120.646 2603.07,119.475 2605.31,117.911 2607.54,116.739" stroke-width="0.5" stroke-linecap="butt" stroke-linejoin="round" fill="none" stroke="#0071bc"/>
   <polyline points="376.797,1295.98 379.03,1295.2 381.263,1294.42 383.496,1293.64 385.729,1292.86 387.962,1292.08 390.194,1291.3 392.428,1290.52 394.661,1289.74 396.894,1288.97 399.126,1288.19 401.359,1287.41 403.593,1286.63 405.825,1285.85 408.059,1285.07 410.292,1284.29 412.524,1283.51 414.757,1282.73 416.99,1281.95 419.223,1281.17 421.457,1280.4 423.689,1279.62 425.922,1278.84 428.155,1278.06 430.388,1274.65 432.621,1273.87 434.854,1273.09 437.087,1272.31 439.32,1271.53 441.553,1270.76 443.786,1269.98 446.019,1269.2 448.252,1268.42 450.485,1267.64 452.718,1266.86 454.951,1266.08 457.184,1265.3 459.417,1264.52 461.65,1263.74 463.883,1262.96 466.116,1262.19 468.349,1261.41 470.582,1260.63 472.815,1259.85 475.048,1259.07 477.281,1258.29 479.514,1257.51 481.747,1256.73 483.979,1255.95 486.212,1255.17 488.445,1254.4 490.679,1253.62 492.912,1252.84 495.145,1252.06 497.377,1251.28 499.61,1250.5 501.843,1249.72 504.077,1248.94 506.31,1248.16 508.542,1247.38 510.775,1246.6 513.008,1245.83 515.241,1245.05 517.474,1244.27 519.707,1243.49 521.94,1242.71 524.173,1241.93 526.406,1241.15 528.639,1240.37 530.872,1239.59 533.105,1238.81 535.338,1238.04 537.571,1237.26 539.804,1236.48 542.037,1235.7 544.27,1234.92 546.503,1234.14 548.736,1233.36 550.969,1232.58 553.202,1231.8 555.435,1231.02 557.668,1230.24 559.901,1229.47 562.134,1228.69 564.367,1227.52 566.6,1226.74 568.833,1225.96 571.065,1225.18 573.299,1224.4 575.532,1223.62 577.765,1222.84 579.998,1222.06 582.23,1221.28 584.463,1220.5 586.697,1219.72 588.93,1218.95 591.163,1218.17 593.396,1217.39 595.628,1216.61 597.861,1215.83 600.094,1215.05 602.327,1214.27 604.561,1213.49 606.793,1212.71 609.026,1211.93 611.259,1211.15 613.492,1210.38 615.725,1209.6 617.958,1208.82 620.191,1208.04 622.424,1207.26 624.657,1206.48 626.89,1205.7 629.123,1204.92 631.356,1204.14 633.589,1203.36 635.822,1202.58 638.055,1201.81 640.288,1201.03 642.521,1200.25 644.754,1199.47 646.987,1198.69 649.22,1197.91 651.453,1197.13 653.686,1196.35 655.919,1195.57 658.152,1194.79 660.385,1194.02 662.618,1193.24 664.851,1192.46 667.083,1191.68 669.316,1190.9 671.55,1190.12 673.783,1189.34 676.016,1188.56 678.249,1187.78 680.481,1187 682.714,1186.22 684.947,1185.45 687.181,1184.67 689.414,1183.89 691.646,1183.11 693.879,1182.33 696.112,1181.55 698.345,1180.77 700.578,1179.6 702.812,1178.82 705.044,1178.04 707.277,1177.26 709.51,1176.48 711.743,1175.7 713.976,1174.93 716.209,1174.15 718.442,1173.37 720.675,1172.59 722.908,1171.81 725.141,1171.03 727.374,1170.25 729.607,1169.47 731.84,1168.69 734.073,1167.91 736.306,1167.13 738.539,1166.36 740.772,1165.58 743.005,1164.8 745.238,1164.02 747.471,1163.24 749.704,1162.46 751.937,1161.68 754.17,1160.9 756.403,1160.12 758.636,1159.34 760.869,1158.57 763.102,1157.79 765.334,1157.01 767.567,1156.23 769.801,1155.45 772.034,1154.67 774.267,1153.89 776.5,1153.11 778.732,1152.33 780.965,1151.55 783.198,1150.77 785.432,1150 787.665,1149.22 789.897,1148.44 792.13,1147.66 794.363,1146.88 796.596,1146.1 798.829,1145.32 801.062,1144.54 803.295,1143.76 805.528,1142.98 807.761,1142.21 809.994,1141.43 812.227,1140.65 814.46,1139.87 816.693,1139.09 818.926,1138.31 821.159,1137.53 823.392,1136.75 825.625,1135.97 827.858,1135.19 830.091,1134.41 832.324,1133.64 834.557,1132.86 836.79,1131.69 839.023,1130.91 841.256,1130.13 843.489,1129.35 845.722,1128.57 847.955,1127.79 850.188,1127.01 852.421,1126.23 854.654,1125.45 856.887,1124.67 859.12,1123.89 861.353,1123.12 863.585,1122.34 865.818,1121.56 868.052,1120.78 870.285,1120 872.518,1119.22 874.75,1118.44 876.983,1117.66 879.216,1116.88 881.449,1116.1 883.683,1115.32 885.916,1114.55 888.148,1113.77 890.381,1112.99 892.614,1112.21 894.847,1111.43 897.08,1110.65 899.313,1109.87 901.546,1109.09 903.779,1108.31 906.012,1107.53 908.245,1106.75 910.478,1105.98 912.711,1105.2 914.944,1104.42 917.177,1103.64 919.41,1102.86 921.643,1102.08 923.876,1101.3 926.109,1100.52 928.342,1099.74 930.575,1098.96 932.808,1098.19 935.041,1097.41 937.274,1096.63 939.507,1095.85 941.74,1095.07 943.973,1094.29 946.206,1093.51 948.438,1092.73 950.671,1091.95 952.905,1091.17 955.138,1090.4 957.371,1089.62 959.604,1088.84 961.836,1088.06 964.069,1087.28 966.302,1086.5 968.536,1085.72 970.769,1084.55 973.001,1083.77 975.234,1082.99 977.467,1082.21 979.7,1081.43 981.933,1080.65 984.166,1079.87 986.399,1079.1 988.632,1078.32 990.865,1077.54 993.098,1076.76 995.331,1075.98 997.564,1075.2 999.797,1074.42 1002.03,1073.64 1004.26,1072.86 1006.5,1072.08 1008.73,1071.3 1010.96,1070.53 1013.19,1069.75 1015.43,1068.97 1017.66,1068.19 1019.89,1067.41 1022.13,1066.63 1024.36,1065.85 1026.59,1065.07 1028.83,1064.29 1031.06,1063.51 1033.29,1062.74 1035.52,1061.96 1037.76,1061.18 1039.99,1060.4 1042.22,1059.62 1044.46,1058.84 1046.69,1058.06 1048.92,1057.28 1051.16,1056.5 1053.39,1055.72 1055.62,1054.94 1057.85,1054.17 1060.09,1053.39 1062.32,1052.61 1064.55,1051.83 1066.79,1051.05 1069.02,1050.27 1071.25,1049.49 1073.49,1048.71 1075.72,1047.93 1077.95,1047.15 1080.18,1046.38 1082.42,1045.6 1084.65,1044.82 1086.88,1044.04 1089.12,1043.26 1091.35,1042.48 1093.58,1041.7 1095.81,1040.92 1098.05,1040.14 1100.28,1039.36 1102.51,1038.58 1104.75,1037.81 1106.98,1036.63 1109.21,1035.85 1111.45,1035.08 1113.68,1034.3 1115.91,1033.52 1118.14,1032.74 1120.38,1031.96 1122.61,1031.18 1124.84,1030.4 1127.08,1029.62 1129.31,1028.84 1131.54,1028.06 1133.78,1027.29 1136.01,1026.51 1138.24,1025.73 1140.47,1024.95 1142.71,1024.17 1144.94,1023.39 1147.17,1022.61 1149.41,1021.83 1151.64,1021.05 1153.87,1020.27 1156.11,1019.49 1158.34,1018.72 1160.57,1017.94 1162.8,1017.16 1165.04,1016.38 1167.27,1015.6 1169.5,1014.82 1171.74,1014.04 1173.97,1013.26 1176.2,1012.48 1178.44,1011.7 1180.67,1010.92 1182.9,1010.15 1185.13,1009.37 1187.37,1008.59 1189.6,1007.81 1191.83,1007.03 1194.07,1006.25 1196.3,1005.47 1198.53,1004.69 1200.76,1003.91 1203,1003.13 1205.23,1002.36 1207.46,1001.58 1209.7,1000.8 1211.93,1000.02 1214.16,999.239 1216.4,998.46 1218.63,997.681 1220.86,996.902 1223.09,996.123 1225.33,995.344 1227.56,994.565 1229.79,993.786 1232.03,993.007 1234.26,992.228 1236.49,991.449 1238.73,990.669 1240.96,989.891 1243.19,988.719 1245.42,987.94 1247.66,987.161 1249.89,986.382 1252.12,985.603 1254.36,984.824 1256.59,984.044 1258.82,983.266 1261.06,982.486 1263.29,981.708 1265.52,980.928 1267.75,980.149 1269.99,979.37 1272.22,978.591 1274.45,977.812 1276.69,977.033 1278.92,976.254 1281.15,975.475 1283.38,974.696 1285.62,973.917 1287.85,973.138 1290.08,972.359 1292.32,971.58 1294.55,970.801 1296.78,970.021 1299.02,969.242 1301.25,968.463 1303.48,967.684 1305.71,966.905 1307.95,966.126 1310.18,965.347 1312.41,964.568 1314.65,963.789 1316.88,963.01 1319.11,962.231 1321.35,961.452 1323.58,960.673 1325.81,959.894 1328.04,959.115 1330.28,958.335 1332.51,957.557 1334.74,956.777 1336.98,955.999 1339.21,955.219 1341.44,954.44 1343.68,953.661 1345.91,952.882 1348.14,952.103 1350.37,951.324 1352.61,950.545 1354.84,949.766 1357.07,948.987 1359.31,948.208 1361.54,947.429 1363.77,946.65 1366,945.871 1368.24,945.092 1370.47,944.312 1372.7,943.534 1374.94,942.754 1377.17,941.976 1379.4,940.804 1381.64,940.025 1383.87,939.246 1386.1,938.467 1388.33,937.688 1390.57,936.909 1392.8,936.129 1395.03,935.351 1397.27,934.571 1399.5,933.792 1401.73,933.013 1403.97,932.234 1406.2,931.455 1408.43,930.676 1410.66,929.897 1412.9,929.118 1415.13,928.339 1417.36,927.56 1419.6,926.781 1421.83,926.002 1424.06,925.223 1426.3,924.444 1428.53,923.665 1430.76,922.886 1432.99,922.106 1435.23,921.328 1437.46,920.548 1439.69,919.77 1441.93,918.99 1444.16,918.211 1446.39,917.432 1448.62,916.653 1450.86,915.874 1453.09,915.095 1455.32,914.316 1457.56,913.537 1459.79,912.758 1462.02,911.979 1464.26,911.2 1466.49,910.42 1468.72,909.642 1470.96,908.862 1473.19,908.083 1475.42,907.304 1477.65,906.525 1479.89,905.746 1482.12,904.967 1484.35,904.188 1486.59,903.409 1488.82,902.63 1491.05,901.851 1493.28,901.072 1495.52,900.293 1497.75,899.514 1499.98,898.735 1502.22,897.956 1504.45,897.177 1506.68,896.397 1508.92,895.619 1511.15,894.839 1513.38,894.061 1515.61,892.889 1517.85,892.11 1520.08,891.331 1522.31,890.552 1524.55,889.772 1526.78,888.994 1529.01,888.214 1531.25,887.436 1533.48,886.656 1535.71,885.877 1537.94,885.098 1540.18,884.319 1542.41,883.54 1544.64,882.761 1546.88,881.982 1549.11,881.203 1551.34,880.424 1553.58,879.645 1555.81,878.866 1558.04,878.087 1560.27,877.308 1562.51,876.529 1564.74,875.75 1566.97,874.971 1569.21,874.191 1571.44,873.413 1573.67,872.633 1575.9,871.854 1578.14,871.075 1580.37,870.296 1582.6,869.517 1584.84,868.738 1587.07,867.959 1589.3,867.18 1591.54,866.401 1593.77,865.622 1596,864.843 1598.23,864.063 1600.47,863.285 1602.7,862.505 1604.93,861.727 1607.17,860.947 1609.4,860.168 1611.63,859.389 1613.87,858.61 1616.1,857.831 1618.33,857.052 1620.56,856.273 1622.8,855.494 1625.03,854.715 1627.26,853.936 1629.5,853.157 1631.73,852.378 1633.96,851.599 1636.2,850.82 1638.43,850.041 1640.66,849.262 1642.89,848.482 1645.13,847.704 1647.36,846.924 1649.59,846.146 1651.83,844.974 1654.06,844.195 1656.29,843.416 1658.52,842.637 1660.76,841.857 1662.99,841.079 1665.22,840.299 1667.46,839.521 1669.69,838.741 1671.92,837.962 1674.16,837.183 1676.39,836.404 1678.62,835.625 1680.85,834.846 1683.09,834.067 1685.32,833.288 1687.55,832.509 1689.79,831.73 1692.02,830.951 1694.25,830.172 1696.49,829.393 1698.72,828.614 1700.95,827.834 1703.18,827.056 1705.42,826.276 1707.65,825.498 1709.88,824.718 1712.12,823.939 1714.35,823.16 1716.58,822.381 1718.82,821.602 1721.05,820.823 1723.28,820.044 1725.51,819.265 1727.75,818.486 1729.98,817.707 1732.21,816.928 1734.45,816.148 1736.68,815.37 1738.91,814.59 1741.15,813.812 1743.38,813.032 1745.61,812.253 1747.84,811.474 1750.08,810.695 1752.31,809.916 1754.54,809.137 1756.78,808.358 1759.01,807.579 1761.24,806.8 1763.48,806.021 1765.71,805.242 1767.94,804.463 1770.17,803.684 1772.41,802.905 1774.64,802.125 1776.87,801.347 1779.11,800.567 1781.34,799.789 1783.57,799.009 1785.8,798.23 1788.04,797.059 1790.27,796.28 1792.5,795.5 1794.74,794.722 1796.97,793.942 1799.2,793.164 1801.44,792.384 1803.67,791.605 1805.9,790.826 1808.13,790.047 1810.37,789.268 1812.6,788.489 1814.83,787.71 1817.07,786.931 1819.3,786.152 1821.53,785.373 1823.77,784.594 1826,783.815 1828.23,783.036 1830.46,782.257 1832.7,781.478 1834.93,780.699 1837.16,779.919 1839.4,779.141 1841.63,778.361 1843.86,777.583 1846.1,776.803 1848.33,776.024 1850.56,775.245 1852.79,774.466 1855.03,773.687 1857.26,772.908 1859.49,772.129 1861.73,771.35 1863.96,770.571 1866.19,769.792 1868.42,769.013 1870.66,768.234 1872.89,767.455 1875.12,766.676 1877.36,765.896 1879.59,765.117 1881.82,764.338 1884.06,763.559 1886.29,762.78 1888.52,762.001 1890.75,761.222 1892.99,760.443 1895.22,759.664 1897.45,758.885 1899.69,758.106 1901.92,757.327 1904.15,756.548 1906.39,755.769 1908.62,754.99 1910.85,754.21 1913.08,753.432 1915.32,752.652 1917.55,751.874 1919.78,751.094 1922.02,750.315 1924.25,749.144 1926.48,748.365 1928.72,747.585 1930.95,746.807 1933.18,746.027 1935.41,745.249 1937.65,744.469 1939.88,743.69 1942.11,742.911 1944.35,742.132 1946.58,741.353 1948.81,740.574 1951.04,739.795 1953.28,739.016 1955.51,738.237 1957.74,737.458 1959.98,736.679 1962.21,735.9 1964.44,735.121 1966.68,734.342 1968.91,733.562 1971.14,732.784 1973.37,732.004 1975.61,731.226 1977.84,730.446 1980.07,729.667 1982.31,728.888 1984.54,728.109 1986.77,727.33 1989.01,726.551 1991.24,725.772 1993.47,724.993 1995.7,724.214 1997.94,723.435 2000.17,722.656 2002.4,721.877 2004.64,721.098 2006.87,720.319 2009.1,719.54 2011.33,718.761 2013.57,717.981 2015.8,717.203 2018.03,716.423 2020.27,715.645 2022.5,714.865 2024.73,714.086 2026.97,713.307 2029.2,712.528 2031.43,711.749 2033.67,710.97 2035.9,710.191 2038.13,709.412 2040.36,708.633 2042.6,707.854 2044.83,707.075 2047.06,706.295 2049.3,705.517 2051.53,704.737 2053.76,703.958 2056,703.179 2058.23,702.4 2060.46,701.229 2062.69,700.45 2064.93,699.67 2067.16,698.892 2069.39,698.112 2071.63,697.333 2073.86,696.554 2076.09,695.775 2078.32,694.996 2080.56,694.217 2082.79,693.438 2085.02,692.659 2087.26,691.88 2089.49,691.101 2091.72,690.322 2093.96,689.543 2096.19,688.764 2098.42,687.985 2100.65,687.206 2102.89,686.427 2105.12,685.647 2107.35,684.869 2109.59,684.089 2111.82,683.311 2114.05,682.531 2116.29,681.752 2118.52,680.973 2120.75,680.194 2122.98,679.415 2125.22,678.636 2127.45,677.857 2129.68,677.078 2131.92,676.299 2134.15,675.52 2136.38,674.741 2138.62,673.962 2140.85,673.183 2143.08,672.404 2145.31,671.625 2147.55,670.846 2149.78,670.066 2152.01,669.288 2154.25,668.508 2156.48,667.729 2158.71,666.95 2160.94,666.171 2163.18,665.392 2165.41,664.613 2167.64,663.834 2169.88,663.055 2172.11,662.276 2174.34,661.497 2176.58,660.718 2178.81,659.938 2181.04,659.16 2183.27,658.38 2185.51,657.602 2187.74,656.822 2189.97,656.043 2192.21,655.264 2194.44,654.485 2196.67,653.314 2198.91,652.535 2201.14,651.756 2203.37,650.977 2205.6,650.197 2207.84,649.418 2210.07,648.639 2212.3,647.86 2214.54,647.081 2216.77,646.302 2219,645.523 2221.24,644.744 2223.47,643.965 2225.7,643.186 2227.93,642.407 2230.17,641.628 2232.4,640.849 2234.63,640.07 2236.87,639.291 2239.1,638.512 2241.33,637.732 2243.56,636.954 2245.8,636.174 2248.03,635.396 2250.26,634.616 2252.5,633.837 2254.73,633.058 2256.96,632.279 2259.2,631.5 2261.43,630.721 2263.66,629.942 2265.89,629.163 2268.13,628.384 2270.36,627.605 2272.59,626.826 2274.83,626.047 2277.06,625.268 2279.29,624.489 2281.53,623.709 2283.76,622.931 2285.99,622.151 2288.22,621.373 2290.46,620.593 2292.69,619.814 2294.92,619.035 2297.16,618.256 2299.39,617.477 2301.62,616.698 2303.86,615.919 2306.09,615.14 2308.32,614.361 2310.55,613.582 2312.79,612.803 2315.02,612.023 2317.25,611.245 2319.49,610.465 2321.72,609.687 2323.95,608.907 2326.18,608.128 2328.42,607.349 2330.65,606.57 2332.88,605.398 2335.12,604.62 2337.35,603.84 2339.58,603.062 2341.82,602.283 2344.05,601.503 2346.28,600.725 2348.51,599.945 2350.75,599.166 2352.98,598.387 2355.21,597.608 2357.45,596.829 2359.68,596.05 2361.91,595.271 2364.15,594.492 2366.38,593.713 2368.61,592.934 2370.84,592.155 2373.08,591.375 2375.31,590.597 2377.54,589.817 2379.78,589.039 2382.01,588.259 2384.24,587.48 2386.48,586.701 2388.71,585.922 2390.94,585.143 2393.17,584.364 2395.41,583.585 2397.64,582.806 2399.87,582.027 2402.11,581.248 2404.34,580.469 2406.57,579.69 2408.8,578.911 2411.04,578.132 2413.27,577.353 2415.5,576.574 2417.74,575.794 2419.97,575.016 2422.2,574.236 2424.44,573.458 2426.67,572.678 2428.9,571.899 2431.13,571.12 2433.37,570.341 2435.6,569.562 2437.83,568.783 2440.07,568.004 2442.3,567.225 2444.53,566.446 2446.77,565.667 2449,564.888 2451.23,564.108 2453.46,563.33 2455.7,562.55 2457.93,561.771 2460.16,560.992 2462.4,560.213 2464.63,559.434 2466.86,558.655 2469.1,557.484 2471.33,556.705 2473.56,555.926 2475.79,555.146 2478.03,554.368 2480.26,553.588 2482.49,552.81 2484.73,552.03 2486.96,551.251 2489.19,550.472 2491.42,549.693 2493.66,548.914 2495.89,548.135 2498.12,547.356 2500.36,546.577 2502.59,545.798 2504.82,545.019 2507.06,544.24 2509.29,543.46 2511.52,542.682 2513.75,541.902 2515.99,541.124 2518.22,540.344 2520.45,539.565 2522.69,538.786 2524.92,538.007 2527.15,537.228 2529.39,536.449 2531.62,535.67 2533.85,534.891 2536.08,534.112 2538.32,533.333 2540.55,532.554 2542.78,531.775 2545.02,530.996 2547.25,530.217 2549.48,529.438 2551.72,528.659 2553.95,527.879 2556.18,527.101 2558.41,526.321 2560.65,525.542 2562.88,524.763 2565.11,523.984 2567.35,523.205 2569.58,522.426 2571.81,521.647 2574.04,520.868 2576.28,520.089 2578.51,519.31 2580.74,518.531 2582.98,517.752 2585.21,516.973 2587.44,516.193 2589.68,515.415 2591.91,514.635 2594.14,513.856 2596.38,513.077 2598.61,512.298 2600.84,511.519 2603.07,510.74 2605.31,509.569 2607.54,508.79" stroke-width="0.5" stroke-linecap="butt" stroke-linejoin="round" fill="none" stroke="#d85218"/>
   <polyline points="376.797,1295.98 379.03,1295.6 381.263,1295.21 383.496,1294.82 385.729,1294.44 387.962,1294.05 390.194,1293.66 392.428,1293.28 394.661,1292.89 396.894,1292.5 399.126,1292.12 401.359,1291.73 403.593,1291.34 405.825,1290.96 408.059,1290.57 410.292,1290.18 412.524,1289.8 414.757,1289.41 416.99,1289.02 419.223,1288.64 421.457,1288.25 423.689,1287.87 425.922,1287.48 428.155,1287.09 430.388,1286.71 432.621,1286.32 434.854,1285.93 437.087,1283.05 439.32,1282.67 441.553,1282.28 443.786,1281.89 446.019,1281.51 448.252,1281.12 450.485,1280.73 452.718,1280.35 454.951,1279.96 457.184,1279.58 459.417,1279.19 461.65,1278.8 463.883,1278.42 466.116,1278.03 468.349,1277.64 470.582,1277.26 472.815,1276.87 475.048,1276.48 477.281,1276.1 479.514,1275.71 481.747,1275.32 483.979,1274.94 486.212,1274.55 488.445,1274.16 490.679,1273.78 492.912,1273.39 495.145,1273 497.377,1272.62 499.61,1272.23 501.843,1271.84 504.077,1271.46 506.31,1271.07 508.542,1270.68 510.775,1270.3 513.008,1269.91 515.241,1269.52 517.474,1269.14 519.707,1268.75 521.94,1268.36 524.173,1267.98 526.406,1267.59 528.639,1267.21 530.872,1266.82 533.105,1266.43 535.338,1266.05 537.571,1265.66 539.804,1265.27 542.037,1264.89 544.27,1264.5 546.503,1264.11 548.736,1263.73 550.969,1263.34 553.202,1262.95 555.435,1262.57 557.668,1262.18 559.901,1261.79 562.134,1261.41 564.367,1261.02 566.6,1260.63 568.833,1260.25 571.065,1259.47 573.299,1259.08 575.532,1258.7 577.765,1258.31 579.998,1257.92 582.23,1257.54 584.463,1257.15 586.697,1256.76 588.93,1256.38 591.163,1255.99 593.396,1255.6 595.628,1255.22 597.861,1254.83 600.094,1254.44 602.327,1254.06 604.561,1253.67 606.793,1253.28 609.026,1252.9 611.259,1252.51 613.492,1252.12 615.725,1251.74 617.958,1251.35 620.191,1250.96 622.424,1250.58 624.657,1250.19 626.89,1249.8 629.123,1249.42 631.356,1249.03 633.589,1248.64 635.822,1248.26 638.055,1247.87 640.288,1247.48 642.521,1247.1 644.754,1246.71 646.987,1246.33 649.22,1245.94 651.453,1245.55 653.686,1245.17 655.919,1244.78 658.152,1244.39 660.385,1244.01 662.618,1243.62 664.851,1243.23 667.083,1242.85 669.316,1242.46 671.55,1242.07 673.783,1241.69 676.016,1241.3 678.249,1240.91 680.481,1240.53 682.714,1240.14 684.947,1239.75 687.181,1239.37 689.414,1238.98 691.646,1238.59 693.879,1238.21 696.112,1237.82 698.345,1237.43 700.578,1237.05 702.812,1236.66 705.044,1236.27 707.277,1235.5 709.51,1235.11 711.743,1234.72 713.976,1234.34 716.209,1233.95 718.442,1233.56 720.675,1233.18 722.908,1232.79 725.141,1232.4 727.374,1232.02 729.607,1231.63 731.84,1231.24 734.073,1230.86 736.306,1230.47 738.539,1230.08 740.772,1229.7 743.005,1229.31 745.238,1228.92 747.471,1228.54 749.704,1228.15 751.937,1227.76 754.17,1227.38 756.403,1226.99 758.636,1226.6 760.869,1226.22 763.102,1225.83 765.334,1225.45 767.567,1225.06 769.801,1224.67 772.034,1224.29 774.267,1223.9 776.5,1223.51 778.732,1223.13 780.965,1222.74 783.198,1222.35 785.432,1221.97 787.665,1221.58 789.897,1221.19 792.13,1220.81 794.363,1220.42 796.596,1220.03 798.829,1219.65 801.062,1219.26 803.295,1218.87 805.528,1218.49 807.761,1218.1 809.994,1217.71 812.227,1217.33 814.46,1216.94 816.693,1216.55 818.926,1216.17 821.159,1215.78 823.392,1215.4 825.625,1215.01 827.858,1214.62 830.091,1214.24 832.324,1213.85 834.557,1213.46 836.79,1213.08 839.023,1212.69 841.256,1212.3 843.489,1211.52 845.722,1211.14 847.955,1210.75 850.188,1210.36 852.421,1209.98 854.654,1209.59 856.887,1209.2 859.12,1208.82 861.353,1208.43 863.585,1208.04 865.818,1207.66 868.052,1207.27 870.285,1206.88 872.518,1206.5 874.75,1206.11 876.983,1205.73 879.216,1205.34 881.449,1204.95 883.683,1204.57 885.916,1204.18 888.148,1203.79 890.381,1203.41 892.614,1203.02 894.847,1202.63 897.08,1202.25 899.313,1201.86 901.546,1201.47 903.779,1201.09 906.012,1200.7 908.245,1200.31 910.478,1199.93 912.711,1199.54 914.944,1199.15 917.177,1198.77 919.41,1198.38 921.643,1197.99 923.876,1197.61 926.109,1197.22 928.342,1196.83 930.575,1196.45 932.808,1196.06 935.041,1195.67 937.274,1195.29 939.507,1194.9 941.74,1194.52 943.973,1194.13 946.206,1193.74 948.438,1193.36 950.671,1192.97 952.905,1192.58 955.138,1192.2 957.371,1191.81 959.604,1191.42 961.836,1191.04 964.069,1190.65 966.302,1190.26 968.536,1189.88 970.769,1189.49 973.001,1189.1 975.234,1188.72 977.467,1187.94 979.7,1187.55 981.933,1187.16 984.166,1186.78 986.399,1186.39 988.632,1186 990.865,1185.62 993.098,1185.23 995.331,1184.85 997.564,1184.46 999.797,1184.07 1002.03,1183.69 1004.26,1183.3 1006.5,1182.91 1008.73,1182.53 1010.96,1182.14 1013.19,1181.75 1015.43,1181.37 1017.66,1180.98 1019.89,1180.59 1022.13,1180.21 1024.36,1179.82 1026.59,1179.43 1028.83,1179.05 1031.06,1178.66 1033.29,1178.27 1035.52,1177.89 1037.76,1177.5 1039.99,1177.11 1042.22,1176.73 1044.46,1176.34 1046.69,1175.95 1048.92,1175.57 1051.16,1175.18 1053.39,1174.79 1055.62,1174.41 1057.85,1174.02 1060.09,1173.64 1062.32,1173.25 1064.55,1172.86 1066.79,1172.48 1069.02,1172.09 1071.25,1171.7 1073.49,1171.32 1075.72,1170.93 1077.95,1170.54 1080.18,1170.16 1082.42,1169.77 1084.65,1169.38 1086.88,1169 1089.12,1168.61 1091.35,1168.22 1093.58,1167.84 1095.81,1167.45 1098.05,1167.06 1100.28,1166.68 1102.51,1166.29 1104.75,1165.9 1106.98,1165.52 1109.21,1165.13 1111.45,1164.74 1113.68,1163.97 1115.91,1163.58 1118.14,1163.19 1120.38,1162.81 1122.61,1162.42 1124.84,1162.03 1127.08,1161.65 1129.31,1161.26 1131.54,1160.87 1133.78,1160.49 1136.01,1160.1 1138.24,1159.71 1140.47,1159.33 1142.71,1158.94 1144.94,1158.55 1147.17,1158.17 1149.41,1157.78 1151.64,1157.39 1153.87,1157.01 1156.11,1156.62 1158.34,1156.23 1160.57,1155.85 1162.8,1155.46 1165.04,1155.07 1167.27,1154.69 1169.5,1154.3 1171.74,1153.92 1173.97,1153.53 1176.2,1153.14 1178.44,1152.75 1180.67,1152.37 1182.9,1151.98 1185.13,1151.6 1187.37,1151.21 1189.6,1150.82 1191.83,1150.44 1194.07,1150.05 1196.3,1149.66 1198.53,1149.28 1200.76,1148.89 1203,1148.5 1205.23,1148.12 1207.46,1147.73 1209.7,1147.34 1211.93,1146.96 1214.16,1146.57 1216.4,1146.18 1218.63,1145.8 1220.86,1145.41 1223.09,1145.02 1225.33,1144.64 1227.56,1144.25 1229.79,1143.86 1232.03,1143.48 1234.26,1143.09 1236.49,1142.7 1238.73,1142.32 1240.96,1141.93 1243.19,1141.54 1245.42,1141.16 1247.66,1140.77 1249.89,1139.99 1252.12,1139.61 1254.36,1139.22 1256.59,1138.83 1258.82,1138.45 1261.06,1138.06 1263.29,1137.67 1265.52,1137.29 1267.75,1136.9 1269.99,1136.51 1272.22,1136.13 1274.45,1135.74 1276.69,1135.35 1278.92,1134.97 1281.15,1134.58 1283.38,1134.19 1285.62,1133.81 1287.85,1133.42 1290.08,1133.03 1292.32,1132.65 1294.55,1132.26 1296.78,1131.88 1299.02,1131.49 1301.25,1131.1 1303.48,1130.72 1305.71,1130.33 1307.95,1129.94 1310.18,1129.56 1312.41,1129.17 1314.65,1128.78 1316.88,1128.4 1319.11,1128.01 1321.35,1127.62 1323.58,1127.24 1325.81,1126.85 1328.04,1126.46 1330.28,1126.08 1332.51,1125.69 1334.74,1125.3 1336.98,1124.92 1339.21,1124.53 1341.44,1124.14 1343.68,1123.76 1345.91,1123.37 1348.14,1122.98 1350.37,1122.6 1352.61,1122.21 1354.84,1121.82 1357.07,1121.44 1359.31,1121.05 1361.54,1120.67 1363.77,1120.28 1366,1119.89 1368.24,1119.51 1370.47,1119.12 1372.7,1118.73 1374.94,1118.35 1377.17,1117.96 1379.4,1117.57 1381.64,1117.19 1383.87,1116.8 1386.1,1116.02 1388.33,1115.63 1390.57,1115.25 1392.8,1114.86 1395.03,1114.47 1397.27,1114.09 1399.5,1113.7 1401.73,1113.31 1403.97,1112.93 1406.2,1112.54 1408.43,1112.15 1410.66,1111.77 1412.9,1111.38 1415.13,1111 1417.36,1110.61 1419.6,1110.22 1421.83,1109.84 1424.06,1109.45 1426.3,1109.06 1428.53,1108.68 1430.76,1108.29 1432.99,1107.9 1435.23,1107.52 1437.46,1107.13 1439.69,1106.74 1441.93,1106.36 1444.16,1105.97 1446.39,1105.58 1448.62,1105.2 1450.86,1104.81 1453.09,1104.42 1455.32,1104.04 1457.56,1103.65 1459.79,1103.26 1462.02,1102.88 1464.26,1102.49 1466.49,1102.1 1468.72,1101.72 1470.96,1101.33 1473.19,1100.94 1475.42,1100.56 1477.65,1100.17 1479.89,1099.79 1482.12,1099.4 1484.35,1099.01 1486.59,1098.63 1488.82,1098.24 1491.05,1097.85 1493.28,1097.47 1495.52,1097.08 1497.75,1096.69 1499.98,1096.31 1502.22,1095.92 1504.45,1095.53 1506.68,1095.15 1508.92,1094.76 1511.15,1094.37 1513.38,1093.99 1515.61,1093.6 1517.85,1093.21 1520.08,1092.83 1522.31,1092.05 1524.55,1091.66 1526.78,1091.27 1529.01,1090.89 1531.25,1090.5 1533.48,1090.12 1535.71,1089.73 1537.94,1089.34 1540.18,1088.96 1542.41,1088.57 1544.64,1088.18 1546.88,1087.8 1549.11,1087.41 1551.34,1087.02 1553.58,1086.64 1555.81,1086.25 1558.04,1085.86 1560.27,1085.48 1562.51,1085.09 1564.74,1084.7 1566.97,1084.32 1569.21,1083.93 1571.44,1083.54 1573.67,1083.16 1575.9,1082.77 1578.14,1082.38 1580.37,1082 1582.6,1081.61 1584.84,1081.22 1587.07,1080.84 1589.3,1080.45 1591.54,1080.06 1593.77,1079.68 1596,1079.29 1598.23,1078.91 1600.47,1078.52 1602.7,1078.13 1604.93,1077.75 1607.17,1077.36 1609.4,1076.97 1611.63,1076.59 1613.87,1076.2 1616.1,1075.81 1618.33,1075.43 1620.56,1075.04 1622.8,1074.65 1625.03,1074.27 1627.26,1073.88 1629.5,1073.49 1631.73,1073.11 1633.96,1072.72 1636.2,1072.33 1638.43,1071.95 1640.66,1071.56 1642.89,1071.17 1645.13,1070.79 1647.36,1070.4 1649.59,1070.01 1651.83,1069.63 1654.06,1069.24 1656.29,1068.46 1658.52,1068.08 1660.76,1067.69 1662.99,1067.3 1665.22,1066.92 1667.46,1066.53 1669.69,1066.14 1671.92,1065.76 1674.16,1065.37 1676.39,1064.98 1678.62,1064.6 1680.85,1064.21 1683.09,1063.82 1685.32,1063.44 1687.55,1063.05 1689.79,1062.66 1692.02,1062.28 1694.25,1061.89 1696.49,1061.5 1698.72,1061.12 1700.95,1060.73 1703.18,1060.34 1705.42,1059.96 1707.65,1059.57 1709.88,1059.19 1712.12,1058.8 1714.35,1058.41 1716.58,1058.03 1718.82,1057.64 1721.05,1057.25 1723.28,1056.87 1725.51,1056.48 1727.75,1056.09 1729.98,1055.71 1732.21,1055.32 1734.45,1054.93 1736.68,1054.55 1738.91,1054.16 1741.15,1053.77 1743.38,1053.39 1745.61,1053 1747.84,1052.61 1750.08,1052.23 1752.31,1051.84 1754.54,1051.45 1756.78,1051.07 1759.01,1050.68 1761.24,1050.29 1763.48,1049.91 1765.71,1049.52 1767.94,1049.13 1770.17,1048.75 1772.41,1048.36 1774.64,1047.97 1776.87,1047.59 1779.11,1047.2 1781.34,1046.82 1783.57,1046.43 1785.8,1046.04 1788.04,1045.66 1790.27,1045.27 1792.5,1044.49 1794.74,1044.1 1796.97,1043.72 1799.2,1043.33 1801.44,1042.94 1803.67,1042.56 1805.9,1042.17 1808.13,1041.78 1810.37,1041.4 1812.6,1041.01 1814.83,1040.62 1817.07,1040.24 1819.3,1039.85 1821.53,1039.46 1823.77,1039.08 1826,1038.69 1828.23,1038.31 1830.46,1037.92 1832.7,1037.53 1834.93,1037.15 1837.16,1036.76 1839.4,1036.37 1841.63,1035.99 1843.86,1035.6 1846.1,1035.21 1848.33,1034.83 1850.56,1034.44 1852.79,1034.05 1855.03,1033.67 1857.26,1033.28 1859.49,1032.89 1861.73,1032.51 1863.96,1032.12 1866.19,1031.73 1868.42,1031.35 1870.66,1030.96 1872.89,1030.57 1875.12,1030.19 1877.36,1029.8 1879.59,1029.41 1881.82,1029.03 1884.06,1028.64 1886.29,1028.25 1888.52,1027.87 1890.75,1027.48 1892.99,1027.09 1895.22,1026.71 1897.45,1026.32 1899.69,1025.94 1901.92,1025.55 1904.15,1025.16 1906.39,1024.78 1908.62,1024.39 1910.85,1024 1913.08,1023.62 1915.32,1023.23 1917.55,1022.84 1919.78,1022.46 1922.02,1022.07 1924.25,1021.68 1926.48,1021.3 1928.72,1020.52 1930.95,1020.13 1933.18,1019.74 1935.41,1019.36 1937.65,1018.97 1939.88,1018.58 1942.11,1018.2 1944.35,1017.81 1946.58,1017.43 1948.81,1017.04 1951.04,1016.65 1953.28,1016.27 1955.51,1015.88 1957.74,1015.49 1959.98,1015.11 1962.21,1014.72 1964.44,1014.33 1966.68,1013.95 1968.91,1013.56 1971.14,1013.17 1973.37,1012.79 1975.61,1012.4 1977.84,1012.01 1980.07,1011.63 1982.31,1011.24 1984.54,1010.85 1986.77,1010.47 1989.01,1010.08 1991.24,1009.69 1993.47,1009.31 1995.7,1008.92 1997.94,1008.53 2000.17,1008.15 2002.4,1007.76 2004.64,1007.37 2006.87,1006.99 2009.1,1006.6 2011.33,1006.21 2013.57,1005.83 2015.8,1005.44 2018.03,1005.06 2020.27,1004.67 2022.5,1004.28 2024.73,1003.9 2026.97,1003.51 2029.2,1003.12 2031.43,1002.74 2033.67,1002.35 2035.9,1001.96 2038.13,1001.58 2040.36,1001.19 2042.6,1000.8 2044.83,1000.42 2047.06,1000.03 2049.3,999.644 2051.53,999.257 2053.76,998.871 2056,998.484 2058.23,998.097 2060.46,997.711 2062.69,997.324 2064.93,996.545 2067.16,996.159 2069.39,995.772 2071.63,995.385 2073.86,994.999 2076.09,994.612 2078.32,994.226 2080.56,993.839 2082.79,993.453 2085.02,993.066 2087.26,992.68 2089.49,992.293 2091.72,991.906 2093.96,991.52 2096.19,991.133 2098.42,990.747 2100.65,990.36 2102.89,989.974 2105.12,989.587 2107.35,989.201 2109.59,988.814 2111.82,988.428 2114.05,988.041 2116.29,987.654 2118.52,987.268 2120.75,986.881 2122.98,986.495 2125.22,986.108 2127.45,985.722 2129.68,985.335 2131.92,984.948 2134.15,984.562 2136.38,984.175 2138.62,983.789 2140.85,983.402 2143.08,983.016 2145.31,982.629 2147.55,982.243 2149.78,981.856 2152.01,981.47 2154.25,981.083 2156.48,980.696 2158.71,980.31 2160.94,979.923 2163.18,979.537 2165.41,979.15 2167.64,978.764 2169.88,978.377 2172.11,977.991 2174.34,977.604 2176.58,977.217 2178.81,976.831 2181.04,976.444 2183.27,976.058 2185.51,975.671 2187.74,975.285 2189.97,974.898 2192.21,974.512 2194.44,974.125 2196.67,973.738 2198.91,973.352 2201.14,972.573 2203.37,972.186 2205.6,971.8 2207.84,971.413 2210.07,971.026 2212.3,970.64 2214.54,970.253 2216.77,969.867 2219,969.48 2221.24,969.094 2223.47,968.707 2225.7,968.321 2227.93,967.934 2230.17,967.547 2232.4,967.161 2234.63,966.774 2236.87,966.388 2239.1,966.001 2241.33,965.615 2243.56,965.228 2245.8,964.842 2248.03,964.455 2250.26,964.068 2252.5,963.682 2254.73,963.295 2256.96,962.909 2259.2,962.522 2261.43,962.136 2263.66,961.749 2265.89,961.363 2268.13,960.976 2270.36,960.589 2272.59,960.203 2274.83,959.816 2277.06,959.43 2279.29,959.043 2281.53,958.657 2283.76,958.27 2285.99,957.884 2288.22,957.497 2290.46,957.11 2292.69,956.724 2294.92,956.337 2297.16,955.951 2299.39,955.564 2301.62,955.178 2303.86,954.791 2306.09,954.405 2308.32,954.018 2310.55,953.631 2312.79,953.245 2315.02,952.858 2317.25,952.472 2319.49,952.085 2321.72,951.699 2323.95,951.312 2326.18,950.926 2328.42,950.539 2330.65,950.152 2332.88,949.766 2335.12,949.379 2337.35,948.601 2339.58,948.214 2341.82,947.827 2344.05,947.441 2346.28,947.054 2348.51,946.667 2350.75,946.281 2352.98,945.895 2355.21,945.508 2357.45,945.122 2359.68,944.735 2361.91,944.348 2364.15,943.962 2366.38,943.575 2368.61,943.188 2370.84,942.802 2373.08,942.416 2375.31,942.029 2377.54,941.643 2379.78,941.256 2382.01,940.869 2384.24,940.483 2386.48,940.096 2388.71,939.709 2390.94,939.323 2393.17,938.937 2395.41,938.55 2397.64,938.164 2399.87,937.777 2402.11,937.39 2404.34,937.004 2406.57,936.617 2408.8,936.23 2411.04,935.844 2413.27,935.458 2415.5,935.071 2417.74,934.685 2419.97,934.298 2422.2,933.911 2424.44,933.525 2426.67,933.138 2428.9,932.751 2431.13,932.365 2433.37,931.979 2435.6,931.592 2437.83,931.206 2440.07,930.819 2442.3,930.432 2444.53,930.046 2446.77,929.659 2449,929.272 2451.23,928.886 2453.46,928.5 2455.7,928.113 2457.93,927.727 2460.16,927.34 2462.4,926.953 2464.63,926.567 2466.86,926.18 2469.1,925.793 2471.33,925.407 2473.56,924.628 2475.79,924.242 2478.03,923.855 2480.26,923.468 2482.49,923.082 2484.73,922.695 2486.96,922.309 2489.19,921.922 2491.42,921.536 2493.66,921.149 2495.89,920.763 2498.12,920.376 2500.36,919.989 2502.59,919.603 2504.82,919.216 2507.06,918.83 2509.29,918.443 2511.52,918.057 2513.75,917.67 2515.99,917.284 2518.22,916.897 2520.45,916.51 2522.69,916.124 2524.92,915.737 2527.15,915.351 2529.39,914.964 2531.62,914.578 2533.85,914.191 2536.08,913.805 2538.32,913.418 2540.55,913.031 2542.78,912.645 2545.02,912.258 2547.25,911.872 2549.48,911.485 2551.72,911.099 2553.95,910.712 2556.18,910.325 2558.41,909.939 2560.65,909.552 2562.88,909.166 2565.11,908.779 2567.35,908.393 2569.58,908.006 2571.81,907.62 2574.04,907.233 2576.28,906.847 2578.51,906.46 2580.74,906.073 2582.98,905.687 2585.21,905.3 2587.44,904.914 2589.68,904.527 2591.91,904.141 2594.14,903.754 2596.38,903.368 2598.61,902.981 2600.84,902.594 2603.07,902.208 2605.31,901.821 2607.54,901.435" stroke-width="0.5" stroke-linecap="butt" stroke-linejoin="round" fill="none" stroke="#ecb01f"/>
   <polyline points="376.797,1295.98 379.03,1295.98 381.263,1295.98 383.496,1295.98 385.729,1295.98 387.962,1295.98 390.194,1295.98 392.428,1295.98 394.661,1295.98 396.894,1295.98 399.126,1295.98 401.359,1295.98 403.593,1295.98 405.825,1295.98 408.059,1295.98 410.292,1295.98 412.524,1295.98 414.757,1295.98 416.99,1295.98 419.223,1295.98 421.457,1295.98 423.689,1295.98 425.922,1295.98 428.155,1295.98 430.388,1295.98 432.621,1295.98 434.854,1295.98 437.087,1293.54 439.32,1293.54 441.553,1293.54 443.786,1293.54 446.019,1293.54 448.252,1293.54 450.485,1293.54 452.718,1293.54 454.951,1293.54 457.184,1293.54 459.417,1293.54 461.65,1293.54 463.883,1293.54 466.116,1293.54 468.349,1293.54 470.582,1293.54 472.815,1293.54 475.048,1293.54 477.281,1293.54 479.514,1293.54 481.747,1293.54 483.979,1293.54 486.212,1293.54 488.445,1293.54 490.679,1293.54 492.912,1293.54 495.145,1293.54 497.377,1293.54 499.61,1293.54 501.843,1293.54 504.077,1293.54 506.31,1293.54 508.542,1293.54 510.775,1293.54 513.008,1293.54 515.241,1293.54 517.474,1293.54 519.707,1293.54 521.94,1293.54 524.173,1293.54 526.406,1293.54 528.639,1293.54 530.872,1293.54 533.105,1293.54 535.338,1293.54 537.571,1293.54 539.804,1293.54 542.037,1293.54 544.27,1293.54 546.503,1293.54 548.736,1293.54 550.969,1293.54 553.202,1293.54 555.435,1293.54 557.668,1293.54 559.901,1293.54 562.134,1293.54 564.367,1293.54 566.6,1293.54 568.833,1293.54 571.065,1293.15 573.299,1293.15 575.532,1293.15 577.765,1293.15 579.998,1293.15 582.23,1293.15 584.463,1293.15 586.697,1293.15 588.93,1293.15 591.163,1293.15 593.396,1293.15 595.628,1293.15 597.861,1293.15 600.094,1293.15 602.327,1293.15 604.561,1293.15 606.793,1293.15 609.026,1293.15 611.259,1293.15 613.492,1293.15 615.725,1293.15 617.958,1293.15 620.191,1293.15 622.424,1293.15 624.657,1293.15 626.89,1293.15 629.123,1293.15 631.356,1293.15 633.589,1293.15 635.822,1293.15 638.055,1293.15 640.288,1293.15 642.521,1293.15 644.754,1293.15 646.987,1293.15 649.22,1293.15 651.453,1293.15 653.686,1293.15 655.919,1293.15 658.152,1293.15 660.385,1293.15 662.618,1293.15 664.851,1293.15 667.083,1293.15 669.316,1293.15 671.55,1293.15 673.783,1293.15 676.016,1293.15 678.249,1293.15 680.481,1293.15 682.714,1293.15 684.947,1293.15 687.181,1293.15 689.414,1293.15 691.646,1293.15 693.879,1293.15 696.112,1293.15 698.345,1293.15 700.578,1293.15 702.812,1293.15 705.044,1293.15 707.277,1292.76 709.51,1292.76 711.743,1292.76 713.976,1292.76 716.209,1292.76 718.442,1292.76 720.675,1292.76 722.908,1292.76 725.141,1292.76 727.374,1292.76 729.607,1292.76 731.84,1292.76 734.073,1292.76 736.306,1292.76 738.539,1292.76 740.772,1292.76 743.005,1292.76 745.238,1292.76 747.471,1292.76 749.704,1292.76 751.937,1292.76 754.17,1292.76 756.403,1292.76 758.636,1292.76 760.869,1292.76 763.102,1292.76 765.334,1292.76 767.567,1292.76 769.801,1292.76 772.034,1292.76 774.267,1292.76 776.5,1292.76 778.732,1292.76 780.965,1292.76 783.198,1292.76 785.432,1292.76 787.665,1292.76 789.897,1292.76 792.13,1292.76 794.363,1292.76 796.596,1292.76 798.829,1292.76 801.062,1292.76 803.295,1292.76 805.528,1292.76 807.761,1292.76 809.994,1292.76 812.227,1292.76 814.46,1292.76 816.693,1292.76 818.926,1292.76 821.159,1292.76 823.392,1292.76 825.625,1292.76 827.858,1292.76 830.091,1292.76 832.324,1292.76 834.557,1292.76 836.79,1292.76 839.023,1292.76 841.256,1292.76 843.489,1292.37 845.722,1292.37 847.955,1292.37 850.188,1292.37 852.421,1292.37 854.654,1292.37 856.887,1292.37 859.12,1292.37 861.353,1292.37 863.585,1292.37 865.818,1292.37 868.052,1292.37 870.285,1292.37 872.518,1292.37 874.75,1292.37 876.983,1292.37 879.216,1292.37 881.449,1292.37 883.683,1292.37 885.916,1292.37 888.148,1292.37 890.381,1292.37 892.614,1292.37 894.847,1292.37 897.08,1292.37 899.313,1292.37 901.546,1292.37 903.779,1292.37 906.012,1292.37 908.245,1292.37 910.478,1292.37 912.711,1292.37 914.944,1292.37 917.177,1292.37 919.41,1292.37 921.643,1292.37 923.876,1292.37 926.109,1292.37 928.342,1292.37 930.575,1292.37 932.808,1292.37 935.041,1292.37 937.274,1292.37 939.507,1292.37 941.74,1292.37 943.973,1292.37 946.206,1292.37 948.438,1292.37 950.671,1292.37 952.905,1292.37 955.138,1292.37 957.371,1292.37 959.604,1292.37 961.836,1292.37 964.069,1292.37 966.302,1292.37 968.536,1292.37 970.769,1292.37 973.001,1292.37 975.234,1292.37 977.467,1291.97 979.7,1291.97 981.933,1291.97 984.166,1291.97 986.399,1291.97 988.632,1291.97 990.865,1291.97 993.098,1291.97 995.331,1291.97 997.564,1291.97 999.797,1291.97 1002.03,1291.97 1004.26,1291.97 1006.5,1291.97 1008.73,1291.97 1010.96,1291.97 1013.19,1291.97 1015.43,1291.97 1017.66,1291.97 1019.89,1291.97 1022.13,1291.97 1024.36,1291.97 1026.59,1291.97 1028.83,1291.97 1031.06,1291.97 1033.29,1291.97 1035.52,1291.97 1037.76,1291.97 1039.99,1291.97 1042.22,1291.97 1044.46,1291.97 1046.69,1291.97 1048.92,1291.97 1051.16,1291.97 1053.39,1291.97 1055.62,1291.97 1057.85,1291.97 1060.09,1291.97 1062.32,1291.97 1064.55,1291.97 1066.79,1291.97 1069.02,1291.97 1071.25,1291.97 1073.49,1291.97 1075.72,1291.97 1077.95,1291.97 1080.18,1291.97 1082.42,1291.97 1084.65,1291.97 1086.88,1291.97 1089.12,1291.97 1091.35,1291.97 1093.58,1291.97 1095.81,1291.97 1098.05,1291.97 1100.28,1291.97 1102.51,1291.97 1104.75,1291.97 1106.98,1291.97 1109.21,1291.97 1111.45,1291.97 1113.68,1291.58 1115.91,1291.58 1118.14,1291.58 1120.38,1291.58 1122.61,1291.58 1124.84,1291.58 1127.08,1291.58 1129.31,1291.58 1131.54,1291.58 1133.78,1291.58 1136.01,1291.58 1138.24,1291.58 1140.47,1291.58 1142.71,1291.58 1144.94,1291.58 1147.17,1291.58 1149.41,1291.58 1151.64,1291.58 1153.87,1291.58 1156.11,1291.58 1158.34,1291.58 1160.57,1291.58 1162.8,1291.58 1165.04,1291.58 1167.27,1291.58 1169.5,1291.58 1171.74,1291.58 1173.97,1291.58 1176.2,1291.58 1178.44,1291.58 1180.67,1291.58 1182.9,1291.58 1185.13,1291.58 1187.37,1291.58 1189.6,1291.58 1191.83,1291.58 1194.07,1291.58 1196.3,1291.58 1198.53,1291.58 1200.76,1291.58 1203,1291.58 1205.23,1291.58 1207.46,1291.58 1209.7,1291.58 1211.93,1291.58 1214.16,1291.58 1216.4,1291.58 1218.63,1291.58 1220.86,1291.58 1223.09,1291.58 1225.33,1291.58 1227.56,1291.58 1229.79,1291.58 1232.03,1291.58 1234.26,1291.58 1236.49,1291.58 1238.73,1291.58 1240.96,1291.58 1243.19,1291.58 1245.42,1291.58 1247.66,1291.58 1249.89,1291.19 1252.12,1291.19 1254.36,1291.19 1256.59,1291.19 1258.82,1291.19 1261.06,1291.19 1263.29,1291.19 1265.52,1291.19 1267.75,1291.19 1269.99,1291.19 1272.22,1291.19 1274.45,1291.19 1276.69,1291.19 1278.92,1291.19 1281.15,1291.19 1283.38,1291.19 1285.62,1291.19 1287.85,1291.19 1290.08,1291.19 1292.32,1291.19 1294.55,1291.19 1296.78,1291.19 1299.02,1291.19 1301.25,1291.19 1303.48,1291.19 1305.71,1291.19 1307.95,1291.19 1310.18,1291.19 1312.41,1291.19 1314.65,1291.19 1316.88,1291.19 1319.11,1291.19 1321.35,1291.19 1323.58,1291.19 1325.81,1291.19 1328.04,1291.19 1330.28,1291.19 1332.51,1291.19 1334.74,1291.19 1336.98,1291.19 1339.21,1291.19 1341.44,1291.19 1343.68,1291.19 1345.91,1291.19 1348.14,1291.19 1350.37,1291.19 1352.61,1291.19 1354.84,1291.19 1357.07,1291.19 1359.31,1291.19 1361.54,1291.19 1363.77,1291.19 1366,1291.19 1368.24,1291.19 1370.47,1291.19 1372.7,1291.19 1374.94,1291.19 1377.17,1291.19 1379.4,1291.19 1381.64,1291.19 1383.87,1291.19 1386.1,1290.8 1388.33,1290.8 1390.57,1290.8 1392.8,1290.8 1395.03,1290.8 1397.27,1290.8 1399.5,1290.8 1401.73,1290.8 1403.97,1290.8 1406.2,1290.8 1408.43,1290.8 1410.66,1290.8 1412.9,1290.8 1415.13,1290.8 1417.36,1290.8 1419.6,1290.8 1421.83,1290.8 1424.06,1290.8 1426.3,1290.8 1428.53,1290.8 1430.76,1290.8 1432.99,1290.8 1435.23,1290.8 1437.46,1290.8 1439.69,1290.8 1441.93,1290.8 1444.16,1290.8 1446.39,1290.8 1448.62,1290.8 1450.86,1290.8 1453.09,1290.8 1455.32,1290.8 1457.56,1290.8 1459.79,1290.8 1462.02,1290.8 1464.26,1290.8 1466.49,1290.8 1468.72,1290.8 1470.96,1290.8 1473.19,1290.8 1475.42,1290.8 1477.65,1290.8 1479.89,1290.8 1482.12,1290.8 1484.35,1290.8 1486.59,1290.8 1488.82,1290.8 1491.05,1290.8 1493.28,1290.8 1495.52,1290.8 1497.75,1290.8 1499.98,1290.8 1502.22,1290.8 1504.45,1290.8 1506.68,1290.8 1508.92,1290.8 1511.15,1290.8 1513.38,1290.8 1515.61,1290.8 1517.85,1290.8 1520.08,1290.8 1522.31,1290.4 1524.55,1290.4 1526.78,1290.4 1529.01,1290.4 1531.25,1290.4 1533.48,1290.4 1535.71,1290.4 1537.94,1290.4 1540.18,1290.4 1542.41,1290.4 1544.64,1290.4 1546.88,1290.4 1549.11,1290.4 1551.34,1290.4 1553.58,1290.4 1555.81,1290.4 1558.04,1290.4 1560.27,1290.4 1562.51,1290.4 1564.74,1290.4 1566.97,1290.4 1569.21,1290.4 1571.44,1290.4 1573.67,1290.4 1575.9,1290.4 1578.14,1290.4 1580.37,1290.4 1582.6,1290.4 1584.84,1290.4 1587.07,1290.4 1589.3,1290.4 1591.54,1290.4 1593.77,1290.4 1596,1290.4 1598.23,1290.4 1600.47,1290.4 1602.7,1290.4 1604.93,1290.4 1607.17,1290.4 1609.4,1290.4 1611.63,1290.4 1613.87,1290.4 1616.1,1290.4 1618.33,1290.4 1620.56,1290.4 1622.8,1290.4 1625.03,1290.4 1627.26,1290.4 1629.5,1290.4 1631.73,1290.4 1633.96,1290.4 1636.2,1290.4 1638.43,1290.4 1640.66,1290.4 1642.89,1290.4 1645.13,1290.4 1647.36,1290.4 1649.59,1290.4 1651.83,1290.4 1654.06,1290.4 1656.29,1290.01 1658.52,1290.01 1660.76,1290.01 1662.99,1290.01 1665.22,1290.01 1667.46,1290.01 1669.69,1290.01 1671.92,1290.01 1674.16,1290.01 1676.39,1290.01 1678.62,1290.01 1680.85,1290.01 1683.09,1290.01 1685.32,1290.01 1687.55,1290.01 1689.79,1290.01 1692.02,1290.01 1694.25,1290.01 1696.49,1290.01 1698.72,1290.01 1700.95,1290.01 1703.18,1290.01 1705.42,1290.01 1707.65,1290.01 1709.88,1290.01 1712.12,1290.01 1714.35,1290.01 1716.58,1290.01 1718.82,1290.01 1721.05,1290.01 1723.28,1290.01 1725.51,1290.01 1727.75,1290.01 1729.98,1290.01 1732.21,1290.01 1734.45,1290.01 1736.68,1290.01 1738.91,1290.01 1741.15,1290.01 1743.38,1290.01 1745.61,1290.01 1747.84,1290.01 1750.08,1290.01 1752.31,1290.01 1754.54,1290.01 1756.78,1290.01 1759.01,1290.01 1761.24,1290.01 1763.48,1290.01 1765.71,1290.01 1767.94,1290.01 1770.17,1290.01 1772.41,1290.01 1774.64,1290.01 1776.87,1290.01 1779.11,1290.01 1781.34,1290.01 1783.57,1290.01 1785.8,1290.01 1788.04,1290.01 1790.27,1290.01 1792.5,1289.62 1794.74,1289.62 1796.97,1289.62 1799.2,1289.62 1801.44,1289.62 1803.67,1289.62 1805.9,1289.62 1808.13,1289.62 1810.37,1289.62 1812.6,1289.62 1814.83,1289.62 1817.07,1289.62 1819.3,1289.62 1821.53,1289.62 1823.77,1289.62 1826,1289.62 1828.23,1289.62 1830.46,1289.62 1832.7,1289.62 1834.93,1289.62 1837.16,1289.62 1839.4,1289.62 1841.63,1289.62 1843.86,1289.62 1846.1,1289.62 1848.33,1289.62 1850.56,1289.62 1852.79,1289.62 1855.03,1289.62 1857.26,1289.62 1859.49,1289.62 1861.73,1289.62 1863.96,1289.62 1866.19,1289.62 1868.42,1289.62 1870.66,1289.62 1872.89,1289.62 1875.12,1289.62 1877.36,1289.62 1879.59,1289.62 1881.82,1289.62 1884.06,1289.62 1886.29,1289.62 1888.52,1289.62 1890.75,1289.62 1892.99,1289.62 1895.22,1289.62 1897.45,1289.62 1899.69,1289.62 1901.92,1289.62 1904.15,1289.62 1906.39,1289.62 1908.62,1289.62 1910.85,1289.62 1913.08,1289.62 1915.32,1289.62 1917.55,1289.62 1919.78,1289.62 1922.02,1289.62 1924.25,1289.62 1926.48,1289.62 1928.72,1289.23 1930.95,1289.23 1933.18,1289.23 1935.41,1289.23 1937.65,1289.23 1939.88,1289.23 1942.11,1289.23 1944.35,1289.23 1946.58,1289.23 1948.81,1289.23 1951.04,1289.23 1953.28,1289.23 1955.51,1289.23 1957.74,1289.23 1959.98,1289.23 1962.21,1289.23 1964.44,1289.23 1966.68,1289.23 1968.91,1289.23 1971.14,1289.23 1973.37,1289.23 1975.61,1289.23 1977.84,1289.23 1980.07,1289.23 1982.31,1289.23 1984.54,1289.23 1986.77,1289.23 1989.01,1289.23 1991.24,1289.23 1993.47,1289.23 1995.7,1289.23 1997.94,1289.23 2000.17,1289.23 2002.4,1289.23 2004.64,1289.23 2006.87,1289.23 2009.1,1289.23 2011.33,1289.23 2013.57,1289.23 2015.8,1289.23 2018.03,1289.23 2020.27,1289.23 2022.5,1289.23 2024.73,1289.23 2026.97,1289.23 2029.2,1289.23 2031.43,1289.23 2033.67,1289.23 2035.9,1289.23 2038.13,1289.23 2040.36,1289.23 2042.6,1289.23 2044.83,1289.23 2047.06,1289.23 2049.3,1289.23 2051.53,1289.23 2053.76,1289.23 2056,1289.23 2058.23,1289.23 2060.46,1289.23 2062.69,1289.23 2064.93,1288.83 2067.16,1288.83 2069.39,1288.83 2071.63,1288.83 2073.86,1288.83 2076.09,1288.83 2078.32,1288.83 2080.56,1288.83 2082.79,1288.83 2085.02,1288.83 2087.26,1288.83 2089.49,1288.83 2091.72,1288.83 2093.96,1288.83 2096.19,1288.83 2098.42,1288.83 2100.65,1288.83 2102.89,1288.83 2105.12,1288.83 2107.35,1288.83 2109.59,1288.83 2111.82,1288.83 2114.05,1288.83 2116.29,1288.83 2118.52,1288.83 2120.75,1288.83 2122.98,1288.83 2125.22,1288.83 2127.45,1288.83 2129.68,1288.83 2131.92,1288.83 2134.15,1288.83 2136.38,1288.83 2138.62,1288.83 2140.85,1288.83 2143.08,1288.83 2145.31,1288.83 2147.55,1288.83 2149.78,1288.83 2152.01,1288.83 2154.25,1288.83 2156.48,1288.83 2158.71,1288.83 2160.94,1288.83 2163.18,1288.83 2165.41,1288.83 2167.64,1288.83 2169.88,1288.83 2172.11,1288.83 2174.34,1288.83 2176.58,1288.83 2178.81,1288.83 2181.04,1288.83 2183.27,1288.83 2185.51,1288.83 2187.74,1288.83 2189.97,1288.83 2192.21,1288.83 2194.44,1288.83 2196.67,1288.83 2198.91,1288.83 2201.14,1288.44 2203.37,1288.44 2205.6,1288.44 2207.84,1288.44 2210.07,1288.44 2212.3,1288.44 2214.54,1288.44 2216.77,1288.44 2219,1288.44 2221.24,1288.44 2223.47,1288.44 2225.7,1288.44 2227.93,1288.44 2230.17,1288.44 2232.4,1288.44 2234.63,1288.44 2236.87,1288.44 2239.1,1288.44 2241.33,1288.44 2243.56,1288.44 2245.8,1288.44 2248.03,1288.44 2250.26,1288.44 2252.5,1288.44 2254.73,1288.44 2256.96,1288.44 2259.2,1288.44 2261.43,1288.44 2263.66,1288.44 2265.89,1288.44 2268.13,1288.44 2270.36,1288.44 2272.59,1288.44 2274.83,1288.44 2277.06,1288.44 2279.29,1288.44 2281.53,1288.44 2283.76,1288.44 2285.99,1288.44 2288.22,1288.44 2290.46,1288.44 2292.69,1288.44 2294.92,1288.44 2297.16,1288.44 2299.39,1288.44 2301.62,1288.44 2303.86,1288.44 2306.09,1288.44 2308.32,1288.44 2310.55,1288.44 2312.79,1288.44 2315.02,1288.44 2317.25,1288.44 2319.49,1288.44 2321.72,1288.44 2323.95,1288.44 2326.18,1288.44 2328.42,1288.44 2330.65,1288.44 2332.88,1288.44 2335.12,1288.44 2337.35,1288.05 2339.58,1288.05 2341.82,1288.05 2344.05,1288.05 2346.28,1288.05 2348.51,1288.05 2350.75,1288.05 2352.98,1288.05 2355.21,1288.05 2357.45,1288.05 2359.68,1288.05 2361.91,1288.05 2364.15,1288.05 2366.38,1288.05 2368.61,1288.05 2370.84,1288.05 2373.08,1288.05 2375.31,1288.05 2377.54,1288.05 2379.78,1288.05 2382.01,1288.05 2384.24,1288.05 2386.48,1288.05 2388.71,1288.05 2390.94,1288.05 2393.17,1288.05 2395.41,1288.05 2397.64,1288.05 2399.87,1288.05 2402.11,1288.05 2404.34,1288.05 2406.57,1288.05 2408.8,1288.05 2411.04,1288.05 2413.27,1288.05 2415.5,1288.05 2417.74,1288.05 2419.97,1288.05 2422.2,1288.05 2424.44,1288.05 2426.67,1288.05 2428.9,1288.05 2431.13,1288.05 2433.37,1288.05 2435.6,1288.05 2437.83,1288.05 2440.07,1288.05 2442.3,1288.05 2444.53,1288.05 2446.77,1288.05 2449,1288.05 2451.23,1288.05 2453.46,1288.05 2455.7,1288.05 2457.93,1288.05 2460.16,1288.05 2462.4,1288.05 2464.63,1288.05 2466.86,1288.05 2469.1,1288.05 2471.33,1288.05 2473.56,1287.66 2475.79,1287.66 2478.03,1287.66 2480.26,1287.66 2482.49,1287.66 2484.73,1287.66 2486.96,1287.66 2489.19,1287.66 2491.42,1287.66 2493.66,1287.66 2495.89,1287.66 2498.12,1287.66 2500.36,1287.66 2502.59,1287.66 2504.82,1287.66 2507.06,1287.66 2509.29,1287.66 2511.52,1287.66 2513.75,1287.66 2515.99,1287.66 2518.22,1287.66 2520.45,1287.66 2522.69,1287.66 2524.92,1287.66 2527.15,1287.66 2529.39,1287.66 2531.62,1287.66 2533.85,1287.66 2536.08,1287.66 2538.32,1287.66 2540.55,1287.66 2542.78,1287.66 2545.02,1287.66 2547.25,1287.66 2549.48,1287.66 2551.72,1287.66 2553.95,1287.66 2556.18,1287.66 2558.41,1287.66 2560.65,1287.66 2562.88,1287.66 2565.11,1287.66 2567.35,1287.66 2569.58,1287.66 2571.81,1287.66 2574.04,1287.66 2576.28,1287.66 2578.51,1287.66 2580.74,1287.66 2582.98,1287.66 2585.21,1287.66 2587.44,1287.66 2589.68,1287.66 2591.91,1287.66 2594.14,1287.66 2596.38,1287.66 2598.61,1287.66 2600.84,1287.66 2603.07,1287.66 2605.31,1287.66 2607.54,1287.66" stroke-width="0.5" stroke-linecap="butt" stroke-linejoin="round" fill="none" stroke="#7d2e8d"/>
  </g>
  <clipPath id="cp0028811459">
   <polygon points="0,1459 2881,1459 2881,0 0,0"/>
  </clipPath>
  <g clip-path="url(#cp0028811459)">
   <polygon points="2505.56,177.442 2599.54,177.442 2599.54,117.451 2505.56,117.451" fill="#ffffff" shape-rendering="crispEdges"/>
   <polyline points="2505.56,177.442 2599.54,177.442" stroke-width="0.5" stroke-linecap="square" stroke-linejoin="miter" fill="none" stroke-dasharray="16,0" stroke="#262626"/>
   <polyline points="2505.56,117.451 2599.54,117.451" stroke-width="0.5" stroke-linecap="square" stroke-linejoin="miter" fill="none" stroke-dasharray="16,0" stroke="#262626"/>
   <polyline points="2505.56,177.442 2505.56,117.451" stroke-width="0.5" stroke-linecap="square" stroke-linejoin="miter" fill="none" stroke-dasharray="16,0" stroke="#262626"/>
   <polyline points="2599.54,177.442 2599.54,117.451" stroke-width="0.5" stroke-linecap="square" stroke-linejoin="miter" fill="none" stroke-dasharray="16,0" stroke="#262626"/>
   <polyline points="2509.56,126.449 2529.55,126.449" stroke-width="0.5" stroke-linecap="butt" stroke-linejoin="round" fill="none" stroke="#0071bc"/>
   <text font-family="FreeSans" xml:space="preserve" font-size="9" transform="translate(2533.54,131.449) rotate(-0,-0,-5)" font-style="normal" font-weight="normal">
    <tspan y="-2" fill="rgb(0,0,0)" x="0 5 7 12 17 22 24 29 34 39 41 46 50 53 58 ">1 000 000 bytes</tspan>
   </text>
   <polyline points="2509.56,140.447 2529.55,140.447" stroke-width="0.5" stroke-linecap="butt" stroke-linejoin="round" fill="none" stroke="#d85218"/>
   <text font-family="FreeSans" xml:space="preserve" font-size="9" transform="translate(2533.54,145.447) rotate(-0,-0,-5)" font-style="normal" font-weight="normal">
    <tspan y="-2" fill="rgb(0,0,0)" x="0 5 10 15 17 22 27 32 34 39 43 46 51 ">600 000 bytes</tspan>
   </text>
   <polyline points="2509.56,154.445 2529.55,154.445" stroke-width="0.5" stroke-linecap="butt" stroke-linejoin="round" fill="none" stroke="#ecb01f"/>
   <text font-family="FreeSans" xml:space="preserve" font-size="9" transform="translate(2533.54,159.445) rotate(-0,-0,-5)" font-style="normal" font-weight="normal">
    <tspan y="-2" fill="rgb(0,0,0)" x="0 5 10 15 17 22 27 32 34 39 43 46 51 ">300 000 bytes</tspan>
   </text>
   <polyline points="2509.56,168.443 2529.55,168.443" stroke-width="0.5" stroke-linecap="butt" stroke-linejoin="round" fill="none" stroke="#7d2e8d"/>
   <text font-family="FreeSans" xml:space="preserve" font-size="9" transform="translate(2533.54,173.444) rotate(-0,-0,-5)" font-style="normal" font-weight="normal">
    <tspan y="-2" fill="rgb(0,0,0)" x="0 5 10 15 17 22 27 32 34 39 43 46 51 ">200 000 bytes</tspan>
   </text>
  </g>
 </g>
</svg>
