<?xml version='1.0' encoding='UTF-8' standalone='no'?>
<svg width="2881pt" height="1459pt" viewBox="0 0 2881 1459" xmlns="http://www.w3.org/2000/svg" xmlns:xlink="http://www.w3.org/1999/xlink">
 <title>gl2ps_renderer figure</title>
 <desc>
Creator: GL2PS 1.4.2, (C) 1999-2020 C. Geuzaine
For: Octave
CreationDate: Sun Sep 29 22:34:03 2024
</desc>
 <defs/>
 <polygon fill="#ffffff" points="0,0 2881,0 2881,1459 0,1459"/>
 <g>
  <polygon fill="#ffffff" shape-rendering="crispEdges" points="0,1459 2881,1459 2881,0 0,0"/>
  <clipPath id="cp0028811459">
   <polygon points="0,1459 2881,1459 2881,0 0,0"/>
  </clipPath>
  <g clip-path="url(#cp0028811459)">
   <polygon fill="#ffffff" shape-rendering="crispEdges" points="374.564,1298.86 2607.54,1298.86 2607.54,109.454 374.564,109.454"/>
   <polyline fill="none" stroke-linecap="butt" stroke-width="0.5" stroke-linejoin="miter" stroke-opacity="0.15" stroke-dasharray="16,0" points="374.564,1298.86 374.564,109.454" stroke="#262626"/>
   <polyline fill="none" stroke-linecap="butt" stroke-width="0.5" stroke-linejoin="miter" stroke-opacity="0.15" stroke-dasharray="16,0" points="821.159,1298.86 821.159,109.454" stroke="#262626"/>
   <polyline fill="none" stroke-linecap="butt" stroke-width="0.5" stroke-linejoin="miter" stroke-opacity="0.15" stroke-dasharray="16,0" points="1267.75,1298.86 1267.75,109.454" stroke="#262626"/>
   <polyline fill="none" stroke-linecap="butt" stroke-width="0.5" stroke-linejoin="miter" stroke-opacity="0.15" stroke-dasharray="16,0" points="1714.35,1298.86 1714.35,109.454" stroke="#262626"/>
   <polyline fill="none" stroke-linecap="butt" stroke-width="0.5" stroke-linejoin="miter" stroke-opacity="0.15" stroke-dasharray="16,0" points="2160.94,1298.86 2160.94,109.454" stroke="#262626"/>
   <polyline fill="none" stroke-linecap="butt" stroke-width="0.5" stroke-linejoin="miter" stroke-opacity="0.15" stroke-dasharray="16,0" points="2607.54,1298.86 2607.54,109.454" stroke="#262626"/>
   <polyline fill="none" stroke-linecap="butt" stroke-width="0.5" stroke-linejoin="miter" points="374.564,1298.86 374.564,1276.52" stroke="#262626"/>
   <polyline fill="none" stroke-linecap="butt" stroke-width="0.5" stroke-linejoin="miter" points="374.564,109.454 374.564,131.792" stroke="#262626"/>
   <polyline fill="none" stroke-linecap="butt" stroke-width="0.5" stroke-linejoin="miter" points="821.159,1298.86 821.159,1276.52" stroke="#262626"/>
   <polyline fill="none" stroke-linecap="butt" stroke-width="0.5" stroke-linejoin="miter" points="821.159,109.454 821.159,131.792" stroke="#262626"/>
   <polyline fill="none" stroke-linecap="butt" stroke-width="0.5" stroke-linejoin="miter" points="1267.75,1298.86 1267.75,1276.52" stroke="#262626"/>
   <polyline fill="none" stroke-linecap="butt" stroke-width="0.5" stroke-linejoin="miter" points="1267.75,109.454 1267.75,131.792" stroke="#262626"/>
   <polyline fill="none" stroke-linecap="butt" stroke-width="0.5" stroke-linejoin="miter" points="1714.35,1298.86 1714.35,1276.52" stroke="#262626"/>
   <polyline fill="none" stroke-linecap="butt" stroke-width="0.5" stroke-linejoin="miter" points="1714.35,109.454 1714.35,131.792" stroke="#262626"/>
   <polyline fill="none" stroke-linecap="butt" stroke-width="0.5" stroke-linejoin="miter" points="2160.94,1298.86 2160.94,1276.52" stroke="#262626"/>
   <polyline fill="none" stroke-linecap="butt" stroke-width="0.5" stroke-linejoin="miter" points="2160.94,109.454 2160.94,131.792" stroke="#262626"/>
   <polyline fill="none" stroke-linecap="butt" stroke-width="0.5" stroke-linejoin="miter" points="2607.54,1298.86 2607.54,1276.52" stroke="#262626"/>
   <polyline fill="none" stroke-linecap="butt" stroke-width="0.5" stroke-linejoin="miter" points="2607.54,109.454 2607.54,131.792" stroke="#262626"/>
   <text font-size="10" xml:space="preserve" transform="translate(371.564,1314.36) rotate(-0,3,-8)" font-family="FreeSans" font-weight="normal" font-style="normal">
    <tspan fill="rgb(38,38,38)" x="0 " y="-0">0</tspan>
   </text>
   <text font-size="10" xml:space="preserve" transform="translate(812.159,1314.36) rotate(-0,9,-8)" font-family="FreeSans" font-weight="normal" font-style="normal">
    <tspan fill="rgb(38,38,38)" x="0 6 12 " y="-0">200</tspan>
   </text>
   <text font-size="10" xml:space="preserve" transform="translate(1258.75,1314.36) rotate(-0,9,-8)" font-family="FreeSans" font-weight="normal" font-style="normal">
    <tspan fill="rgb(38,38,38)" x="0 6 12 " y="-0">400</tspan>
   </text>
   <text font-size="10" xml:space="preserve" transform="translate(1705.35,1314.36) rotate(-0,9,-8)" font-family="FreeSans" font-weight="normal" font-style="normal">
    <tspan fill="rgb(38,38,38)" x="0 6 12 " y="-0">600</tspan>
   </text>
   <text font-size="10" xml:space="preserve" transform="translate(2151.94,1314.36) rotate(-0,9,-8)" font-family="FreeSans" font-weight="normal" font-style="normal">
    <tspan fill="rgb(38,38,38)" x="0 6 12 " y="-0">800</tspan>
   </text>
   <text font-size="10" xml:space="preserve" transform="translate(2595.54,1314.36) rotate(-0,12,-8)" font-family="FreeSans" font-weight="normal" font-style="normal">
    <tspan fill="rgb(38,38,38)" x="0 6 12 18 " y="-0">1000</tspan>
   </text>
   <polyline fill="none" stroke-linecap="butt" stroke-width="0.5" stroke-linejoin="miter" stroke-opacity="0.15" stroke-dasharray="16,0" points="374.564,1298.86 2607.54,1298.86" stroke="#262626"/>
   <polyline fill="none" stroke-linecap="butt" stroke-width="0.5" stroke-linejoin="miter" stroke-opacity="0.15" stroke-dasharray="16,0" points="374.564,1001.5 2607.54,1001.5" stroke="#262626"/>
   <polyline fill="none" stroke-linecap="butt" stroke-width="0.5" stroke-linejoin="miter" stroke-opacity="0.15" stroke-dasharray="16,0" points="374.564,704.155 2607.54,704.155" stroke="#262626"/>
   <polyline fill="none" stroke-linecap="butt" stroke-width="0.5" stroke-linejoin="miter" stroke-opacity="0.15" stroke-dasharray="16,0" points="374.564,406.804 2607.54,406.804" stroke="#262626"/>
   <polyline fill="none" stroke-linecap="butt" stroke-width="0.5" stroke-linejoin="miter" stroke-opacity="0.15" stroke-dasharray="16,0" points="374.564,109.454 2607.54,109.454" stroke="#262626"/>
   <polyline fill="none" stroke-linecap="butt" stroke-width="0.5" stroke-linejoin="miter" points="374.564,1298.86 396.894,1298.86" stroke="#262626"/>
   <polyline fill="none" stroke-linecap="butt" stroke-width="0.5" stroke-linejoin="miter" points="2607.54,1298.86 2585.21,1298.86" stroke="#262626"/>
   <polyline fill="none" stroke-linecap="butt" stroke-width="0.5" stroke-linejoin="miter" points="374.564,1001.5 396.894,1001.5" stroke="#262626"/>
   <polyline fill="none" stroke-linecap="butt" stroke-width="0.5" stroke-linejoin="miter" points="2607.54,1001.5 2585.21,1001.5" stroke="#262626"/>
   <polyline fill="none" stroke-linecap="butt" stroke-width="0.5" stroke-linejoin="miter" points="374.564,704.155 396.894,704.155" stroke="#262626"/>
   <polyline fill="none" stroke-linecap="butt" stroke-width="0.5" stroke-linejoin="miter" points="2607.54,704.155 2585.21,704.155" stroke="#262626"/>
   <polyline fill="none" stroke-linecap="butt" stroke-width="0.5" stroke-linejoin="miter" points="374.564,406.804 396.894,406.804" stroke="#262626"/>
   <polyline fill="none" stroke-linecap="butt" stroke-width="0.5" stroke-linejoin="miter" points="2607.54,406.804 2585.21,406.804" stroke="#262626"/>
   <polyline fill="none" stroke-linecap="butt" stroke-width="0.5" stroke-linejoin="miter" points="374.564,109.454 396.894,109.454" stroke="#262626"/>
   <polyline fill="none" stroke-linecap="butt" stroke-width="0.5" stroke-linejoin="miter" points="2607.54,109.454 2585.21,109.454" stroke="#262626"/>
   <text font-size="10" xml:space="preserve" transform="translate(363.564,1302.86) rotate(-0,6,-4)" font-family="FreeSans" font-weight="normal" font-style="normal">
    <tspan fill="rgb(38,38,38)" x="0 " y="-0">0</tspan>
   </text>
   <text font-size="10" xml:space="preserve" transform="translate(333.564,1005.5) rotate(-0,36,-4)" font-family="FreeSans" font-weight="normal" font-style="normal">
    <tspan fill="rgb(38,38,38)" x="0 6 12 18 24 30 " y="-0">200000</tspan>
   </text>
   <text font-size="10" xml:space="preserve" transform="translate(333.564,708.155) rotate(-0,36,-4)" font-family="FreeSans" font-weight="normal" font-style="normal">
    <tspan fill="rgb(38,38,38)" x="0 6 12 18 24 30 " y="-0">400000</tspan>
   </text>
   <text font-size="10" xml:space="preserve" transform="translate(333.564,410.804) rotate(-0,36,-4)" font-family="FreeSans" font-weight="normal" font-style="normal">
    <tspan fill="rgb(38,38,38)" x="0 6 12 18 24 30 " y="-0">600000</tspan>
   </text>
   <text font-size="10" xml:space="preserve" transform="translate(333.564,113.454) rotate(-0,36,-4)" font-family="FreeSans" font-weight="normal" font-style="normal">
    <tspan fill="rgb(38,38,38)" x="0 6 12 18 24 30 " y="-0">800000</tspan>
   </text>
   <polyline fill="none" stroke-linecap="square" stroke-width="0.5" stroke-linejoin="miter" stroke-dasharray="16,0" points="374.564,1298.86 2607.54,1298.86" stroke="#262626"/>
   <polyline fill="none" stroke-linecap="square" stroke-width="0.5" stroke-linejoin="miter" stroke-dasharray="16,0" points="374.564,109.454 2607.54,109.454" stroke="#262626"/>
   <polyline fill="none" stroke-linecap="square" stroke-width="0.5" stroke-linejoin="miter" stroke-dasharray="16,0" points="374.564,1298.86 374.564,109.454" stroke="#262626"/>
   <polyline fill="none" stroke-linecap="square" stroke-width="0.5" stroke-linejoin="miter" stroke-dasharray="16,0" points="2607.54,1298.86 2607.54,109.454" stroke="#262626"/>
   <text font-size="11" xml:space="preserve" transform="translate(1426.05,1329.36) rotate(-0,65,-10)" font-family="FreeSans" font-weight="normal" font-style="normal">
    <tspan fill="rgb(38,38,38)" x="0 8 14 23 29 35 39 42 48 51 54 57 63 67 73 79 85 90 93 99 103 109 115 118 124 " y="-1">Number of threads created</tspan>
   </text>
   <text font-size="11" xml:space="preserve" transform="translate(276.064,704.155) rotate(-90,52.5,0)" font-family="FreeSans" font-weight="normal" font-style="normal">
    <tspan fill="rgb(38,38,38)" x="0 8 14 19 25 34 40 46 49 57 64 73 76 81 87 93 99 " y="-3">Cosumed RAM space</tspan>
   </text>
   <polyline fill="none" stroke-linecap="butt" stroke-width="0.5" stroke-linejoin="round" points="376.797,1295.97 379.03,1294.8 381.263,1293.63 383.496,1292.46 385.729,1291.28 387.962,1290.11 390.194,1288.94 392.428,1287.77 394.661,1286.6 396.894,1285.43 399.126,1284.26 401.359,1283.08 403.593,1281.91 405.825,1280.74 408.059,1279.57 410.292,1278.4 412.524,1277.23 414.757,1276.05 416.99,1274.88 419.223,1273.71 421.457,1272.54 423.689,1271.37 425.922,1270.2 428.155,1269.02 430.388,1265.2 432.621,1264.03 434.854,1262.86 437.087,1261.69 439.32,1260.51 441.553,1259.34 443.786,1258.17 446.019,1257 448.252,1255.83 450.485,1254.66 452.718,1253.49 454.951,1252.31 457.184,1251.14 459.417,1249.97 461.65,1248.8 463.883,1247.63 466.116,1246.46 468.349,1245.28 470.582,1244.11 472.815,1242.94 475.048,1241.77 477.281,1240.6 479.514,1239.43 481.747,1238.26 483.979,1237.08 486.212,1235.91 488.445,1234.74 490.679,1233.57 492.912,1232.4 495.145,1231.23 497.377,1230.05 499.61,1228.88 501.843,1227.71 504.077,1226.54 506.31,1225.37 508.542,1224.2 510.775,1223.02 513.008,1221.85 515.241,1220.68 517.474,1219.51 519.707,1218.34 521.94,1217.17 524.173,1216 526.406,1214.82 528.639,1213.65 530.872,1212.48 533.105,1211.31 535.338,1210.14 537.571,1208.97 539.804,1207.79 542.037,1206.62 544.27,1205.45 546.503,1204.28 548.736,1203.11 550.969,1201.94 553.202,1200.77 555.435,1199.59 557.668,1198.42 559.901,1197.25 562.134,1196.08 564.367,1194.91 566.6,1193.34 568.833,1192.17 571.065,1191 573.299,1189.83 575.532,1188.66 577.765,1187.49 579.998,1186.31 582.23,1185.14 584.463,1183.97 586.697,1182.8 588.93,1181.63 591.163,1180.46 593.396,1179.28 595.628,1178.11 597.861,1176.94 600.094,1175.77 602.327,1174.6 604.561,1173.43 606.793,1172.26 609.026,1171.08 611.259,1169.91 613.492,1168.74 615.725,1167.57 617.958,1166.4 620.191,1165.23 622.424,1164.05 624.657,1162.88 626.89,1161.71 629.123,1160.54 631.356,1159.37 633.589,1158.2 635.822,1157.02 638.055,1155.85 640.288,1154.68 642.521,1153.51 644.754,1152.34 646.987,1151.17 649.22,1150 651.453,1148.82 653.686,1147.65 655.919,1146.48 658.152,1145.31 660.385,1144.14 662.618,1142.97 664.851,1141.79 667.083,1140.62 669.316,1139.45 671.55,1138.28 673.783,1137.11 676.016,1135.94 678.249,1134.77 680.481,1133.59 682.714,1132.42 684.947,1131.25 687.181,1130.08 689.414,1128.91 691.646,1127.74 693.879,1126.56 696.112,1125.39 698.345,1124.22 700.578,1123.05 702.812,1121.49 705.044,1120.31 707.277,1119.14 709.51,1117.97 711.743,1116.8 713.976,1115.63 716.209,1114.46 718.442,1113.28 720.675,1112.11 722.908,1110.94 725.141,1109.77 727.374,1108.6 729.607,1107.43 731.84,1106.26 734.073,1105.08 736.306,1103.91 738.539,1102.74 740.772,1101.57 743.005,1100.4 745.238,1099.23 747.471,1098.05 749.704,1096.88 751.937,1095.71 754.17,1094.54 756.403,1093.37 758.636,1092.2 760.869,1091.03 763.102,1089.85 765.334,1088.68 767.567,1087.51 769.801,1086.34 772.034,1085.17 774.267,1084 776.5,1082.82 778.732,1081.65 780.965,1080.48 783.198,1079.31 785.432,1078.14 787.665,1076.97 789.897,1075.79 792.13,1074.62 794.363,1073.45 796.596,1072.28 798.829,1071.11 801.062,1069.94 803.295,1068.77 805.528,1067.59 807.761,1066.42 809.994,1065.25 812.227,1064.08 814.46,1062.91 816.693,1061.74 818.926,1060.56 821.159,1059.39 823.392,1058.22 825.625,1057.05 827.858,1055.88 830.091,1054.71 832.324,1053.54 834.557,1052.36 836.79,1051.19 839.023,1049.63 841.256,1048.46 843.489,1047.29 845.722,1046.11 847.955,1044.94 850.188,1043.77 852.421,1042.6 854.654,1041.43 856.887,1040.26 859.12,1039.08 861.353,1037.91 863.585,1036.74 865.818,1035.57 868.052,1034.4 870.285,1033.23 872.518,1032.05 874.75,1030.88 876.983,1029.71 879.216,1028.54 881.449,1027.37 883.683,1026.2 885.916,1025.03 888.148,1023.85 890.381,1022.68 892.614,1021.51 894.847,1020.34 897.08,1019.17 899.313,1018 901.546,1016.82 903.779,1015.65 906.012,1014.48 908.245,1013.31 910.478,1012.14 912.711,1010.97 914.944,1009.79 917.177,1008.62 919.41,1007.45 921.643,1006.28 923.876,1005.11 926.109,1003.94 928.342,1002.77 930.575,1001.59 932.808,1000.42 935.041,999.251 937.274,998.08 939.507,996.908 941.74,995.736 943.973,994.565 946.206,993.393 948.438,992.222 950.671,991.05 952.905,989.878 955.138,988.707 957.371,987.536 959.604,986.364 961.836,985.192 964.069,984.021 966.302,982.849 968.536,981.678 970.769,980.506 973.001,979.334 975.234,977.771 977.467,976.599 979.7,975.427 981.933,974.256 984.166,973.084 986.399,971.913 988.632,970.741 990.865,969.569 993.098,968.398 995.331,967.227 997.564,966.055 999.797,964.883 1002.03,963.712 1004.26,962.54 1006.5,961.369 1008.73,960.197 1010.96,959.025 1013.19,957.854 1015.43,956.682 1017.66,955.511 1019.89,954.339 1022.13,953.167 1024.36,951.996 1026.59,950.825 1028.83,949.653 1031.06,948.481 1033.29,947.31 1035.52,946.138 1037.76,944.967 1039.99,943.795 1042.22,942.624 1044.46,941.452 1046.69,940.28 1048.92,939.109 1051.16,937.938 1053.39,936.766 1055.62,935.594 1057.85,934.423 1060.09,933.251 1062.32,932.08 1064.55,930.908 1066.79,929.736 1069.02,928.565 1071.25,927.394 1073.49,926.222 1075.72,925.05 1077.95,923.879 1080.18,922.707 1082.42,921.536 1084.65,920.364 1086.88,919.192 1089.12,918.021 1091.35,916.849 1093.58,915.678 1095.81,914.506 1098.05,913.334 1100.28,912.163 1102.51,910.992 1104.75,909.82 1106.98,908.648 1109.21,907.477 1111.45,906.305 1113.68,904.741 1115.91,903.57 1118.14,902.398 1120.38,901.227 1122.61,900.055 1124.84,898.883 1127.08,897.712 1129.31,896.541 1131.54,895.369 1133.78,894.197 1136.01,893.025 1138.24,891.854 1140.47,890.683 1142.71,889.511 1144.94,888.339 1147.17,887.168 1149.41,885.996 1151.64,884.825 1153.87,883.653 1156.11,882.481 1158.34,881.31 1160.57,880.139 1162.8,878.967 1165.04,877.795 1167.27,876.624 1169.5,875.452 1171.74,874.281 1173.97,873.109 1176.2,871.938 1178.44,870.766 1180.67,869.594 1182.9,868.423 1185.13,867.251 1187.37,866.08 1189.6,864.908 1191.83,863.737 1194.07,862.565 1196.3,861.394 1198.53,860.222 1200.76,859.05 1203,857.879 1205.23,856.707 1207.46,855.536 1209.7,854.364 1211.93,853.192 1214.16,852.021 1216.4,850.85 1218.63,849.678 1220.86,848.506 1223.09,847.335 1225.33,846.163 1227.56,844.992 1229.79,843.82 1232.03,842.648 1234.26,841.477 1236.49,840.305 1238.73,839.134 1240.96,837.962 1243.19,836.791 1245.42,835.619 1247.66,834.448 1249.89,832.884 1252.12,831.712 1254.36,830.541 1256.59,829.369 1258.82,828.197 1261.06,827.026 1263.29,825.854 1265.52,824.683 1267.75,823.511 1269.99,822.339 1272.22,821.168 1274.45,819.997 1276.69,818.825 1278.92,817.653 1281.15,816.482 1283.38,815.31 1285.62,814.139 1287.85,812.967 1290.08,811.795 1292.32,810.624 1294.55,809.452 1296.78,808.281 1299.02,807.109 1301.25,805.938 1303.48,804.766 1305.71,803.595 1307.95,802.423 1310.18,801.251 1312.41,800.08 1314.65,798.908 1316.88,797.737 1319.11,796.565 1321.35,795.394 1323.58,794.222 1325.81,793.05 1328.04,791.879 1330.28,790.708 1332.51,789.536 1334.74,788.364 1336.98,787.193 1339.21,786.021 1341.44,784.85 1343.68,783.678 1345.91,782.506 1348.14,781.335 1350.37,780.164 1352.61,778.992 1354.84,777.82 1357.07,776.648 1359.31,775.477 1361.54,774.306 1363.77,773.134 1366,771.962 1368.24,770.791 1370.47,769.619 1372.7,768.448 1374.94,767.276 1377.17,766.104 1379.4,764.933 1381.64,763.762 1383.87,762.59 1386.1,761.418 1388.33,759.854 1390.57,758.683 1392.8,757.511 1395.03,756.34 1397.27,755.168 1399.5,753.997 1401.73,752.825 1403.97,751.653 1406.2,750.482 1408.43,749.31 1410.66,748.139 1412.9,746.967 1415.13,745.795 1417.36,744.624 1419.6,743.453 1421.83,742.281 1424.06,741.109 1426.3,739.938 1428.53,738.766 1430.76,737.595 1432.99,736.423 1435.23,735.251 1437.46,734.08 1439.69,732.908 1441.93,731.737 1444.16,730.565 1446.39,729.394 1448.62,728.222 1450.86,727.051 1453.09,725.879 1455.32,724.708 1457.56,723.536 1459.79,722.364 1462.02,721.193 1464.26,720.021 1466.49,718.85 1468.72,717.678 1470.96,716.507 1473.19,715.335 1475.42,714.164 1477.65,712.992 1479.89,711.82 1482.12,710.649 1484.35,709.477 1486.59,708.306 1488.82,707.134 1491.05,705.962 1493.28,704.791 1495.52,703.62 1497.75,702.448 1499.98,701.276 1502.22,700.105 1504.45,698.933 1506.68,697.762 1508.92,696.59 1511.15,695.418 1513.38,694.247 1515.61,693.075 1517.85,691.904 1520.08,690.34 1522.31,689.168 1524.55,686.825 1526.78,686.825 1529.01,685.653 1531.25,684.482 1533.48,683.311 1535.71,682.139 1537.94,680.967 1540.18,679.796 1542.41,678.624 1544.64,677.453 1546.88,676.281 1549.11,675.109 1551.34,673.938 1553.58,672.766 1555.81,671.595 1558.04,670.423 1560.27,669.251 1562.51,668.08 1564.74,666.909 1566.97,665.737 1569.21,664.565 1571.44,663.394 1573.67,662.222 1575.9,661.051 1578.14,659.879 1580.37,658.708 1582.6,657.536 1584.84,656.365 1587.07,655.193 1589.3,654.021 1591.54,652.85 1593.77,651.678 1596,650.507 1598.23,649.335 1600.47,648.164 1602.7,646.992 1604.93,645.82 1607.17,644.649 1609.4,643.478 1611.63,642.306 1613.87,641.134 1616.1,639.963 1618.33,638.791 1620.56,637.62 1622.8,636.448 1625.03,635.276 1627.26,634.105 1629.5,632.934 1631.73,631.762 1633.96,630.59 1636.2,629.418 1638.43,628.247 1640.66,627.076 1642.89,625.904 1645.13,624.732 1647.36,623.561 1649.59,622.389 1651.83,621.218 1654.06,620.046 1656.29,618.875 1658.52,617.703 1660.76,616.139 1662.99,614.967 1665.22,613.796 1667.46,612.625 1669.69,611.453 1671.92,610.281 1674.16,609.109 1676.39,607.938 1678.62,606.767 1680.85,605.595 1683.09,604.423 1685.32,603.252 1687.55,602.08 1689.79,600.909 1692.02,599.737 1694.25,598.565 1696.49,597.394 1698.72,596.223 1700.95,595.051 1703.18,593.879 1705.42,592.708 1707.65,591.536 1709.88,590.365 1712.12,589.193 1714.35,588.021 1716.58,586.85 1718.82,585.678 1721.05,584.507 1723.28,583.335 1725.51,582.164 1727.75,580.992 1729.98,579.821 1732.21,578.649 1734.45,577.478 1736.68,576.306 1738.91,575.134 1741.15,573.963 1743.38,572.792 1745.61,571.62 1747.84,570.448 1750.08,569.276 1752.31,568.105 1754.54,566.934 1756.78,565.762 1759.01,564.59 1761.24,563.419 1763.48,562.247 1765.71,561.076 1767.94,559.904 1770.17,558.732 1772.41,557.561 1774.64,556.39 1776.87,555.218 1779.11,554.046 1781.34,552.875 1783.57,551.703 1785.8,550.532 1788.04,549.36 1790.27,548.188 1792.5,547.017 1794.74,545.845 1796.97,544.281 1799.2,543.11 1801.44,541.938 1803.67,540.767 1805.9,539.595 1808.13,538.423 1810.37,537.252 1812.6,536.081 1814.83,534.909 1817.07,533.737 1819.3,532.566 1821.53,531.394 1823.77,530.223 1826,529.051 1828.23,527.879 1830.46,526.708 1832.7,525.537 1834.93,524.365 1837.16,523.193 1839.4,522.021 1841.63,520.85 1843.86,519.679 1846.1,518.507 1848.33,517.335 1850.56,516.164 1852.79,514.992 1855.03,513.821 1857.26,512.649 1859.49,511.478 1861.73,510.306 1863.96,509.135 1866.19,507.963 1868.42,506.792 1870.66,505.62 1872.89,504.448 1875.12,503.277 1877.36,502.105 1879.59,500.934 1881.82,499.762 1884.06,498.59 1886.29,497.419 1888.52,496.248 1890.75,495.076 1892.99,493.904 1895.22,492.732 1897.45,491.561 1899.69,490.39 1901.92,489.218 1904.15,488.046 1906.39,486.875 1908.62,485.703 1910.85,484.532 1913.08,483.36 1915.32,482.188 1917.55,481.017 1919.78,479.846 1922.02,478.674 1924.25,477.502 1926.48,476.331 1928.72,475.159 1930.95,473.988 1933.18,472.424 1935.41,471.252 1937.65,470.081 1939.88,468.909 1942.11,467.737 1944.35,466.566 1946.58,465.395 1948.81,464.223 1951.04,463.051 1953.28,461.879 1955.51,460.708 1957.74,459.537 1959.98,458.365 1962.21,457.193 1964.44,456.022 1966.68,454.85 1968.91,453.679 1971.14,452.507 1973.37,451.335 1975.61,450.164 1977.84,448.992 1980.07,447.821 1982.31,446.649 1984.54,445.478 1986.77,444.306 1989.01,443.135 1991.24,441.963 1993.47,440.792 1995.7,439.62 1997.94,438.448 2000.17,437.277 2002.4,436.105 2004.64,434.934 2006.87,433.762 2009.1,432.591 2011.33,431.419 2013.57,430.248 2015.8,429.076 2018.03,427.904 2020.27,426.733 2022.5,425.561 2024.73,424.39 2026.97,423.218 2029.2,422.046 2031.43,420.875 2033.67,419.704 2035.9,418.532 2038.13,417.36 2040.36,416.189 2042.6,415.017 2044.83,413.846 2047.06,412.674 2049.3,411.502 2051.53,410.331 2053.76,409.159 2056,407.988 2058.23,406.816 2060.46,405.645 2062.69,404.473 2064.93,403.302 2067.16,402.13 2069.39,400.958 2071.63,399.395 2073.86,398.223 2076.09,397.051 2078.32,395.88 2080.56,394.708 2082.79,393.537 2085.02,392.365 2087.26,391.193 2089.49,390.022 2091.72,388.851 2093.96,387.679 2096.19,386.507 2098.42,385.335 2100.65,384.164 2102.89,382.993 2105.12,381.821 2107.35,380.649 2109.59,379.478 2111.82,378.306 2114.05,377.135 2116.29,375.963 2118.52,374.792 2120.75,373.62 2122.98,372.449 2125.22,371.277 2127.45,370.105 2129.68,368.934 2131.92,367.762 2134.15,366.591 2136.38,365.419 2138.62,364.248 2140.85,363.076 2143.08,361.904 2145.31,360.733 2147.55,359.562 2149.78,358.39 2152.01,357.218 2154.25,356.047 2156.48,354.875 2158.71,353.704 2160.94,352.532 2163.18,351.36 2165.41,350.189 2167.64,349.017 2169.88,347.846 2172.11,346.674 2174.34,345.502 2176.58,344.331 2178.81,343.16 2181.04,341.988 2183.27,340.816 2185.51,339.645 2187.74,338.473 2189.97,337.302 2192.21,336.13 2194.44,334.958 2196.67,333.787 2198.91,332.615 2201.14,331.444 2203.37,330.272 2205.6,329.101 2207.84,327.537 2210.07,326.365 2212.3,325.194 2214.54,324.022 2216.77,322.851 2219,321.679 2221.24,320.507 2223.47,319.336 2225.7,318.164 2227.93,316.993 2230.17,315.821 2232.4,314.649 2234.63,313.478 2236.87,312.307 2239.1,311.135 2241.33,309.963 2243.56,308.792 2245.8,307.62 2248.03,306.449 2250.26,305.277 2252.5,304.105 2254.73,302.934 2256.96,301.762 2259.2,300.591 2261.43,299.419 2263.66,298.248 2265.89,297.076 2268.13,295.905 2270.36,294.733 2272.59,293.562 2274.83,292.39 2277.06,291.218 2279.29,290.047 2281.53,288.875 2283.76,287.704 2285.99,286.532 2288.22,285.361 2290.46,284.189 2292.69,283.018 2294.92,281.846 2297.16,280.674 2299.39,279.503 2301.62,278.331 2303.86,277.16 2306.09,275.988 2308.32,274.816 2310.55,273.645 2312.79,272.474 2315.02,271.302 2317.25,270.13 2319.49,268.959 2321.72,267.787 2323.95,266.616 2326.18,265.444 2328.42,264.272 2330.65,263.101 2332.88,261.929 2335.12,260.758 2337.35,259.586 2339.58,258.415 2341.82,257.243 2344.05,256.072 2346.28,254.508 2348.51,253.336 2350.75,252.165 2352.98,250.993 2355.21,249.821 2357.45,248.65 2359.68,247.478 2361.91,246.307 2364.15,245.135 2366.38,243.963 2368.61,242.792 2370.84,241.621 2373.08,240.449 2375.31,239.277 2377.54,238.105 2379.78,236.934 2382.01,235.376 2384.24,234.591 2386.48,233.419 2388.71,232.248 2390.94,231.076 2393.17,229.905 2395.41,228.733 2397.64,227.562 2399.87,226.39 2402.11,225.219 2404.34,224.047 2406.57,222.875 2408.8,221.704 2411.04,220.532 2413.27,219.361 2415.5,218.189 2417.74,217.018 2419.97,215.846 2422.2,214.674 2424.44,213.503 2426.67,212.332 2428.9,211.16 2431.13,209.988 2433.37,208.816 2435.6,207.645 2437.83,206.474 2440.07,205.302 2442.3,204.13 2444.53,202.959 2446.77,201.787 2449,200.616 2451.23,199.444 2453.46,198.272 2455.7,197.101 2457.93,195.93 2460.16,194.758 2462.4,193.586 2464.63,192.415 2466.86,191.243 2469.1,190.072 2471.33,188.9 2473.56,187.729 2475.79,186.557 2478.03,185.386 2480.26,184.214 2482.49,182.65 2484.73,181.479 2486.96,180.307 2489.19,179.135 2491.42,177.964 2493.66,176.792 2495.89,175.621 2498.12,174.449 2500.36,173.277 2502.59,172.106 2504.82,170.935 2507.06,169.763 2509.29,168.591 2511.52,167.419 2513.75,166.248 2515.99,165.077 2518.22,163.905 2520.45,162.733 2522.69,161.562 2524.92,160.39 2527.15,159.219 2529.39,158.047 2531.62,156.875 2533.85,155.704 2536.08,154.532 2538.32,153.361 2540.55,152.189 2542.78,151.018 2545.02,149.846 2547.25,148.675 2549.48,147.503 2551.72,146.332 2553.95,145.16 2556.18,143.988 2558.41,142.817 2560.65,141.646 2562.88,140.474 2565.11,139.302 2567.35,138.13 2569.58,136.959 2571.81,135.788 2574.04,134.616 2576.28,133.444 2578.51,132.272 2580.74,131.101 2582.98,129.93 2585.21,128.758 2587.44,127.586 2589.68,126.415 2591.91,125.243 2594.14,124.072 2596.38,122.9 2598.61,121.729 2600.84,120.557 2603.07,119.386 2605.31,118.214 2607.54,117.042" stroke="#0071bc"/>
   <polyline fill="none" stroke-linecap="butt" stroke-width="0.5" stroke-linejoin="round" points="376.797,1296.05 379.03,1296.05 381.263,1296.05 383.496,1296.05 385.729,1296.05 387.962,1296.05 390.194,1296.05 392.428,1296.05 394.661,1296.05 396.894,1296.05 399.126,1296.05 401.359,1296.05 403.593,1296.05 405.825,1296.05 408.059,1296.05 410.292,1296.05 412.524,1296.05 414.757,1296.05 416.99,1296.05 419.223,1296.05 421.457,1296.05 423.689,1296.05 425.922,1296.05 428.155,1296.05 430.388,1296.05 432.621,1296.05 434.854,1293.54 437.087,1293.54 439.32,1293.54 441.553,1293.54 443.786,1293.54 446.019,1293.54 448.252,1293.54 450.485,1293.54 452.718,1293.54 454.951,1293.54 457.184,1293.54 459.417,1293.54 461.65,1293.54 463.883,1293.54 466.116,1293.54 468.349,1293.54 470.582,1293.54 472.815,1293.54 475.048,1293.54 477.281,1293.54 479.514,1293.54 481.747,1293.54 483.979,1293.54 486.212,1293.54 488.445,1293.54 490.679,1293.54 492.912,1293.54 495.145,1293.54 497.377,1293.54 499.61,1293.54 501.843,1293.54 504.077,1293.54 506.31,1293.54 508.542,1293.54 510.775,1293.54 513.008,1293.54 515.241,1293.54 517.474,1293.54 519.707,1293.54 521.94,1293.54 524.173,1293.54 526.406,1293.54 528.639,1293.54 530.872,1293.54 533.105,1293.54 535.338,1293.54 537.571,1293.54 539.804,1293.54 542.037,1293.54 544.27,1293.54 546.503,1293.54 548.736,1293.54 550.969,1293.54 553.202,1293.54 555.435,1293.54 557.668,1293.54 559.901,1293.54 562.134,1293.54 564.367,1293.54 566.6,1293.54 568.833,1293.54 571.065,1293.15 573.299,1293.15 575.532,1293.15 577.765,1293.15 579.998,1293.15 582.23,1293.15 584.463,1293.15 586.697,1293.15 588.93,1293.15 591.163,1293.15 593.396,1293.15 595.628,1293.15 597.861,1293.15 600.094,1293.15 602.327,1293.15 604.561,1293.15 606.793,1293.15 609.026,1293.15 611.259,1293.15 613.492,1293.15 615.725,1293.15 617.958,1293.15 620.191,1293.15 622.424,1293.15 624.657,1293.15 626.89,1293.15 629.123,1293.15 631.356,1293.15 633.589,1293.15 635.822,1293.15 638.055,1293.15 640.288,1293.15 642.521,1293.15 644.754,1293.15 646.987,1293.15 649.22,1293.15 651.453,1293.15 653.686,1293.15 655.919,1293.15 658.152,1293.15 660.385,1293.15 662.618,1293.15 664.851,1293.15 667.083,1293.15 669.316,1293.15 671.55,1293.15 673.783,1293.15 676.016,1293.15 678.249,1293.15 680.481,1293.15 682.714,1293.15 684.947,1293.15 687.181,1293.15 689.414,1293.15 691.646,1293.15 693.879,1293.15 696.112,1293.15 698.345,1293.15 700.578,1293.15 702.812,1293.15 705.044,1293.15 707.277,1292.76 709.51,1292.76 711.743,1292.76 713.976,1292.76 716.209,1292.76 718.442,1292.76 720.675,1292.76 722.908,1292.76 725.141,1292.76 727.374,1292.76 729.607,1292.76 731.84,1292.76 734.073,1292.76 736.306,1292.76 738.539,1292.76 740.772,1292.76 743.005,1292.76 745.238,1292.76 747.471,1292.76 749.704,1292.76 751.937,1292.76 754.17,1292.76 756.403,1292.76 758.636,1292.76 760.869,1292.76 763.102,1292.76 765.334,1292.76 767.567,1292.76 769.801,1292.76 772.034,1292.76 774.267,1292.76 776.5,1292.76 778.732,1292.76 780.965,1292.76 783.198,1292.76 785.432,1292.76 787.665,1292.76 789.897,1292.76 792.13,1292.76 794.363,1292.76 796.596,1292.76 798.829,1292.76 801.062,1292.76 803.295,1292.76 805.528,1292.76 807.761,1292.76 809.994,1292.76 812.227,1292.76 814.46,1292.76 816.693,1292.76 818.926,1292.76 821.159,1292.76 823.392,1292.76 825.625,1292.76 827.858,1292.76 830.091,1292.76 832.324,1292.76 834.557,1292.76 836.79,1292.76 839.023,1292.76 841.256,1292.76 843.489,1292.37 845.722,1292.37 847.955,1292.37 850.188,1292.37 852.421,1292.37 854.654,1292.37 856.887,1292.37 859.12,1292.37 861.353,1292.37 863.585,1292.37 865.818,1292.37 868.052,1292.37 870.285,1292.37 872.518,1292.37 874.75,1292.37 876.983,1292.37 879.216,1292.37 881.449,1292.37 883.683,1292.37 885.916,1292.37 888.148,1292.37 890.381,1292.37 892.614,1292.37 894.847,1292.37 897.08,1292.37 899.313,1292.37 901.546,1292.37 903.779,1292.37 906.012,1292.37 908.245,1292.37 910.478,1292.37 912.711,1292.37 914.944,1292.37 917.177,1292.37 919.41,1292.37 921.643,1292.37 923.876,1292.37 926.109,1292.37 928.342,1292.37 930.575,1292.37 932.808,1292.37 935.041,1292.37 937.274,1292.37 939.507,1292.37 941.74,1292.37 943.973,1292.37 946.206,1292.37 948.438,1292.37 950.671,1292.37 952.905,1292.37 955.138,1292.37 957.371,1292.37 959.604,1292.37 961.836,1292.37 964.069,1292.37 966.302,1292.37 968.536,1292.37 970.769,1292.37 973.001,1292.37 975.234,1292.37 977.467,1292.37 979.7,1291.97 981.933,1291.97 984.166,1291.97 986.399,1291.97 988.632,1291.97 990.865,1291.97 993.098,1291.97 995.331,1291.97 997.564,1291.97 999.797,1291.97 1002.03,1291.97 1004.26,1291.97 1006.5,1291.97 1008.73,1291.97 1010.96,1291.97 1013.19,1291.97 1015.43,1291.97 1017.66,1291.97 1019.89,1291.97 1022.13,1291.97 1024.36,1291.97 1026.59,1291.97 1028.83,1291.97 1031.06,1291.97 1033.29,1291.97 1035.52,1291.97 1037.76,1291.97 1039.99,1291.97 1042.22,1291.97 1044.46,1291.97 1046.69,1291.97 1048.92,1291.97 1051.16,1291.97 1053.39,1291.97 1055.62,1291.97 1057.85,1291.97 1060.09,1291.97 1062.32,1291.97 1064.55,1291.97 1066.79,1291.97 1069.02,1291.97 1071.25,1291.97 1073.49,1291.97 1075.72,1291.97 1077.95,1291.97 1080.18,1291.97 1082.42,1291.97 1084.65,1291.97 1086.88,1291.97 1089.12,1291.97 1091.35,1291.97 1093.58,1291.97 1095.81,1291.97 1098.05,1291.97 1100.28,1291.97 1102.51,1291.97 1104.75,1291.97 1106.98,1291.97 1109.21,1291.97 1111.45,1291.97 1113.68,1291.97 1115.91,1291.97 1118.14,1291.58 1120.38,1291.58 1122.61,1291.58 1124.84,1291.58 1127.08,1291.58 1129.31,1291.58 1131.54,1291.58 1133.78,1291.58 1136.01,1291.58 1138.24,1291.58 1140.47,1291.58 1142.71,1291.58 1144.94,1291.58 1147.17,1291.58 1149.41,1291.58 1151.64,1291.58 1153.87,1291.58 1156.11,1291.58 1158.34,1291.58 1160.57,1291.58 1162.8,1291.58 1165.04,1291.58 1167.27,1291.58 1169.5,1291.58 1171.74,1291.58 1173.97,1291.58 1176.2,1291.58 1178.44,1291.58 1180.67,1291.58 1182.9,1291.58 1185.13,1291.58 1187.37,1291.58 1189.6,1291.58 1191.83,1291.58 1194.07,1291.58 1196.3,1291.58 1198.53,1291.58 1200.76,1291.58 1203,1291.58 1205.23,1291.58 1207.46,1291.58 1209.7,1291.58 1211.93,1291.58 1214.16,1291.58 1216.4,1291.58 1218.63,1291.58 1220.86,1291.58 1223.09,1291.58 1225.33,1291.58 1227.56,1291.58 1229.79,1291.58 1232.03,1291.58 1234.26,1291.58 1236.49,1291.58 1238.73,1291.58 1240.96,1291.58 1243.19,1291.58 1245.42,1291.58 1247.66,1291.58 1249.89,1291.58 1252.12,1291.58 1254.36,1291.19 1256.59,1291.19 1258.82,1291.19 1261.06,1291.19 1263.29,1291.19 1265.52,1291.19 1267.75,1291.19 1269.99,1291.19 1272.22,1291.19 1274.45,1291.19 1276.69,1291.19 1278.92,1291.19 1281.15,1291.19 1283.38,1291.19 1285.62,1291.19 1287.85,1291.19 1290.08,1291.19 1292.32,1291.19 1294.55,1291.19 1296.78,1291.19 1299.02,1291.19 1301.25,1291.19 1303.48,1291.19 1305.71,1291.19 1307.95,1291.19 1310.18,1291.19 1312.41,1291.19 1314.65,1291.19 1316.88,1291.19 1319.11,1291.19 1321.35,1291.19 1323.58,1291.19 1325.81,1291.19 1328.04,1291.19 1330.28,1291.19 1332.51,1291.19 1334.74,1291.19 1336.98,1291.19 1339.21,1291.19 1341.44,1291.19 1343.68,1291.19 1345.91,1291.19 1348.14,1291.19 1350.37,1291.19 1352.61,1291.19 1354.84,1291.19 1357.07,1291.19 1359.31,1291.19 1361.54,1291.19 1363.77,1291.19 1366,1291.19 1368.24,1291.19 1370.47,1291.19 1372.7,1291.19 1374.94,1291.19 1377.17,1291.19 1379.4,1291.19 1381.64,1291.19 1383.87,1291.19 1386.1,1291.19 1388.33,1291.19 1390.57,1290.8 1392.8,1290.8 1395.03,1290.8 1397.27,1290.8 1399.5,1290.8 1401.73,1290.8 1403.97,1290.8 1406.2,1290.8 1408.43,1290.8 1410.66,1290.8 1412.9,1290.8 1415.13,1290.8 1417.36,1290.8 1419.6,1290.8 1421.83,1290.8 1424.06,1290.8 1426.3,1290.8 1428.53,1290.8 1430.76,1290.8 1432.99,1290.8 1435.23,1290.8 1437.46,1290.8 1439.69,1290.8 1441.93,1290.8 1444.16,1290.8 1446.39,1290.8 1448.62,1290.8 1450.86,1290.8 1453.09,1290.8 1455.32,1290.8 1457.56,1290.8 1459.79,1290.8 1462.02,1290.8 1464.26,1290.8 1466.49,1290.8 1468.72,1290.8 1470.96,1290.8 1473.19,1290.8 1475.42,1290.8 1477.65,1290.8 1479.89,1290.8 1482.12,1290.8 1484.35,1290.8 1486.59,1290.8 1488.82,1290.8 1491.05,1290.8 1493.28,1290.8 1495.52,1290.8 1497.75,1290.8 1499.98,1290.8 1502.22,1290.8 1504.45,1290.8 1506.68,1290.8 1508.92,1290.8 1511.15,1290.8 1513.38,1290.8 1515.61,1290.8 1517.85,1290.8 1520.08,1290.8 1522.31,1290.8 1524.55,1290.4 1526.78,1290.4 1529.01,1290.4 1531.25,1290.4 1533.48,1290.4 1535.71,1290.4 1537.94,1290.4 1540.18,1290.4 1542.41,1290.4 1544.64,1290.4 1546.88,1290.4 1549.11,1290.4 1551.34,1290.4 1553.58,1290.4 1555.81,1290.4 1558.04,1290.4 1560.27,1290.4 1562.51,1290.4 1564.74,1290.4 1566.97,1290.4 1569.21,1290.4 1571.44,1290.4 1573.67,1290.4 1575.9,1290.4 1578.14,1290.4 1580.37,1290.4 1582.6,1290.4 1584.84,1290.4 1587.07,1290.4 1589.3,1290.4 1591.54,1290.4 1593.77,1290.4 1596,1290.4 1598.23,1290.4 1600.47,1290.4 1602.7,1290.4 1604.93,1290.4 1607.17,1290.4 1609.4,1290.4 1611.63,1290.4 1613.87,1290.4 1616.1,1290.4 1618.33,1290.4 1620.56,1290.4 1622.8,1290.4 1625.03,1290.4 1627.26,1290.4 1629.5,1290.4 1631.73,1290.4 1633.96,1290.4 1636.2,1290.4 1638.43,1290.4 1640.66,1290.4 1642.89,1290.4 1645.13,1290.4 1647.36,1290.4 1649.59,1290.4 1651.83,1290.4 1654.06,1290.4 1656.29,1290.4 1658.52,1290.4 1660.76,1290.4 1662.99,1290.01 1665.22,1290.01 1667.46,1290.01 1669.69,1290.01 1671.92,1290.01 1674.16,1290.01 1676.39,1290.01 1678.62,1290.01 1680.85,1290.01 1683.09,1290.01 1685.32,1290.01 1687.55,1290.01 1689.79,1290.01 1692.02,1290.01 1694.25,1290.01 1696.49,1290.01 1698.72,1290.01 1700.95,1290.01 1703.18,1290.01 1705.42,1290.01 1707.65,1290.01 1709.88,1290.01 1712.12,1290.01 1714.35,1290.01 1716.58,1290.01 1718.82,1290.01 1721.05,1290.01 1723.28,1290.01 1725.51,1290.01 1727.75,1290.01 1729.98,1290.01 1732.21,1290.01 1734.45,1290.01 1736.68,1290.01 1738.91,1290.01 1741.15,1290.01 1743.38,1290.01 1745.61,1290.01 1747.84,1290.01 1750.08,1290.01 1752.31,1290.01 1754.54,1290.01 1756.78,1290.01 1759.01,1290.01 1761.24,1290.01 1763.48,1290.01 1765.71,1290.01 1767.94,1290.01 1770.17,1290.01 1772.41,1290.01 1774.64,1290.01 1776.87,1290.01 1779.11,1290.01 1781.34,1290.01 1783.57,1290.01 1785.8,1290.01 1788.04,1290.01 1790.27,1290.01 1792.5,1290.01 1794.74,1290.01 1796.97,1290.01 1799.2,1290.01 1801.44,1289.62 1803.67,1289.62 1805.9,1289.62 1808.13,1289.62 1810.37,1289.62 1812.6,1289.62 1814.83,1289.62 1817.07,1289.62 1819.3,1289.62 1821.53,1289.62 1823.77,1289.62 1826,1289.62 1828.23,1289.62 1830.46,1289.62 1832.7,1289.62 1834.93,1289.62 1837.16,1289.62 1839.4,1289.62 1841.63,1289.62 1843.86,1289.62 1846.1,1289.62 1848.33,1289.62 1850.56,1289.62 1852.79,1289.62 1855.03,1289.62 1857.26,1289.62 1859.49,1289.62 1861.73,1289.62 1863.96,1289.62 1866.19,1289.62 1868.42,1289.62 1870.66,1289.62 1872.89,1289.62 1875.12,1289.62 1877.36,1289.62 1879.59,1289.62 1881.82,1289.62 1884.06,1289.62 1886.29,1289.62 1888.52,1289.62 1890.75,1289.62 1892.99,1289.62 1895.22,1289.62 1897.45,1289.62 1899.69,1289.62 1901.92,1289.62 1904.15,1289.62 1906.39,1289.62 1908.62,1289.62 1910.85,1289.62 1913.08,1289.62 1915.32,1289.62 1917.55,1289.62 1919.78,1289.62 1922.02,1289.62 1924.25,1289.62 1926.48,1289.62 1928.72,1289.62 1930.95,1289.62 1933.18,1289.62 1935.41,1289.62 1937.65,1289.23 1939.88,1289.23 1942.11,1289.23 1944.35,1289.23 1946.58,1289.23 1948.81,1289.23 1951.04,1289.23 1953.28,1289.23 1955.51,1289.23 1957.74,1289.23 1959.98,1289.23 1962.21,1289.23 1964.44,1289.23 1966.68,1289.23 1968.91,1289.23 1971.14,1289.23 1973.37,1289.23 1975.61,1289.23 1977.84,1289.23 1980.07,1289.23 1982.31,1289.23 1984.54,1289.23 1986.77,1289.23 1989.01,1289.23 1991.24,1289.23 1993.47,1289.23 1995.7,1289.23 1997.94,1289.23 2000.17,1289.23 2002.4,1289.23 2004.64,1289.23 2006.87,1289.23 2009.1,1289.23 2011.33,1289.23 2013.57,1289.23 2015.8,1289.23 2018.03,1289.23 2020.27,1289.23 2022.5,1289.23 2024.73,1289.23 2026.97,1289.23 2029.2,1289.23 2031.43,1289.23 2033.67,1289.23 2035.9,1289.23 2038.13,1289.23 2040.36,1289.23 2042.6,1289.23 2044.83,1289.23 2047.06,1289.23 2049.3,1289.23 2051.53,1289.23 2053.76,1289.23 2056,1289.23 2058.23,1289.23 2060.46,1289.23 2062.69,1289.23 2064.93,1289.23 2067.16,1289.23 2069.39,1289.23 2071.63,1289.23 2073.86,1289.23 2076.09,1288.83 2078.32,1288.83 2080.56,1288.83 2082.79,1288.83 2085.02,1288.83 2087.26,1288.83 2089.49,1288.83 2091.72,1288.83 2093.96,1288.83 2096.19,1288.83 2098.42,1288.83 2100.65,1288.83 2102.89,1288.83 2105.12,1288.83 2107.35,1288.83 2109.59,1288.83 2111.82,1288.83 2114.05,1288.83 2116.29,1288.83 2118.52,1288.83 2120.75,1288.83 2122.98,1288.83 2125.22,1288.83 2127.45,1288.83 2129.68,1288.83 2131.92,1288.83 2134.15,1288.83 2136.38,1288.83 2138.62,1288.83 2140.85,1288.83 2143.08,1288.83 2145.31,1288.83 2147.55,1288.83 2149.78,1288.83 2152.01,1288.83 2154.25,1288.83 2156.48,1288.83 2158.71,1288.83 2160.94,1288.83 2163.18,1288.83 2165.41,1288.83 2167.64,1288.83 2169.88,1288.83 2172.11,1288.83 2174.34,1288.83 2176.58,1288.83 2178.81,1288.83 2181.04,1288.83 2183.27,1288.83 2185.51,1288.83 2187.74,1288.83 2189.97,1288.83 2192.21,1288.83 2194.44,1288.83 2196.67,1288.83 2198.91,1288.83 2201.14,1288.83 2203.37,1288.83 2205.6,1288.83 2207.84,1288.83 2210.07,1288.83 2212.3,1288.44 2214.54,1288.44 2216.77,1288.44 2219,1288.44 2221.24,1288.44 2223.47,1288.44 2225.7,1288.44 2227.93,1288.44 2230.17,1288.44 2232.4,1288.44 2234.63,1288.44 2236.87,1288.44 2239.1,1288.44 2241.33,1288.44 2243.56,1288.44 2245.8,1288.44 2248.03,1288.44 2250.26,1288.44 2252.5,1288.44 2254.73,1288.44 2256.96,1288.44 2259.2,1288.44 2261.43,1288.44 2263.66,1288.44 2265.89,1288.44 2268.13,1288.44 2270.36,1288.44 2272.59,1288.44 2274.83,1288.44 2277.06,1288.44 2279.29,1288.44 2281.53,1288.44 2283.76,1288.44 2285.99,1288.44 2288.22,1288.44 2290.46,1288.44 2292.69,1288.44 2294.92,1288.44 2297.16,1288.44 2299.39,1288.44 2301.62,1288.44 2303.86,1288.44 2306.09,1288.44 2308.32,1288.44 2310.55,1288.44 2312.79,1288.44 2315.02,1288.44 2317.25,1288.44 2319.49,1288.44 2321.72,1288.44 2323.95,1288.44 2326.18,1288.44 2328.42,1288.44 2330.65,1288.44 2332.88,1288.44 2335.12,1288.44 2337.35,1288.44 2339.58,1288.44 2341.82,1288.44 2344.05,1288.44 2346.28,1288.44 2348.51,1288.44 2350.75,1288.05 2352.98,1288.05 2355.21,1288.05 2357.45,1288.05 2359.68,1288.05 2361.91,1288.05 2364.15,1288.05 2366.38,1288.05 2368.61,1288.05 2370.84,1288.05 2373.08,1288.05 2375.31,1288.05 2377.54,1288.05 2379.78,1288.05 2382.01,1288.05 2384.24,1288.05 2386.48,1288.05 2388.71,1288.05 2390.94,1288.05 2393.17,1288.05 2395.41,1288.05 2397.64,1288.05 2399.87,1288.05 2402.11,1288.05 2404.34,1288.05 2406.57,1288.05 2408.8,1288.05 2411.04,1288.05 2413.27,1288.05 2415.5,1288.05 2417.74,1288.05 2419.97,1288.05 2422.2,1288.05 2424.44,1288.05 2426.67,1288.05 2428.9,1288.05 2431.13,1288.05 2433.37,1288.05 2435.6,1288.05 2437.83,1288.05 2440.07,1288.05 2442.3,1288.05 2444.53,1288.05 2446.77,1288.05 2449,1288.05 2451.23,1288.05 2453.46,1288.05 2455.7,1288.05 2457.93,1288.05 2460.16,1288.05 2462.4,1288.05 2464.63,1288.05 2466.86,1288.05 2469.1,1288.05 2471.33,1288.05 2473.56,1288.05 2475.79,1288.05 2478.03,1288.05 2480.26,1288.05 2482.49,1288.05 2484.73,1288.05 2486.96,1287.66 2489.19,1287.66 2491.42,1287.66 2493.66,1287.66 2495.89,1287.66 2498.12,1287.66 2500.36,1287.66 2502.59,1287.66 2504.82,1287.66 2507.06,1287.66 2509.29,1287.66 2511.52,1287.66 2513.75,1287.66 2515.99,1287.66 2518.22,1287.66 2520.45,1287.66 2522.69,1287.66 2524.92,1287.66 2527.15,1287.66 2529.39,1287.66 2531.62,1287.66 2533.85,1287.66 2536.08,1287.66 2538.32,1287.66 2540.55,1287.66 2542.78,1287.66 2545.02,1287.66 2547.25,1287.66 2549.48,1287.66 2551.72,1287.66 2553.95,1287.66 2556.18,1287.66 2558.41,1287.66 2560.65,1287.66 2562.88,1287.66 2565.11,1287.66 2567.35,1287.66 2569.58,1287.66 2571.81,1287.66 2574.04,1287.66 2576.28,1287.66 2578.51,1287.66 2580.74,1287.66 2582.98,1287.66 2585.21,1287.66 2587.44,1287.66 2589.68,1287.66 2591.91,1287.66 2594.14,1287.66 2596.38,1287.66 2598.61,1287.66 2600.84,1287.66 2603.07,1287.66 2605.31,1287.66 2607.54,1287.66" stroke="#d85218"/>
   <polyline fill="none" stroke-linecap="butt" stroke-width="0.5" stroke-linejoin="round" points="376.797,1296.04 379.03,1295.26 381.263,1294.48 383.496,1293.71 385.729,1292.93 387.962,1292.15 390.194,1291.37 392.428,1290.59 394.661,1289.81 396.894,1289.03 399.126,1288.25 401.359,1287.47 403.593,1286.69 405.825,1285.91 408.059,1285.14 410.292,1284.36 412.524,1283.58 414.757,1282.8 416.99,1282.02 419.223,1281.24 421.457,1280.46 423.689,1279.68 425.922,1278.9 428.155,1278.12 430.388,1277.34 432.621,1276.57 434.854,1273.27 437.087,1272.49 439.32,1271.71 441.553,1270.93 443.786,1270.15 446.019,1269.38 448.252,1268.6 450.485,1267.82 452.718,1267.04 454.951,1266.26 457.184,1265.48 459.417,1264.7 461.65,1263.92 463.883,1263.14 466.116,1262.36 468.349,1261.59 470.582,1260.81 472.815,1260.03 475.048,1259.25 477.281,1258.47 479.514,1257.69 481.747,1256.91 483.979,1256.13 486.212,1255.35 488.445,1254.57 490.679,1253.79 492.912,1253.02 495.145,1252.24 497.377,1251.46 499.61,1250.68 501.843,1249.9 504.077,1249.12 506.31,1248.34 508.542,1247.56 510.775,1246.78 513.008,1246 515.241,1245.23 517.474,1244.45 519.707,1243.67 521.94,1242.89 524.173,1242.11 526.406,1241.33 528.639,1240.55 530.872,1239.77 533.105,1238.99 535.338,1238.21 537.571,1237.43 539.804,1236.66 542.037,1235.88 544.27,1235.1 546.503,1234.32 548.736,1233.54 550.969,1232.76 553.202,1231.98 555.435,1231.2 557.668,1230.42 559.901,1229.64 562.134,1228.86 564.367,1228.09 566.6,1227.31 568.833,1226.53 571.065,1225.36 573.299,1224.58 575.532,1223.8 577.765,1223.02 579.998,1222.24 582.23,1221.46 584.463,1220.68 586.697,1219.9 588.93,1219.12 591.163,1218.34 593.396,1217.57 595.628,1216.79 597.861,1216.01 600.094,1215.23 602.327,1214.45 604.561,1213.67 606.793,1212.89 609.026,1212.11 611.259,1211.33 613.492,1210.55 615.725,1209.77 617.958,1209 620.191,1208.22 622.424,1207.44 624.657,1206.66 626.89,1205.88 629.123,1205.1 631.356,1204.32 633.589,1203.54 635.822,1202.76 638.055,1201.98 640.288,1201.21 642.521,1200.43 644.754,1199.65 646.987,1198.87 649.22,1198.09 651.453,1197.31 653.686,1196.53 655.919,1195.75 658.152,1194.97 660.385,1194.19 662.618,1193.42 664.851,1192.64 667.083,1191.86 669.316,1191.08 671.55,1190.3 673.783,1189.52 676.016,1188.74 678.249,1187.96 680.481,1187.18 682.714,1186.4 684.947,1185.62 687.181,1184.85 689.414,1184.07 691.646,1183.29 693.879,1182.51 696.112,1181.73 698.345,1180.95 700.578,1180.17 702.812,1179.39 705.044,1178.61 707.277,1177.44 709.51,1176.66 711.743,1175.88 713.976,1175.1 716.209,1174.32 718.442,1173.55 720.675,1172.77 722.908,1171.99 725.141,1171.21 727.374,1170.43 729.607,1169.65 731.84,1168.87 734.073,1168.09 736.306,1167.31 738.539,1166.53 740.772,1165.76 743.005,1164.98 745.238,1164.2 747.471,1163.42 749.704,1162.64 751.937,1161.86 754.17,1161.08 756.403,1160.3 758.636,1159.52 760.869,1158.74 763.102,1157.96 765.334,1157.19 767.567,1156.41 769.801,1155.63 772.034,1154.85 774.267,1154.07 776.5,1153.29 778.732,1152.51 780.965,1151.73 783.198,1150.95 785.432,1150.17 787.665,1149.4 789.897,1148.62 792.13,1147.84 794.363,1147.06 796.596,1146.28 798.829,1145.5 801.062,1144.72 803.295,1143.94 805.528,1143.16 807.761,1142.38 809.994,1141.6 812.227,1140.83 814.46,1140.05 816.693,1139.27 818.926,1138.49 821.159,1137.71 823.392,1136.93 825.625,1136.15 827.858,1135.37 830.091,1134.59 832.324,1133.81 834.557,1133.03 836.79,1132.26 839.023,1131.48 841.256,1130.7 843.489,1129.53 845.722,1128.75 847.955,1127.97 850.188,1127.19 852.421,1126.41 854.654,1125.63 856.887,1124.85 859.12,1124.07 861.353,1123.29 863.585,1122.51 865.818,1121.74 868.052,1120.96 870.285,1120.18 872.518,1119.4 874.75,1118.62 876.983,1117.84 879.216,1117.06 881.449,1116.28 883.683,1115.5 885.916,1114.72 888.148,1113.94 890.381,1113.17 892.614,1112.39 894.847,1111.61 897.08,1110.83 899.313,1110.05 901.546,1109.27 903.779,1108.49 906.012,1107.71 908.245,1106.93 910.478,1106.15 912.711,1105.38 914.944,1104.6 917.177,1103.82 919.41,1103.04 921.643,1102.26 923.876,1101.48 926.109,1100.7 928.342,1099.92 930.575,1099.14 932.808,1098.36 935.041,1097.58 937.274,1096.81 939.507,1096.03 941.74,1095.25 943.973,1094.47 946.206,1093.69 948.438,1092.91 950.671,1092.13 952.905,1091.35 955.138,1090.57 957.371,1089.79 959.604,1089.02 961.836,1088.24 964.069,1087.46 966.302,1086.68 968.536,1085.9 970.769,1085.12 973.001,1084.34 975.234,1083.56 977.467,1082.78 979.7,1081.61 981.933,1080.83 984.166,1080.05 986.399,1079.27 988.632,1078.5 990.865,1077.72 993.098,1076.94 995.331,1076.16 997.564,1075.38 999.797,1074.6 1002.03,1073.82 1004.26,1073.04 1006.5,1072.26 1008.73,1071.48 1010.96,1070.7 1013.19,1069.93 1015.43,1069.15 1017.66,1068.37 1019.89,1067.59 1022.13,1066.81 1024.36,1066.03 1026.59,1065.25 1028.83,1064.47 1031.06,1063.69 1033.29,1062.91 1035.52,1062.13 1037.76,1061.36 1039.99,1060.58 1042.22,1059.8 1044.46,1059.02 1046.69,1058.24 1048.92,1057.46 1051.16,1056.68 1053.39,1055.9 1055.62,1055.12 1057.85,1054.34 1060.09,1053.56 1062.32,1052.79 1064.55,1052.01 1066.79,1051.23 1069.02,1050.45 1071.25,1049.67 1073.49,1048.89 1075.72,1048.11 1077.95,1047.33 1080.18,1046.55 1082.42,1045.77 1084.65,1045 1086.88,1044.22 1089.12,1043.44 1091.35,1042.66 1093.58,1041.88 1095.81,1041.1 1098.05,1040.32 1100.28,1039.54 1102.51,1038.76 1104.75,1037.98 1106.98,1037.21 1109.21,1036.43 1111.45,1035.65 1113.68,1034.87 1115.91,1034.09 1118.14,1032.92 1120.38,1032.14 1122.61,1031.36 1124.84,1030.58 1127.08,1029.8 1129.31,1029.02 1131.54,1028.24 1133.78,1027.46 1136.01,1026.68 1138.24,1025.91 1140.47,1025.13 1142.71,1024.35 1144.94,1023.57 1147.17,1022.79 1149.41,1022.01 1151.64,1021.23 1153.87,1020.45 1156.11,1019.67 1158.34,1018.89 1160.57,1018.11 1162.8,1017.34 1165.04,1016.56 1167.27,1015.78 1169.5,1015 1171.74,1014.22 1173.97,1013.44 1176.2,1012.66 1178.44,1011.88 1180.67,1011.1 1182.9,1010.32 1185.13,1009.55 1187.37,1008.77 1189.6,1007.99 1191.83,1007.21 1194.07,1006.43 1196.3,1005.65 1198.53,1004.87 1200.76,1004.09 1203,1003.31 1205.23,1002.53 1207.46,1001.75 1209.7,1000.98 1211.93,1000.2 1214.16,999.417 1216.4,998.639 1218.63,997.859 1220.86,997.081 1223.09,996.301 1225.33,995.522 1227.56,994.743 1229.79,993.964 1232.03,993.185 1234.26,992.406 1236.49,991.627 1238.73,990.848 1240.96,990.069 1243.19,989.29 1245.42,988.511 1247.66,987.731 1249.89,986.953 1252.12,986.173 1254.36,985.002 1256.59,984.223 1258.82,983.444 1261.06,982.665 1263.29,981.886 1265.52,981.107 1267.75,980.328 1269.99,979.549 1272.22,978.77 1274.45,977.991 1276.69,977.211 1278.92,976.433 1281.15,975.653 1283.38,974.874 1285.62,974.095 1287.85,973.316 1290.08,972.537 1292.32,971.758 1294.55,970.979 1296.78,970.2 1299.02,969.421 1301.25,968.642 1303.48,967.863 1305.71,967.083 1307.95,966.305 1310.18,965.525 1312.41,964.747 1314.65,963.967 1316.88,963.188 1319.11,962.409 1321.35,961.63 1323.58,960.851 1325.81,960.072 1328.04,959.293 1330.28,958.514 1332.51,957.735 1334.74,956.956 1336.98,956.177 1339.21,955.398 1341.44,954.619 1343.68,953.84 1345.91,953.061 1348.14,952.282 1350.37,951.502 1352.61,950.724 1354.84,949.944 1357.07,949.166 1359.31,948.386 1361.54,947.607 1363.77,946.828 1366,946.049 1368.24,945.27 1370.47,944.491 1372.7,943.712 1374.94,942.933 1377.17,942.154 1379.4,941.375 1381.64,940.596 1383.87,939.817 1386.1,939.038 1388.33,938.259 1390.57,937.087 1392.8,936.308 1395.03,935.529 1397.27,934.75 1399.5,933.971 1401.73,933.192 1403.97,932.413 1406.2,931.634 1408.43,930.854 1410.66,930.076 1412.9,929.296 1415.13,928.518 1417.36,927.738 1419.6,926.959 1421.83,926.18 1424.06,925.401 1426.3,924.622 1428.53,923.843 1430.76,923.064 1432.99,922.285 1435.23,921.506 1437.46,920.727 1439.69,919.948 1441.93,919.168 1444.16,918.39 1446.39,917.61 1448.62,916.832 1450.86,916.052 1453.09,915.273 1455.32,914.494 1457.56,913.715 1459.79,912.936 1462.02,912.157 1464.26,911.378 1466.49,910.599 1468.72,909.82 1470.96,909.041 1473.19,908.262 1475.42,907.483 1477.65,906.704 1479.89,905.925 1482.12,905.146 1484.35,904.367 1486.59,903.587 1488.82,902.809 1491.05,902.029 1493.28,901.25 1495.52,900.471 1497.75,899.692 1499.98,898.913 1502.22,898.134 1504.45,897.355 1506.68,896.576 1508.92,895.797 1511.15,895.018 1513.38,894.239 1515.61,893.46 1517.85,892.681 1520.08,891.902 1522.31,891.123 1524.55,889.951 1526.78,889.172 1529.01,888.393 1531.25,887.614 1533.48,886.835 1535.71,886.056 1537.94,885.277 1540.18,884.498 1542.41,883.719 1544.64,882.939 1546.88,882.161 1549.11,881.381 1551.34,880.603 1553.58,879.823 1555.81,879.044 1558.04,878.265 1560.27,877.486 1562.51,876.707 1564.74,875.928 1566.97,875.149 1569.21,874.37 1571.44,873.591 1573.67,872.812 1575.9,872.033 1578.14,871.253 1580.37,870.475 1582.6,869.695 1584.84,868.917 1587.07,868.137 1589.3,867.358 1591.54,866.579 1593.77,865.8 1596,865.021 1598.23,864.242 1600.47,863.463 1602.7,862.684 1604.93,861.905 1607.17,861.126 1609.4,860.347 1611.63,859.568 1613.87,858.789 1616.1,858.01 1618.33,857.23 1620.56,856.452 1622.8,855.672 1625.03,854.894 1627.26,854.114 1629.5,853.335 1631.73,852.556 1633.96,851.777 1636.2,850.998 1638.43,850.219 1640.66,849.44 1642.89,848.661 1645.13,847.882 1647.36,847.103 1649.59,846.324 1651.83,845.545 1654.06,844.766 1656.29,843.987 1658.52,843.208 1660.76,842.429 1662.99,841.257 1665.22,840.478 1667.46,839.699 1669.69,838.92 1671.92,838.141 1674.16,837.362 1676.39,836.583 1678.62,835.804 1680.85,835.024 1683.09,834.246 1685.32,833.466 1687.55,832.688 1689.79,831.908 1692.02,831.129 1694.25,830.35 1696.49,829.571 1698.72,828.792 1700.95,828.013 1703.18,827.234 1705.42,826.455 1707.65,825.676 1709.88,824.897 1712.12,824.118 1714.35,823.338 1716.58,822.56 1718.82,821.78 1721.05,821.001 1723.28,820.222 1725.51,819.443 1727.75,818.664 1729.98,817.885 1732.21,817.106 1734.45,816.327 1736.68,815.548 1738.91,814.769 1741.15,813.99 1743.38,813.211 1745.61,812.432 1747.84,811.653 1750.08,810.874 1752.31,810.095 1754.54,809.315 1756.78,808.537 1759.01,807.757 1761.24,806.979 1763.48,806.199 1765.71,805.42 1767.94,804.641 1770.17,803.862 1772.41,803.083 1774.64,802.304 1776.87,801.525 1779.11,800.746 1781.34,799.967 1783.57,799.188 1785.8,798.409 1788.04,797.63 1790.27,796.851 1792.5,796.072 1794.74,795.292 1796.97,794.514 1799.2,793.734 1801.44,792.563 1803.67,791.784 1805.9,791.005 1808.13,790.226 1810.37,789.447 1812.6,788.667 1814.83,787.889 1817.07,787.109 1819.3,786.331 1821.53,785.551 1823.77,784.772 1826,783.993 1828.23,783.214 1830.46,782.435 1832.7,781.656 1834.93,780.877 1837.16,780.098 1839.4,779.319 1841.63,778.54 1843.86,777.761 1846.1,776.981 1848.33,776.203 1850.56,775.424 1852.79,774.645 1855.03,773.866 1857.26,773.086 1859.49,772.307 1861.73,771.528 1863.96,770.749 1866.19,769.97 1868.42,769.191 1870.66,768.412 1872.89,767.633 1875.12,766.854 1877.36,766.075 1879.59,765.296 1881.82,764.517 1884.06,763.738 1886.29,762.958 1888.52,762.18 1890.75,761.4 1892.99,760.622 1895.22,759.842 1897.45,759.063 1899.69,758.284 1901.92,757.505 1904.15,756.726 1906.39,755.947 1908.62,755.168 1910.85,754.389 1913.08,753.61 1915.32,752.831 1917.55,752.052 1919.78,751.273 1922.02,750.494 1924.25,749.715 1926.48,748.936 1928.72,748.157 1930.95,747.377 1933.18,746.599 1935.41,745.819 1937.65,744.648 1939.88,743.869 1942.11,743.09 1944.35,742.311 1946.58,741.532 1948.81,740.752 1951.04,739.974 1953.28,739.194 1955.51,738.416 1957.74,737.636 1959.98,736.857 1962.21,736.078 1964.44,735.299 1966.68,734.52 1968.91,733.741 1971.14,732.962 1973.37,732.183 1975.61,731.404 1977.84,730.625 1980.07,729.846 1982.31,729.067 1984.54,728.288 1986.77,727.508 1989.01,726.729 1991.24,725.95 1993.47,725.171 1995.7,724.393 1997.94,723.613 2000.17,722.834 2002.4,722.055 2004.64,721.276 2006.87,720.497 2009.1,719.718 2011.33,718.939 2013.57,718.16 2015.8,717.381 2018.03,716.602 2020.27,715.823 2022.5,715.043 2024.73,714.265 2026.97,713.485 2029.2,712.707 2031.43,711.927 2033.67,711.148 2035.9,710.369 2038.13,709.59 2040.36,708.811 2042.6,708.032 2044.83,707.253 2047.06,706.474 2049.3,705.695 2051.53,704.916 2053.76,704.137 2056,703.358 2058.23,702.579 2060.46,701.8 2062.69,701.021 2064.93,700.242 2067.16,699.462 2069.39,698.684 2071.63,697.904 2073.86,697.125 2076.09,695.954 2078.32,695.175 2080.56,694.396 2082.79,693.617 2085.02,692.837 2087.26,692.059 2089.49,691.279 2091.72,690.5 2093.96,689.721 2096.19,688.942 2098.42,688.163 2100.65,687.384 2102.89,686.605 2105.12,685.826 2107.35,685.047 2109.59,684.268 2111.82,683.489 2114.05,682.71 2116.29,681.931 2118.52,681.152 2120.75,680.373 2122.98,679.594 2125.22,678.814 2127.45,678.036 2129.68,677.256 2131.92,676.477 2134.15,675.698 2136.38,674.919 2138.62,674.14 2140.85,673.361 2143.08,672.582 2145.31,671.803 2147.55,671.024 2149.78,670.245 2152.01,669.466 2154.25,668.687 2156.48,667.908 2158.71,667.128 2160.94,666.35 2163.18,665.57 2165.41,664.792 2167.64,664.012 2169.88,663.233 2172.11,662.454 2174.34,661.675 2176.58,660.896 2178.81,660.117 2181.04,659.338 2183.27,658.559 2185.51,657.78 2187.74,657.001 2189.97,656.222 2192.21,655.443 2194.44,654.664 2196.67,653.885 2198.91,653.105 2201.14,652.327 2203.37,651.547 2205.6,650.769 2207.84,649.989 2210.07,649.21 2212.3,648.039 2214.54,647.26 2216.77,646.48 2219,645.702 2221.24,644.922 2223.47,644.144 2225.7,643.364 2227.93,642.585 2230.17,641.806 2232.4,641.027 2234.63,640.248 2236.87,639.469 2239.1,638.69 2241.33,637.911 2243.56,637.132 2245.8,636.353 2248.03,635.574 2250.26,634.795 2252.5,634.016 2254.73,633.237 2256.96,632.458 2259.2,631.679 2261.43,630.899 2263.66,630.121 2265.89,629.341 2268.13,628.562 2270.36,627.783 2272.59,627.004 2274.83,626.225 2277.06,625.446 2279.29,624.667 2281.53,623.888 2283.76,623.109 2285.99,622.33 2288.22,621.551 2290.46,620.771 2292.69,619.993 2294.92,619.213 2297.16,618.435 2299.39,617.655 2301.62,616.876 2303.86,616.097 2306.09,615.318 2308.32,614.539 2310.55,613.76 2312.79,612.981 2315.02,612.202 2317.25,611.423 2319.49,610.644 2321.72,609.865 2323.95,609.086 2326.18,608.307 2328.42,607.528 2330.65,606.749 2332.88,605.97 2335.12,605.19 2337.35,604.412 2339.58,603.632 2341.82,602.854 2344.05,602.074 2346.28,601.295 2348.51,600.516 2350.75,599.345 2352.98,598.565 2355.21,597.787 2357.45,597.007 2359.68,596.229 2361.91,595.449 2364.15,594.67 2366.38,593.891 2368.61,593.112 2370.84,592.333 2373.08,591.554 2375.31,590.775 2377.54,589.996 2379.78,589.217 2382.01,588.438 2384.24,587.659 2386.48,586.88 2388.71,586.101 2390.94,585.322 2393.17,584.542 2395.41,583.764 2397.64,582.984 2399.87,582.206 2402.11,581.426 2404.34,580.647 2406.57,579.868 2408.8,579.089 2411.04,578.31 2413.27,577.531 2415.5,576.752 2417.74,575.973 2419.97,575.194 2422.2,574.415 2424.44,573.636 2426.67,572.856 2428.9,572.078 2431.13,571.298 2433.37,570.52 2435.6,569.74 2437.83,568.961 2440.07,568.182 2442.3,567.403 2444.53,566.624 2446.77,565.845 2449,565.066 2451.23,564.287 2453.46,563.508 2455.7,562.729 2457.93,561.95 2460.16,561.171 2462.4,560.392 2464.63,559.613 2466.86,558.833 2469.1,558.055 2471.33,557.275 2473.56,556.497 2475.79,555.717 2478.03,554.938 2480.26,554.159 2482.49,553.38 2484.73,552.601 2486.96,551.43 2489.19,550.65 2491.42,549.872 2493.66,549.092 2495.89,548.313 2498.12,547.534 2500.36,546.755 2502.59,545.976 2504.82,545.197 2507.06,544.418 2509.29,543.639 2511.52,542.86 2513.75,542.081 2515.99,541.302 2518.22,540.523 2520.45,539.744 2522.69,538.965 2524.92,538.186 2527.15,537.407 2529.39,536.627 2531.62,535.849 2533.85,535.069 2536.08,534.291 2538.32,533.511 2540.55,532.732 2542.78,531.953 2545.02,531.174 2547.25,530.395 2549.48,529.616 2551.72,528.837 2553.95,528.058 2556.18,527.279 2558.41,526.5 2560.65,525.721 2562.88,524.941 2565.11,524.163 2567.35,523.383 2569.58,522.604 2571.81,521.825 2574.04,521.046 2576.28,520.267 2578.51,519.488 2580.74,518.709 2582.98,517.93 2585.21,517.151 2587.44,516.372 2589.68,515.593 2591.91,514.814 2594.14,514.035 2596.38,513.256 2598.61,512.477 2600.84,511.698 2603.07,510.918 2605.31,510.14 2607.54,509.36" stroke="#ecb01f"/>
   <polyline fill="none" stroke-linecap="butt" stroke-width="0.5" stroke-linejoin="round" points="376.797,1295.97 379.03,1295.58 381.263,1295.2 383.496,1294.81 385.729,1294.42 387.962,1294.04 390.194,1293.65 392.428,1293.27 394.661,1292.88 396.894,1292.49 399.126,1292.11 401.359,1291.72 403.593,1291.33 405.825,1290.95 408.059,1290.56 410.292,1290.17 412.524,1289.79 414.757,1289.4 416.99,1289.01 419.223,1288.63 421.457,1288.24 423.689,1287.85 425.922,1287.47 428.155,1287.08 430.388,1286.69 432.621,1286.31 434.854,1283.44 437.087,1283.05 439.32,1282.67 441.553,1282.28 443.786,1281.89 446.019,1281.51 448.252,1281.12 450.485,1280.73 452.718,1280.35 454.951,1279.96 457.184,1279.58 459.417,1279.19 461.65,1278.8 463.883,1278.42 466.116,1278.03 468.349,1277.64 470.582,1277.26 472.815,1276.87 475.048,1276.48 477.281,1276.1 479.514,1275.71 481.747,1275.32 483.979,1274.94 486.212,1274.55 488.445,1274.16 490.679,1273.78 492.912,1273.39 495.145,1273 497.377,1272.62 499.61,1272.23 501.843,1271.84 504.077,1271.46 506.31,1271.07 508.542,1270.68 510.775,1270.3 513.008,1269.91 515.241,1269.52 517.474,1269.14 519.707,1268.75 521.94,1268.36 524.173,1267.98 526.406,1267.59 528.639,1267.21 530.872,1266.82 533.105,1266.43 535.338,1266.05 537.571,1265.66 539.804,1265.27 542.037,1264.89 544.27,1264.5 546.503,1264.11 548.736,1263.73 550.969,1263.34 553.202,1262.95 555.435,1262.57 557.668,1262.18 559.901,1261.79 562.134,1261.41 564.367,1261.02 566.6,1260.63 568.833,1260.25 571.065,1259.47 573.299,1259.08 575.532,1258.7 577.765,1258.31 579.998,1257.92 582.23,1257.54 584.463,1257.15 586.697,1256.76 588.93,1256.38 591.163,1255.99 593.396,1255.6 595.628,1255.22 597.861,1254.83 600.094,1254.44 602.327,1254.06 604.561,1253.67 606.793,1253.28 609.026,1252.9 611.259,1252.51 613.492,1252.12 615.725,1251.74 617.958,1251.35 620.191,1250.96 622.424,1250.58 624.657,1250.19 626.89,1249.8 629.123,1249.42 631.356,1249.03 633.589,1248.64 635.822,1248.26 638.055,1247.87 640.288,1247.48 642.521,1247.1 644.754,1246.71 646.987,1246.33 649.22,1245.94 651.453,1245.55 653.686,1245.17 655.919,1244.78 658.152,1244.39 660.385,1244.01 662.618,1243.62 664.851,1243.23 667.083,1242.85 669.316,1242.46 671.55,1242.07 673.783,1241.69 676.016,1241.3 678.249,1240.91 680.481,1240.53 682.714,1240.14 684.947,1239.75 687.181,1239.37 689.414,1238.98 691.646,1238.59 693.879,1238.21 696.112,1237.82 698.345,1237.43 700.578,1237.05 702.812,1236.66 705.044,1236.27 707.277,1235.5 709.51,1235.11 711.743,1234.72 713.976,1234.34 716.209,1233.95 718.442,1233.56 720.675,1233.18 722.908,1232.79 725.141,1232.4 727.374,1232.02 729.607,1231.63 731.84,1231.24 734.073,1230.86 736.306,1230.47 738.539,1230.08 740.772,1229.7 743.005,1229.31 745.238,1228.92 747.471,1228.54 749.704,1228.15 751.937,1227.76 754.17,1227.38 756.403,1226.99 758.636,1226.6 760.869,1226.22 763.102,1225.83 765.334,1225.45 767.567,1225.06 769.801,1224.67 772.034,1224.29 774.267,1223.9 776.5,1223.51 778.732,1223.13 780.965,1222.74 783.198,1222.35 785.432,1221.97 787.665,1221.58 789.897,1221.19 792.13,1220.81 794.363,1220.42 796.596,1220.03 798.829,1219.65 801.062,1219.26 803.295,1218.87 805.528,1218.49 807.761,1218.1 809.994,1217.71 812.227,1217.33 814.46,1216.94 816.693,1216.55 818.926,1216.17 821.159,1215.78 823.392,1215.4 825.625,1215.01 827.858,1214.62 830.091,1214.24 832.324,1213.85 834.557,1213.46 836.79,1213.08 839.023,1212.69 841.256,1212.3 843.489,1211.52 845.722,1211.14 847.955,1210.75 850.188,1210.36 852.421,1209.98 854.654,1209.59 856.887,1209.2 859.12,1208.82 861.353,1208.43 863.585,1208.04 865.818,1207.66 868.052,1207.27 870.285,1206.88 872.518,1206.5 874.75,1206.11 876.983,1205.73 879.216,1205.34 881.449,1204.95 883.683,1204.57 885.916,1204.18 888.148,1203.79 890.381,1203.41 892.614,1203.02 894.847,1202.63 897.08,1202.25 899.313,1201.86 901.546,1201.47 903.779,1201.09 906.012,1200.7 908.245,1200.31 910.478,1199.93 912.711,1199.54 914.944,1199.15 917.177,1198.77 919.41,1198.38 921.643,1197.99 923.876,1197.61 926.109,1197.22 928.342,1196.83 930.575,1196.45 932.808,1196.06 935.041,1195.67 937.274,1195.29 939.507,1194.9 941.74,1194.52 943.973,1194.13 946.206,1193.74 948.438,1193.36 950.671,1192.97 952.905,1192.58 955.138,1192.2 957.371,1191.81 959.604,1191.42 961.836,1191.04 964.069,1190.65 966.302,1190.26 968.536,1189.88 970.769,1189.49 973.001,1189.1 975.234,1188.72 977.467,1188.33 979.7,1187.55 981.933,1187.16 984.166,1186.78 986.399,1186.39 988.632,1186 990.865,1185.62 993.098,1185.23 995.331,1184.85 997.564,1184.46 999.797,1184.07 1002.03,1183.69 1004.26,1183.3 1006.5,1182.91 1008.73,1182.53 1010.96,1182.14 1013.19,1181.75 1015.43,1181.37 1017.66,1180.98 1019.89,1180.59 1022.13,1180.21 1024.36,1179.82 1026.59,1179.43 1028.83,1179.05 1031.06,1178.66 1033.29,1178.27 1035.52,1177.89 1037.76,1177.5 1039.99,1177.11 1042.22,1176.73 1044.46,1176.34 1046.69,1175.95 1048.92,1175.57 1051.16,1175.18 1053.39,1174.79 1055.62,1174.41 1057.85,1174.02 1060.09,1173.64 1062.32,1173.25 1064.55,1172.86 1066.79,1172.48 1069.02,1172.09 1071.25,1171.7 1073.49,1171.32 1075.72,1170.93 1077.95,1170.54 1080.18,1170.16 1082.42,1169.77 1084.65,1169.38 1086.88,1169 1089.12,1168.61 1091.35,1168.22 1093.58,1167.84 1095.81,1167.45 1098.05,1167.06 1100.28,1166.68 1102.51,1166.29 1104.75,1165.9 1106.98,1165.52 1109.21,1165.13 1111.45,1164.74 1113.68,1164.36 1115.91,1163.97 1118.14,1163.19 1120.38,1162.81 1122.61,1162.42 1124.84,1162.03 1127.08,1161.65 1129.31,1161.26 1131.54,1160.87 1133.78,1160.49 1136.01,1160.1 1138.24,1159.71 1140.47,1159.33 1142.71,1158.94 1144.94,1158.55 1147.17,1158.17 1149.41,1157.78 1151.64,1157.39 1153.87,1157.01 1156.11,1156.62 1158.34,1156.23 1160.57,1155.85 1162.8,1155.46 1165.04,1155.07 1167.27,1154.69 1169.5,1154.3 1171.74,1153.92 1173.97,1153.53 1176.2,1153.14 1178.44,1152.75 1180.67,1152.37 1182.9,1151.98 1185.13,1151.6 1187.37,1151.21 1189.6,1150.82 1191.83,1150.44 1194.07,1150.05 1196.3,1149.66 1198.53,1149.28 1200.76,1148.89 1203,1148.5 1205.23,1148.12 1207.46,1147.73 1209.7,1147.34 1211.93,1146.96 1214.16,1146.57 1216.4,1146.18 1218.63,1145.8 1220.86,1145.41 1223.09,1145.02 1225.33,1144.64 1227.56,1144.25 1229.79,1143.86 1232.03,1143.48 1234.26,1143.09 1236.49,1142.7 1238.73,1142.32 1240.96,1141.93 1243.19,1141.54 1245.42,1141.16 1247.66,1140.77 1249.89,1140.39 1252.12,1140 1254.36,1139.22 1256.59,1138.83 1258.82,1138.45 1261.06,1138.06 1263.29,1137.67 1265.52,1137.29 1267.75,1136.9 1269.99,1136.51 1272.22,1136.13 1274.45,1135.74 1276.69,1135.35 1278.92,1134.97 1281.15,1134.58 1283.38,1134.19 1285.62,1133.81 1287.85,1133.42 1290.08,1133.03 1292.32,1132.65 1294.55,1132.26 1296.78,1131.88 1299.02,1131.49 1301.25,1131.1 1303.48,1130.72 1305.71,1130.33 1307.95,1129.94 1310.18,1129.56 1312.41,1129.17 1314.65,1128.78 1316.88,1128.4 1319.11,1128.01 1321.35,1127.62 1323.58,1127.24 1325.81,1126.85 1328.04,1126.46 1330.28,1126.08 1332.51,1125.69 1334.74,1125.3 1336.98,1124.92 1339.21,1124.53 1341.44,1124.14 1343.68,1123.76 1345.91,1123.37 1348.14,1122.98 1350.37,1122.6 1352.61,1122.21 1354.84,1121.82 1357.07,1121.44 1359.31,1121.05 1361.54,1120.67 1363.77,1120.28 1366,1119.89 1368.24,1119.51 1370.47,1119.12 1372.7,1118.73 1374.94,1118.35 1377.17,1117.96 1379.4,1117.57 1381.64,1117.19 1383.87,1116.8 1386.1,1116.41 1388.33,1116.03 1390.57,1115.25 1392.8,1114.86 1395.03,1114.47 1397.27,1114.09 1399.5,1113.7 1401.73,1113.31 1403.97,1112.93 1406.2,1112.54 1408.43,1112.15 1410.66,1111.77 1412.9,1111.38 1415.13,1111 1417.36,1110.61 1419.6,1110.22 1421.83,1109.84 1424.06,1109.45 1426.3,1109.06 1428.53,1108.68 1430.76,1108.29 1432.99,1107.9 1435.23,1107.52 1437.46,1107.13 1439.69,1106.74 1441.93,1106.36 1444.16,1105.97 1446.39,1105.58 1448.62,1105.2 1450.86,1104.81 1453.09,1104.42 1455.32,1104.04 1457.56,1103.65 1459.79,1103.26 1462.02,1102.88 1464.26,1102.49 1466.49,1102.1 1468.72,1101.72 1470.96,1101.33 1473.19,1100.94 1475.42,1100.56 1477.65,1100.17 1479.89,1099.79 1482.12,1099.4 1484.35,1099.01 1486.59,1098.63 1488.82,1098.24 1491.05,1097.85 1493.28,1097.47 1495.52,1097.08 1497.75,1096.69 1499.98,1096.31 1502.22,1095.92 1504.45,1095.53 1506.68,1095.15 1508.92,1094.76 1511.15,1094.37 1513.38,1093.99 1515.61,1093.6 1517.85,1093.21 1520.08,1092.83 1522.31,1092.44 1524.55,1091.66 1526.78,1091.27 1529.01,1090.89 1531.25,1090.5 1533.48,1090.12 1535.71,1089.73 1537.94,1089.34 1540.18,1088.96 1542.41,1088.57 1544.64,1088.18 1546.88,1087.8 1549.11,1087.41 1551.34,1087.02 1553.58,1086.64 1555.81,1086.25 1558.04,1085.86 1560.27,1085.48 1562.51,1085.09 1564.74,1084.7 1566.97,1084.32 1569.21,1083.93 1571.44,1083.54 1573.67,1083.16 1575.9,1082.77 1578.14,1082.38 1580.37,1082 1582.6,1081.61 1584.84,1081.22 1587.07,1080.84 1589.3,1080.45 1591.54,1080.06 1593.77,1079.68 1596,1079.29 1598.23,1078.91 1600.47,1078.52 1602.7,1078.13 1604.93,1077.75 1607.17,1077.36 1609.4,1076.97 1611.63,1076.59 1613.87,1076.2 1616.1,1075.81 1618.33,1075.43 1620.56,1075.04 1622.8,1074.65 1625.03,1074.27 1627.26,1073.88 1629.5,1073.49 1631.73,1073.11 1633.96,1072.72 1636.2,1072.33 1638.43,1071.95 1640.66,1071.56 1642.89,1071.17 1645.13,1070.79 1647.36,1070.4 1649.59,1070.01 1651.83,1069.63 1654.06,1069.24 1656.29,1068.85 1658.52,1068.47 1660.76,1068.08 1662.99,1067.3 1665.22,1066.92 1667.46,1066.53 1669.69,1066.14 1671.92,1065.76 1674.16,1065.37 1676.39,1064.98 1678.62,1064.6 1680.85,1064.21 1683.09,1063.82 1685.32,1063.44 1687.55,1063.05 1689.79,1062.66 1692.02,1062.28 1694.25,1061.89 1696.49,1061.5 1698.72,1061.12 1700.95,1060.73 1703.18,1060.34 1705.42,1059.96 1707.65,1059.57 1709.88,1059.19 1712.12,1058.8 1714.35,1058.41 1716.58,1058.03 1718.82,1057.64 1721.05,1057.25 1723.28,1056.87 1725.51,1056.48 1727.75,1056.09 1729.98,1055.71 1732.21,1055.32 1734.45,1054.93 1736.68,1054.55 1738.91,1054.16 1741.15,1053.77 1743.38,1053.39 1745.61,1053 1747.84,1052.61 1750.08,1052.23 1752.31,1051.45 1754.54,1051.45 1756.78,1051.07 1759.01,1050.68 1761.24,1050.29 1763.48,1049.91 1765.71,1049.52 1767.94,1049.13 1770.17,1048.75 1772.41,1048.36 1774.64,1047.97 1776.87,1047.59 1779.11,1047.2 1781.34,1046.82 1783.57,1046.43 1785.8,1046.04 1788.04,1045.66 1790.27,1045.27 1792.5,1044.88 1794.74,1044.5 1796.97,1044.11 1799.2,1043.72 1801.44,1042.94 1803.67,1042.56 1805.9,1042.17 1808.13,1041.78 1810.37,1041.4 1812.6,1041.01 1814.83,1040.62 1817.07,1040.24 1819.3,1039.85 1821.53,1039.46 1823.77,1039.08 1826,1038.69 1828.23,1038.31 1830.46,1037.92 1832.7,1037.53 1834.93,1037.15 1837.16,1036.76 1839.4,1036.37 1841.63,1035.99 1843.86,1035.6 1846.1,1035.21 1848.33,1034.83 1850.56,1034.44 1852.79,1034.05 1855.03,1033.67 1857.26,1033.28 1859.49,1032.89 1861.73,1032.51 1863.96,1032.12 1866.19,1031.73 1868.42,1031.35 1870.66,1030.96 1872.89,1030.57 1875.12,1030.19 1877.36,1029.8 1879.59,1029.41 1881.82,1029.03 1884.06,1028.64 1886.29,1028.25 1888.52,1027.87 1890.75,1027.48 1892.99,1027.09 1895.22,1026.71 1897.45,1026.32 1899.69,1025.94 1901.92,1025.55 1904.15,1025.16 1906.39,1024.78 1908.62,1024.39 1910.85,1024 1913.08,1023.62 1915.32,1023.23 1917.55,1022.84 1919.78,1022.46 1922.02,1022.07 1924.25,1021.68 1926.48,1021.3 1928.72,1020.91 1930.95,1020.52 1933.18,1020.14 1935.41,1019.75 1937.65,1018.97 1939.88,1018.58 1942.11,1018.2 1944.35,1017.81 1946.58,1017.43 1948.81,1017.04 1951.04,1016.65 1953.28,1016.27 1955.51,1015.88 1957.74,1015.49 1959.98,1015.11 1962.21,1014.72 1964.44,1014.33 1966.68,1013.95 1968.91,1013.56 1971.14,1013.17 1973.37,1012.79 1975.61,1012.4 1977.84,1012.01 1980.07,1011.63 1982.31,1011.24 1984.54,1010.85 1986.77,1010.47 1989.01,1010.08 1991.24,1009.69 1993.47,1009.31 1995.7,1008.92 1997.94,1008.53 2000.17,1008.15 2002.4,1007.76 2004.64,1007.37 2006.87,1006.99 2009.1,1006.6 2011.33,1006.21 2013.57,1005.83 2015.8,1005.44 2018.03,1005.06 2020.27,1004.67 2022.5,1004.28 2024.73,1003.9 2026.97,1003.51 2029.2,1003.12 2031.43,1002.74 2033.67,1002.35 2035.9,1001.96 2038.13,1001.58 2040.36,1001.19 2042.6,1000.8 2044.83,1000.42 2047.06,1000.03 2049.3,999.644 2051.53,999.257 2053.76,998.871 2056,998.484 2058.23,998.097 2060.46,997.711 2062.69,997.324 2064.93,996.938 2067.16,996.551 2069.39,996.165 2071.63,995.778 2073.86,995.392 2076.09,994.612 2078.32,994.226 2080.56,993.839 2082.79,993.453 2085.02,993.066 2087.26,992.68 2089.49,992.293 2091.72,991.906 2093.96,991.52 2096.19,991.133 2098.42,990.747 2100.65,990.36 2102.89,989.974 2105.12,989.587 2107.35,989.201 2109.59,988.814 2111.82,988.428 2114.05,988.041 2116.29,987.654 2118.52,987.268 2120.75,986.881 2122.98,986.495 2125.22,986.108 2127.45,985.722 2129.68,985.335 2131.92,984.948 2134.15,984.562 2136.38,984.175 2138.62,983.789 2140.85,983.402 2143.08,983.016 2145.31,982.629 2147.55,982.243 2149.78,981.856 2152.01,981.47 2154.25,981.083 2156.48,980.696 2158.71,980.31 2160.94,979.923 2163.18,979.537 2165.41,979.15 2167.64,978.764 2169.88,978.377 2172.11,977.991 2174.34,977.604 2176.58,977.217 2178.81,976.831 2181.04,976.444 2183.27,976.058 2185.51,975.671 2187.74,975.285 2189.97,974.898 2192.21,974.512 2194.44,974.125 2196.67,973.738 2198.91,973.352 2201.14,972.965 2203.37,972.579 2205.6,972.192 2207.84,971.806 2210.07,971.419 2212.3,970.64 2214.54,970.253 2216.77,969.867 2219,969.48 2221.24,969.094 2223.47,968.707 2225.7,968.321 2227.93,967.934 2230.17,967.547 2232.4,967.161 2234.63,966.774 2236.87,966.388 2239.1,966.001 2241.33,965.615 2243.56,965.228 2245.8,964.842 2248.03,964.455 2250.26,964.068 2252.5,963.682 2254.73,963.295 2256.96,962.909 2259.2,962.522 2261.43,962.136 2263.66,961.749 2265.89,961.363 2268.13,960.976 2270.36,960.589 2272.59,960.203 2274.83,959.816 2277.06,959.43 2279.29,959.043 2281.53,958.657 2283.76,958.27 2285.99,957.884 2288.22,957.497 2290.46,957.11 2292.69,956.724 2294.92,956.337 2297.16,955.951 2299.39,955.564 2301.62,955.178 2303.86,954.791 2306.09,954.405 2308.32,954.018 2310.55,953.631 2312.79,953.245 2315.02,952.858 2317.25,952.472 2319.49,952.085 2321.72,951.699 2323.95,951.312 2326.18,950.926 2328.42,950.539 2330.65,950.152 2332.88,949.766 2335.12,949.379 2337.35,948.993 2339.58,948.606 2341.82,948.22 2344.05,947.833 2346.28,947.447 2348.51,947.06 2350.75,946.281 2352.98,945.895 2355.21,945.508 2357.45,945.122 2359.68,944.735 2361.91,944.348 2364.15,943.962 2366.38,943.575 2368.61,943.188 2370.84,942.802 2373.08,942.416 2375.31,942.029 2377.54,941.643 2379.78,941.256 2382.01,940.869 2384.24,940.483 2386.48,940.096 2388.71,939.709 2390.94,939.323 2393.17,938.937 2395.41,938.55 2397.64,938.164 2399.87,937.777 2402.11,937.39 2404.34,937.004 2406.57,936.617 2408.8,936.23 2411.04,935.844 2413.27,935.458 2415.5,935.071 2417.74,934.685 2419.97,934.298 2422.2,933.911 2424.44,933.525 2426.67,933.138 2428.9,932.751 2431.13,932.365 2433.37,931.979 2435.6,931.592 2437.83,931.206 2440.07,930.819 2442.3,930.432 2444.53,930.046 2446.77,929.659 2449,929.272 2451.23,928.886 2453.46,928.5 2455.7,928.113 2457.93,927.727 2460.16,927.34 2462.4,926.953 2464.63,926.567 2466.86,926.18 2469.1,925.793 2471.33,925.407 2473.56,925.021 2475.79,924.634 2478.03,924.248 2480.26,923.861 2482.49,923.474 2484.73,923.088 2486.96,922.309 2489.19,921.922 2491.42,921.536 2493.66,921.149 2495.89,920.763 2498.12,920.376 2500.36,919.989 2502.59,919.603 2504.82,919.216 2507.06,918.83 2509.29,918.443 2511.52,918.057 2513.75,917.67 2515.99,917.284 2518.22,916.897 2520.45,916.51 2522.69,916.124 2524.92,915.737 2527.15,915.351 2529.39,914.964 2531.62,914.578 2533.85,914.191 2536.08,913.805 2538.32,913.418 2540.55,913.031 2542.78,912.645 2545.02,912.258 2547.25,911.872 2549.48,911.485 2551.72,911.099 2553.95,910.712 2556.18,910.325 2558.41,909.939 2560.65,909.552 2562.88,909.166 2565.11,908.779 2567.35,908.393 2569.58,908.006 2571.81,907.62 2574.04,907.233 2576.28,906.847 2578.51,906.46 2580.74,906.073 2582.98,905.687 2585.21,905.3 2587.44,904.914 2589.68,904.527 2591.91,904.141 2594.14,903.754 2596.38,903.368 2598.61,902.981 2600.84,902.594 2603.07,902.208 2605.31,901.821 2607.54,901.435" stroke="#7d2e8d"/>
   <polyline fill="none" stroke-linecap="butt" stroke-width="0.5" stroke-linejoin="round" points="376.797,1296.05 379.03,1296.05 381.263,1296.05 383.496,1296.05 385.729,1296.05 387.962,1296.05 390.194,1296.05 392.428,1296.05 394.661,1296.05 396.894,1296.05 399.126,1296.05 401.359,1296.05 403.593,1296.05 405.825,1296.05 408.059,1296.05 410.292,1296.05 412.524,1296.05 414.757,1296.05 416.99,1296.05 419.223,1296.05 421.457,1296.05 423.689,1296.05 425.922,1296.05 428.155,1296.05 430.388,1296.05 432.621,1296.05 434.854,1293.54 437.087,1293.54 439.32,1293.54 441.553,1293.54 443.786,1293.54 446.019,1293.54 448.252,1293.54 450.485,1293.54 452.718,1293.54 454.951,1293.54 457.184,1293.54 459.417,1293.54 461.65,1293.54 463.883,1293.54 466.116,1293.54 468.349,1293.54 470.582,1293.54 472.815,1293.54 475.048,1293.54 477.281,1293.54 479.514,1293.54 481.747,1293.54 483.979,1293.54 486.212,1293.54 488.445,1293.54 490.679,1293.54 492.912,1293.54 495.145,1293.54 497.377,1293.54 499.61,1293.54 501.843,1293.54 504.077,1293.54 506.31,1293.54 508.542,1293.54 510.775,1293.54 513.008,1293.54 515.241,1293.54 517.474,1293.54 519.707,1293.54 521.94,1293.54 524.173,1293.54 526.406,1293.54 528.639,1293.54 530.872,1293.54 533.105,1293.54 535.338,1293.54 537.571,1293.54 539.804,1293.54 542.037,1293.54 544.27,1293.54 546.503,1293.54 548.736,1293.54 550.969,1293.54 553.202,1293.54 555.435,1293.54 557.668,1293.54 559.901,1293.54 562.134,1293.54 564.367,1293.54 566.6,1293.54 568.833,1293.54 571.065,1293.15 573.299,1293.15 575.532,1293.15 577.765,1293.15 579.998,1293.15 582.23,1293.15 584.463,1293.15 586.697,1293.15 588.93,1293.15 591.163,1293.15 593.396,1293.15 595.628,1293.15 597.861,1293.15 600.094,1293.15 602.327,1293.15 604.561,1293.15 606.793,1293.15 609.026,1293.15 611.259,1293.15 613.492,1293.15 615.725,1293.15 617.958,1293.15 620.191,1293.15 622.424,1293.15 624.657,1293.15 626.89,1293.15 629.123,1293.15 631.356,1293.15 633.589,1293.15 635.822,1293.15 638.055,1293.15 640.288,1293.15 642.521,1293.15 644.754,1293.15 646.987,1293.15 649.22,1293.15 651.453,1293.15 653.686,1293.15 655.919,1293.15 658.152,1293.15 660.385,1293.15 662.618,1293.15 664.851,1293.15 667.083,1293.15 669.316,1293.15 671.55,1293.15 673.783,1293.15 676.016,1293.15 678.249,1293.15 680.481,1293.15 682.714,1293.15 684.947,1293.15 687.181,1293.15 689.414,1293.15 691.646,1293.15 693.879,1293.15 696.112,1293.15 698.345,1293.15 700.578,1293.15 702.812,1293.15 705.044,1293.15 707.277,1292.76 709.51,1292.76 711.743,1292.76 713.976,1292.76 716.209,1292.76 718.442,1292.76 720.675,1292.76 722.908,1292.76 725.141,1292.76 727.374,1292.76 729.607,1292.76 731.84,1292.76 734.073,1292.76 736.306,1292.76 738.539,1292.76 740.772,1292.76 743.005,1292.76 745.238,1292.76 747.471,1292.76 749.704,1292.76 751.937,1292.76 754.17,1292.76 756.403,1292.76 758.636,1292.76 760.869,1292.76 763.102,1292.76 765.334,1292.76 767.567,1292.76 769.801,1292.76 772.034,1292.76 774.267,1292.76 776.5,1292.76 778.732,1292.76 780.965,1292.76 783.198,1292.76 785.432,1292.76 787.665,1292.76 789.897,1292.76 792.13,1292.76 794.363,1292.76 796.596,1292.76 798.829,1292.76 801.062,1292.76 803.295,1292.76 805.528,1292.76 807.761,1292.76 809.994,1292.76 812.227,1292.76 814.46,1292.76 816.693,1292.76 818.926,1292.76 821.159,1292.76 823.392,1292.76 825.625,1292.76 827.858,1292.76 830.091,1292.76 832.324,1292.76 834.557,1292.76 836.79,1292.76 839.023,1292.76 841.256,1292.76 843.489,1292.37 845.722,1292.37 847.955,1292.37 850.188,1292.37 852.421,1292.37 854.654,1292.37 856.887,1292.37 859.12,1292.37 861.353,1292.37 863.585,1292.37 865.818,1292.37 868.052,1292.37 870.285,1292.37 872.518,1292.37 874.75,1292.37 876.983,1292.37 879.216,1292.37 881.449,1292.37 883.683,1292.37 885.916,1292.37 888.148,1292.37 890.381,1292.37 892.614,1292.37 894.847,1292.37 897.08,1292.37 899.313,1292.37 901.546,1292.37 903.779,1292.37 906.012,1292.37 908.245,1292.37 910.478,1292.37 912.711,1292.37 914.944,1292.37 917.177,1292.37 919.41,1292.37 921.643,1292.37 923.876,1292.37 926.109,1292.37 928.342,1292.37 930.575,1292.37 932.808,1292.37 935.041,1292.37 937.274,1292.37 939.507,1292.37 941.74,1292.37 943.973,1292.37 946.206,1292.37 948.438,1292.37 950.671,1292.37 952.905,1292.37 955.138,1292.37 957.371,1292.37 959.604,1292.37 961.836,1292.37 964.069,1292.37 966.302,1292.37 968.536,1292.37 970.769,1292.37 973.001,1292.37 975.234,1292.37 977.467,1292.37 979.7,1291.97 981.933,1291.97 984.166,1291.97 986.399,1291.97 988.632,1291.97 990.865,1291.97 993.098,1291.97 995.331,1291.97 997.564,1291.97 999.797,1291.97 1002.03,1291.97 1004.26,1291.97 1006.5,1291.97 1008.73,1291.97 1010.96,1291.97 1013.19,1291.97 1015.43,1291.97 1017.66,1291.97 1019.89,1291.97 1022.13,1291.97 1024.36,1291.97 1026.59,1291.97 1028.83,1291.97 1031.06,1291.97 1033.29,1291.97 1035.52,1291.97 1037.76,1291.97 1039.99,1291.97 1042.22,1291.97 1044.46,1291.97 1046.69,1291.97 1048.92,1291.97 1051.16,1291.97 1053.39,1291.97 1055.62,1291.97 1057.85,1291.97 1060.09,1291.97 1062.32,1291.97 1064.55,1291.97 1066.79,1291.97 1069.02,1291.97 1071.25,1291.97 1073.49,1291.97 1075.72,1291.97 1077.95,1291.97 1080.18,1291.97 1082.42,1291.97 1084.65,1291.97 1086.88,1291.97 1089.12,1291.97 1091.35,1291.97 1093.58,1291.97 1095.81,1291.97 1098.05,1291.97 1100.28,1291.97 1102.51,1291.97 1104.75,1291.97 1106.98,1291.97 1109.21,1291.97 1111.45,1291.97 1113.68,1291.97 1115.91,1291.97 1118.14,1291.58 1120.38,1291.58 1122.61,1291.58 1124.84,1291.58 1127.08,1291.58 1129.31,1291.58 1131.54,1291.58 1133.78,1291.58 1136.01,1291.58 1138.24,1291.58 1140.47,1291.58 1142.71,1291.58 1144.94,1291.58 1147.17,1291.58 1149.41,1291.58 1151.64,1291.58 1153.87,1291.58 1156.11,1291.58 1158.34,1291.58 1160.57,1291.58 1162.8,1291.58 1165.04,1291.58 1167.27,1291.58 1169.5,1291.58 1171.74,1291.58 1173.97,1291.58 1176.2,1291.58 1178.44,1291.58 1180.67,1291.58 1182.9,1291.58 1185.13,1291.58 1187.37,1291.58 1189.6,1291.58 1191.83,1291.58 1194.07,1291.58 1196.3,1291.58 1198.53,1291.58 1200.76,1291.58 1203,1291.58 1205.23,1291.58 1207.46,1291.58 1209.7,1291.58 1211.93,1291.58 1214.16,1291.58 1216.4,1291.58 1218.63,1291.58 1220.86,1291.58 1223.09,1291.58 1225.33,1291.58 1227.56,1291.58 1229.79,1291.58 1232.03,1291.58 1234.26,1291.58 1236.49,1291.58 1238.73,1291.58 1240.96,1291.58 1243.19,1291.58 1245.42,1291.58 1247.66,1291.58 1249.89,1291.58 1252.12,1291.58 1254.36,1291.19 1256.59,1291.19 1258.82,1291.19 1261.06,1291.19 1263.29,1291.19 1265.52,1291.19 1267.75,1291.19 1269.99,1291.19 1272.22,1291.19 1274.45,1291.19 1276.69,1291.19 1278.92,1291.19 1281.15,1291.19 1283.38,1291.19 1285.62,1291.19 1287.85,1291.19 1290.08,1291.19 1292.32,1291.19 1294.55,1291.19 1296.78,1291.19 1299.02,1291.19 1301.25,1291.19 1303.48,1291.19 1305.71,1291.19 1307.95,1291.19 1310.18,1291.19 1312.41,1291.19 1314.65,1291.19 1316.88,1291.19 1319.11,1291.19 1321.35,1291.19 1323.58,1291.19 1325.81,1291.19 1328.04,1291.19 1330.28,1291.19 1332.51,1291.19 1334.74,1291.19 1336.98,1291.19 1339.21,1291.19 1341.44,1291.19 1343.68,1291.19 1345.91,1291.19 1348.14,1291.19 1350.37,1291.19 1352.61,1291.19 1354.84,1291.19 1357.07,1291.19 1359.31,1291.19 1361.54,1291.19 1363.77,1291.19 1366,1291.19 1368.24,1291.19 1370.47,1291.19 1372.7,1291.19 1374.94,1291.19 1377.17,1291.19 1379.4,1291.19 1381.64,1291.19 1383.87,1291.19 1386.1,1291.19 1388.33,1291.19 1390.57,1290.8 1392.8,1290.8 1395.03,1290.8 1397.27,1290.8 1399.5,1290.8 1401.73,1290.8 1403.97,1290.8 1406.2,1290.8 1408.43,1290.8 1410.66,1290.8 1412.9,1290.8 1415.13,1290.8 1417.36,1290.8 1419.6,1290.8 1421.83,1290.8 1424.06,1290.8 1426.3,1290.8 1428.53,1290.8 1430.76,1290.8 1432.99,1290.8 1435.23,1290.8 1437.46,1290.8 1439.69,1290.8 1441.93,1290.8 1444.16,1290.8 1446.39,1290.8 1448.62,1290.8 1450.86,1290.8 1453.09,1290.8 1455.32,1290.8 1457.56,1290.8 1459.79,1290.8 1462.02,1290.8 1464.26,1290.8 1466.49,1290.8 1468.72,1290.8 1470.96,1290.8 1473.19,1290.8 1475.42,1290.8 1477.65,1290.8 1479.89,1290.8 1482.12,1290.8 1484.35,1290.8 1486.59,1290.8 1488.82,1290.8 1491.05,1290.8 1493.28,1290.8 1495.52,1290.8 1497.75,1290.8 1499.98,1290.8 1502.22,1290.8 1504.45,1290.8 1506.68,1290.8 1508.92,1290.8 1511.15,1290.8 1513.38,1290.8 1515.61,1290.8 1517.85,1290.8 1520.08,1290.8 1522.31,1290.8 1524.55,1290.4 1526.78,1290.4 1529.01,1290.4 1531.25,1290.4 1533.48,1290.4 1535.71,1290.4 1537.94,1290.4 1540.18,1290.4 1542.41,1290.4 1544.64,1290.4 1546.88,1290.4 1549.11,1290.4 1551.34,1290.4 1553.58,1290.4 1555.81,1290.4 1558.04,1290.4 1560.27,1290.4 1562.51,1290.4 1564.74,1290.4 1566.97,1290.4 1569.21,1290.4 1571.44,1290.4 1573.67,1290.4 1575.9,1290.4 1578.14,1290.4 1580.37,1290.4 1582.6,1290.4 1584.84,1290.4 1587.07,1290.4 1589.3,1290.4 1591.54,1290.4 1593.77,1290.4 1596,1290.4 1598.23,1290.4 1600.47,1290.4 1602.7,1290.4 1604.93,1290.4 1607.17,1290.4 1609.4,1290.4 1611.63,1290.4 1613.87,1290.4 1616.1,1290.4 1618.33,1290.4 1620.56,1290.4 1622.8,1290.4 1625.03,1290.4 1627.26,1290.4 1629.5,1290.4 1631.73,1290.4 1633.96,1290.4 1636.2,1290.4 1638.43,1290.4 1640.66,1290.4 1642.89,1290.4 1645.13,1290.4 1647.36,1290.4 1649.59,1290.4 1651.83,1290.4 1654.06,1290.4 1656.29,1290.4 1658.52,1290.4 1660.76,1290.4 1662.99,1290.01 1665.22,1290.01 1667.46,1290.01 1669.69,1290.01 1671.92,1290.01 1674.16,1290.01 1676.39,1290.01 1678.62,1290.01 1680.85,1290.01 1683.09,1290.01 1685.32,1290.01 1687.55,1290.01 1689.79,1290.01 1692.02,1290.01 1694.25,1290.01 1696.49,1290.01 1698.72,1290.01 1700.95,1290.01 1703.18,1290.01 1705.42,1290.01 1707.65,1290.01 1709.88,1290.01 1712.12,1290.01 1714.35,1290.01 1716.58,1290.01 1718.82,1290.01 1721.05,1290.01 1723.28,1290.01 1725.51,1290.01 1727.75,1290.01 1729.98,1290.01 1732.21,1290.01 1734.45,1290.01 1736.68,1290.01 1738.91,1290.01 1741.15,1290.01 1743.38,1290.01 1745.61,1290.01 1747.84,1290.01 1750.08,1290.01 1752.31,1290.01 1754.54,1290.01 1756.78,1290.01 1759.01,1290.01 1761.24,1290.01 1763.48,1290.01 1765.71,1290.01 1767.94,1290.01 1770.17,1290.01 1772.41,1290.01 1774.64,1290.01 1776.87,1290.01 1779.11,1290.01 1781.34,1290.01 1783.57,1290.01 1785.8,1290.01 1788.04,1290.01 1790.27,1290.01 1792.5,1290.01 1794.74,1290.01 1796.97,1290.01 1799.2,1290.01 1801.44,1289.62 1803.67,1289.62 1805.9,1289.62 1808.13,1289.62 1810.37,1289.62 1812.6,1289.62 1814.83,1289.62 1817.07,1289.62 1819.3,1289.62 1821.53,1289.62 1823.77,1289.62 1826,1289.62 1828.23,1289.62 1830.46,1289.62 1832.7,1289.62 1834.93,1289.62 1837.16,1289.62 1839.4,1289.62 1841.63,1289.62 1843.86,1289.62 1846.1,1289.62 1848.33,1289.62 1850.56,1289.62 1852.79,1289.62 1855.03,1289.62 1857.26,1289.62 1859.49,1289.62 1861.73,1289.62 1863.96,1289.62 1866.19,1289.62 1868.42,1289.62 1870.66,1289.62 1872.89,1289.62 1875.12,1289.62 1877.36,1289.62 1879.59,1289.62 1881.82,1289.62 1884.06,1289.62 1886.29,1289.62 1888.52,1289.62 1890.75,1289.62 1892.99,1289.62 1895.22,1289.62 1897.45,1289.62 1899.69,1289.62 1901.92,1289.62 1904.15,1289.62 1906.39,1289.62 1908.62,1289.62 1910.85,1289.62 1913.08,1289.62 1915.32,1289.62 1917.55,1289.62 1919.78,1289.62 1922.02,1289.62 1924.25,1289.62 1926.48,1289.62 1928.72,1289.62 1930.95,1289.62 1933.18,1289.62 1935.41,1289.62 1937.65,1289.23 1939.88,1289.23 1942.11,1289.23 1944.35,1289.23 1946.58,1289.23 1948.81,1289.23 1951.04,1289.23 1953.28,1289.23 1955.51,1289.23 1957.74,1289.23 1959.98,1289.23 1962.21,1289.23 1964.44,1289.23 1966.68,1289.23 1968.91,1289.23 1971.14,1289.23 1973.37,1289.23 1975.61,1289.23 1977.84,1289.23 1980.07,1289.23 1982.31,1289.23 1984.54,1289.23 1986.77,1289.23 1989.01,1289.23 1991.24,1289.23 1993.47,1289.23 1995.7,1289.23 1997.94,1289.23 2000.17,1289.23 2002.4,1289.23 2004.64,1289.23 2006.87,1289.23 2009.1,1289.23 2011.33,1289.23 2013.57,1289.23 2015.8,1289.23 2018.03,1289.23 2020.27,1289.23 2022.5,1289.23 2024.73,1289.23 2026.97,1289.23 2029.2,1289.23 2031.43,1289.23 2033.67,1289.23 2035.9,1289.23 2038.13,1289.23 2040.36,1289.23 2042.6,1289.23 2044.83,1289.23 2047.06,1289.23 2049.3,1289.23 2051.53,1289.23 2053.76,1289.23 2056,1289.23 2058.23,1289.23 2060.46,1289.23 2062.69,1289.23 2064.93,1289.23 2067.16,1289.23 2069.39,1289.23 2071.63,1289.23 2073.86,1289.23 2076.09,1288.83 2078.32,1288.83 2080.56,1288.83 2082.79,1288.83 2085.02,1288.83 2087.26,1288.83 2089.49,1288.83 2091.72,1288.83 2093.96,1288.83 2096.19,1288.83 2098.42,1288.83 2100.65,1288.83 2102.89,1288.83 2105.12,1288.83 2107.35,1288.83 2109.59,1288.83 2111.82,1288.83 2114.05,1288.83 2116.29,1288.83 2118.52,1288.83 2120.75,1288.83 2122.98,1288.83 2125.22,1288.83 2127.45,1288.83 2129.68,1288.83 2131.92,1288.83 2134.15,1288.83 2136.38,1288.83 2138.62,1288.83 2140.85,1288.83 2143.08,1288.83 2145.31,1288.83 2147.55,1288.83 2149.78,1288.83 2152.01,1288.83 2154.25,1288.83 2156.48,1288.83 2158.71,1288.83 2160.94,1288.83 2163.18,1288.83 2165.41,1288.83 2167.64,1288.83 2169.88,1288.83 2172.11,1288.83 2174.34,1288.83 2176.58,1288.83 2178.81,1288.83 2181.04,1288.83 2183.27,1288.83 2185.51,1288.83 2187.74,1288.83 2189.97,1288.83 2192.21,1288.83 2194.44,1288.83 2196.67,1288.83 2198.91,1288.83 2201.14,1288.83 2203.37,1288.83 2205.6,1288.83 2207.84,1288.83 2210.07,1288.83 2212.3,1288.44 2214.54,1288.44 2216.77,1288.44 2219,1288.44 2221.24,1288.44 2223.47,1288.44 2225.7,1288.44 2227.93,1288.44 2230.17,1288.44 2232.4,1288.44 2234.63,1288.44 2236.87,1288.44 2239.1,1288.44 2241.33,1288.44 2243.56,1288.44 2245.8,1288.44 2248.03,1288.44 2250.26,1288.44 2252.5,1288.44 2254.73,1288.44 2256.96,1288.44 2259.2,1288.44 2261.43,1288.44 2263.66,1288.44 2265.89,1288.44 2268.13,1288.44 2270.36,1288.44 2272.59,1288.44 2274.83,1288.44 2277.06,1288.44 2279.29,1288.44 2281.53,1288.44 2283.76,1288.44 2285.99,1288.44 2288.22,1288.44 2290.46,1288.44 2292.69,1288.44 2294.92,1288.44 2297.16,1288.44 2299.39,1288.44 2301.62,1288.44 2303.86,1288.44 2306.09,1288.44 2308.32,1288.44 2310.55,1288.44 2312.79,1288.44 2315.02,1288.44 2317.25,1288.44 2319.49,1288.44 2321.72,1288.44 2323.95,1288.44 2326.18,1288.44 2328.42,1288.44 2330.65,1288.44 2332.88,1288.44 2335.12,1288.44 2337.35,1288.44 2339.58,1288.44 2341.82,1288.44 2344.05,1288.44 2346.28,1288.44 2348.51,1288.44 2350.75,1288.05 2352.98,1288.05 2355.21,1288.05 2357.45,1288.05 2359.68,1288.05 2361.91,1288.05 2364.15,1288.05 2366.38,1288.05 2368.61,1288.05 2370.84,1288.05 2373.08,1288.05 2375.31,1288.05 2377.54,1288.05 2379.78,1288.05 2382.01,1288.05 2384.24,1288.05 2386.48,1288.05 2388.71,1288.05 2390.94,1288.05 2393.17,1288.05 2395.41,1288.05 2397.64,1288.05 2399.87,1288.05 2402.11,1288.05 2404.34,1288.05 2406.57,1288.05 2408.8,1288.05 2411.04,1288.05 2413.27,1288.05 2415.5,1288.05 2417.74,1288.05 2419.97,1288.05 2422.2,1288.05 2424.44,1288.05 2426.67,1288.05 2428.9,1288.05 2431.13,1288.05 2433.37,1288.05 2435.6,1288.05 2437.83,1288.05 2440.07,1288.05 2442.3,1288.05 2444.53,1288.05 2446.77,1288.05 2449,1288.05 2451.23,1288.05 2453.46,1288.05 2455.7,1288.05 2457.93,1288.05 2460.16,1288.05 2462.4,1288.05 2464.63,1288.05 2466.86,1288.05 2469.1,1288.05 2471.33,1288.05 2473.56,1288.05 2475.79,1288.05 2478.03,1288.05 2480.26,1288.05 2482.49,1288.05 2484.73,1288.05 2486.96,1287.66 2489.19,1287.66 2491.42,1287.66 2493.66,1287.66 2495.89,1287.66 2498.12,1287.66 2500.36,1287.66 2502.59,1287.66 2504.82,1287.66 2507.06,1287.66 2509.29,1287.66 2511.52,1287.66 2513.75,1287.66 2515.99,1287.66 2518.22,1287.66 2520.45,1287.66 2522.69,1287.66 2524.92,1287.66 2527.15,1287.66 2529.39,1287.66 2531.62,1287.66 2533.85,1287.66 2536.08,1287.66 2538.32,1287.66 2540.55,1287.66 2542.78,1287.66 2545.02,1287.66 2547.25,1287.66 2549.48,1287.66 2551.72,1287.66 2553.95,1287.66 2556.18,1287.66 2558.41,1287.66 2560.65,1287.66 2562.88,1287.66 2565.11,1287.66 2567.35,1287.66 2569.58,1287.66 2571.81,1287.66 2574.04,1287.66 2576.28,1287.66 2578.51,1287.66 2580.74,1287.66 2582.98,1287.66 2585.21,1287.66 2587.44,1287.66 2589.68,1287.66 2591.91,1287.66 2594.14,1287.66 2596.38,1287.66 2598.61,1287.66 2600.84,1287.66 2603.07,1287.66 2605.31,1287.66 2607.54,1287.66" stroke="#76ab2f"/>
  </g>
  <clipPath id="cp0028811459">
   <polygon points="0,1459 2881,1459 2881,0 0,0"/>
  </clipPath>
  <g clip-path="url(#cp0028811459)">
   <polygon fill="#ffffff" shape-rendering="crispEdges" points="2505.56,177.442 2599.54,177.442 2599.54,117.451 2505.56,117.451"/>
   <polyline fill="none" stroke-linecap="square" stroke-width="0.5" stroke-linejoin="miter" stroke-dasharray="16,0" points="2505.56,177.442 2599.54,177.442" stroke="#262626"/>
   <polyline fill="none" stroke-linecap="square" stroke-width="0.5" stroke-linejoin="miter" stroke-dasharray="16,0" points="2505.56,117.451 2599.54,117.451" stroke="#262626"/>
   <polyline fill="none" stroke-linecap="square" stroke-width="0.5" stroke-linejoin="miter" stroke-dasharray="16,0" points="2505.56,177.442 2505.56,117.451" stroke="#262626"/>
   <polyline fill="none" stroke-linecap="square" stroke-width="0.5" stroke-linejoin="miter" stroke-dasharray="16,0" points="2599.54,177.442 2599.54,117.451" stroke="#262626"/>
   <polyline fill="none" stroke-linecap="butt" stroke-width="0.5" stroke-linejoin="round" points="2509.56,126.449 2529.55,126.449" stroke="#0071bc"/>
   <text font-size="9" xml:space="preserve" transform="translate(2533.54,131.449) rotate(-0,-0,-5)" font-family="FreeSans" font-weight="normal" font-style="normal">
    <tspan fill="rgb(0,0,0)" x="0 5 7 12 17 22 24 29 34 39 41 46 50 53 58 " y="-2">1 000 000 bytes</tspan>
   </text>
   <polyline fill="none" stroke-linecap="butt" stroke-width="0.5" stroke-linejoin="round" points="2509.56,140.447 2529.55,140.447" stroke="#d85218"/>
   <text font-size="9" xml:space="preserve" transform="translate(2533.54,145.447) rotate(-0,-0,-5)" font-family="FreeSans" font-weight="normal" font-style="normal">
    <tspan fill="rgb(0,0,0)" x="0 5 10 15 17 22 27 32 34 39 43 46 51 " y="-2">600 000 bytes</tspan>
   </text>
   <polyline fill="none" stroke-linecap="butt" stroke-width="0.5" stroke-linejoin="round" points="2509.56,154.445 2529.55,154.445" stroke="#ecb01f"/>
   <text font-size="9" xml:space="preserve" transform="translate(2533.54,159.445) rotate(-0,-0,-5)" font-family="FreeSans" font-weight="normal" font-style="normal">
    <tspan fill="rgb(0,0,0)" x="0 5 10 15 17 22 27 32 34 39 43 46 51 " y="-2">300 000 bytes</tspan>
   </text>
   <polyline fill="none" stroke-linecap="butt" stroke-width="0.5" stroke-linejoin="round" points="2509.56,168.443 2529.55,168.443" stroke="#7d2e8d"/>
   <text font-size="9" xml:space="preserve" transform="translate(2533.54,173.444) rotate(-0,-0,-5)" font-family="FreeSans" font-weight="normal" font-style="normal">
    <tspan fill="rgb(0,0,0)" x="0 5 10 15 17 22 27 32 34 39 43 46 51 " y="-2">200 000 bytes</tspan>
   </text>
  </g>
 </g>
</svg>
